<?xml version="1.0" encoding="ISO-8859-1"?>

<!DOCTYPE svg PUBLIC '-//W3C//DTD SVG 1.0//EN' 'http://www.w3.org/TR/2001/REC-SVG-20010904/DTD/svg10.dtd'>
<svg stroke-dasharray="none" shape-rendering="auto" xmlns="http://www.w3.org/2000/svg" font-family="&apos;Dialog&apos;" width="170" text-rendering="auto" fill-opacity="1" contentScriptType="text/ecmascript" color-interpolation="auto" color-rendering="auto" preserveAspectRatio="xMidYMid meet" font-size="12" fill="black" xmlns:xlink="http://www.w3.org/1999/xlink" stroke="black" image-rendering="auto" stroke-miterlimit="10" zoomAndPan="magnify" version="1.0" stroke-linecap="square" stroke-linejoin="miter" contentStyleType="text/css" font-style="normal" height="259" stroke-width="1" stroke-dashoffset="0" font-weight="normal" stroke-opacity="1">
  <!--Generated by the Batik Graphics2D SVG Generator-->
  <defs id="genericDefs" />
  <g>
    <defs id="defs1">
      <clipPath clipPathUnits="userSpaceOnUse" id="clipPath1">
        <path d="M-1 8 L171 8 L171 260 L-1 260 L-1 8 Z" />
      </clipPath>
      <clipPath clipPathUnits="userSpaceOnUse" id="clipPath2">
        <path d="M87 72 L111 72 L111 96 L87 96 L87 72 Z" />
      </clipPath>
      <clipPath clipPathUnits="userSpaceOnUse" id="clipPath3">
        <path d="M144 22 L168 22 L168 46 L144 46 L144 22 Z" />
      </clipPath>
      <clipPath clipPathUnits="userSpaceOnUse" id="clipPath4">
        <path d="M31 21 L57 21 L57 47 L31 47 L31 21 Z" />
      </clipPath>
      <clipPath clipPathUnits="userSpaceOnUse" id="clipPath5">
        <path d="M59 122 L83 122 L83 146 L59 146 L59 122 Z" />
      </clipPath>
      <clipPath clipPathUnits="userSpaceOnUse" id="clipPath6">
        <path d="M116 122 L140 122 L140 146 L116 146 L116 122 Z" />
      </clipPath>
      <clipPath clipPathUnits="userSpaceOnUse" id="clipPath7">
        <path d="M-1 -1 L171 -1 L171 260 L-1 260 L-1 -1 Z" />
      </clipPath>
    </defs>
    <g font-size="14" fill="rgb(14,14,14)" text-rendering="optimizeLegibility" font-family="&apos;Verdana&apos;" stroke-linejoin="round" stroke="rgb(14,14,14)" stroke-width="0" stroke-miterlimit="0">
      <rect x="14" y="9" clip-path="url(#clipPath1)" width="141" height="249" stroke="none" />
    </g>
    <g stroke-linecap="butt" font-size="14" fill="rgb(14,14,14)" text-rendering="optimizeLegibility" font-family="&apos;Verdana&apos;" stroke="rgb(14,14,14)">
      <rect x="14" y="9" clip-path="url(#clipPath1)" fill="none" width="141" height="249" />
      <rect x="14" y="9" clip-path="url(#clipPath1)" fill="white" width="141" height="5" stroke="none" />
      <rect x="14" y="9" clip-path="url(#clipPath1)" fill="none" width="141" height="5" stroke="white" />
      <rect x="14" y="58" clip-path="url(#clipPath1)" fill="gray" width="141" height="1" stroke="none" />
      <rect x="14" y="58" clip-path="url(#clipPath1)" fill="none" width="141" height="1" stroke="gray" />
      <rect x="14" y="108" clip-path="url(#clipPath1)" fill="gray" width="141" height="1" stroke="none" />
      <rect x="14" y="108" clip-path="url(#clipPath1)" fill="none" width="141" height="1" stroke="gray" />
      <rect x="14" y="157" clip-path="url(#clipPath1)" fill="gray" width="141" height="1" stroke="none" />
      <rect x="14" y="157" clip-path="url(#clipPath1)" fill="none" width="141" height="1" stroke="gray" />
      <rect x="14" y="207" clip-path="url(#clipPath1)" fill="gray" width="141" height="1" stroke="none" />
      <rect x="14" y="207" clip-path="url(#clipPath1)" fill="none" width="141" height="1" stroke="gray" />
      <rect x="14" y="257" clip-path="url(#clipPath1)" fill="gray" width="141" height="1" stroke="none" />
      <rect x="14" y="257" clip-path="url(#clipPath1)" fill="none" width="141" height="1" stroke="gray" />
      <line stroke-linecap="square" clip-path="url(#clipPath1)" fill="none" x1="155" x2="155" y1="9" y2="258" stroke="white" />
      <line stroke-linecap="square" clip-path="url(#clipPath1)" fill="none" x1="127" x2="127" y1="9" y2="258" stroke="white" />
      <line stroke-linecap="square" clip-path="url(#clipPath1)" fill="none" x1="99" x2="99" y1="9" y2="258" stroke="white" />
      <rect stroke-linecap="square" x="70" y="9" clip-path="url(#clipPath1)" fill="white" width="2" height="249" stroke="none" />
      <rect stroke-linecap="square" x="70" y="9" clip-path="url(#clipPath1)" fill="none" width="2" height="249" stroke="rgb(48,48,48)" />
      <rect stroke-linecap="square" x="42" y="9" clip-path="url(#clipPath1)" fill="white" width="3" height="249" stroke="none" />
      <rect stroke-linecap="square" x="42" y="9" clip-path="url(#clipPath1)" fill="none" width="3" height="249" stroke="rgb(48,48,48)" />
      <rect stroke-linecap="square" x="14" y="9" clip-path="url(#clipPath1)" fill="white" width="4" height="249" stroke="none" />
      <rect stroke-linecap="square" x="14" y="9" clip-path="url(#clipPath1)" fill="none" width="4" height="249" stroke="rgb(48,48,48)" />
    </g>
    <g fill="white" text-rendering="geometricPrecision" font-size="11" font-family="&apos;Helvetica&apos;" stroke="white">
      <circle r="9" clip-path="url(#clipPath2)" cx="99" cy="84" stroke="none" />
      <circle stroke-linecap="butt" clip-path="url(#clipPath2)" fill="none" r="9" cx="99" cy="84" stroke-width="2" />
    </g>
    <g text-rendering="geometricPrecision" stroke-width="2" font-size="11" font-family="&apos;Helvetica&apos;" stroke-linecap="butt">
      <text xml:space="preserve" x="95" y="87" clip-path="url(#clipPath2)" stroke="none">3</text>
      <circle clip-path="url(#clipPath3)" fill="white" r="9" cx="156" cy="34" stroke="none" />
      <circle clip-path="url(#clipPath3)" fill="none" r="9" cx="156" cy="34" stroke="white" />
      <text xml:space="preserve" x="152" y="37" clip-path="url(#clipPath3)" stroke="none">2</text>
      <rect x="35" y="25" clip-path="url(#clipPath4)" fill="white" width="18" height="18" stroke="none" />
      <rect x="35" y="25" clip-path="url(#clipPath4)" fill="none" width="18" height="18" stroke="white" />
      <rect x="35" y="25" clip-path="url(#clipPath4)" fill="none" width="18" height="18" stroke="white" />
      <text x="40" font-size="12" y="39" clip-path="url(#clipPath4)" stroke="none" xml:space="preserve">1</text>
      <circle clip-path="url(#clipPath5)" fill="white" r="9" cx="71" cy="134" stroke="none" />
      <circle clip-path="url(#clipPath5)" fill="none" r="9" cx="71" cy="134" stroke="white" />
      <text xml:space="preserve" x="67" y="137" clip-path="url(#clipPath5)" stroke="none">4</text>
      <circle clip-path="url(#clipPath6)" fill="white" r="9" cx="128" cy="134" stroke="none" />
      <circle clip-path="url(#clipPath6)" fill="none" r="9" cx="128" cy="134" stroke="white" />
      <text xml:space="preserve" x="124" y="137" clip-path="url(#clipPath6)" stroke="none">5</text>
      <path fill="rgb(28,222,147)" d="M154 21 C154 9.402 129.8234 0 100 0 C70.1766 0 46 9.402 46 21 L46 21 C46 14.3726 70.1766 9 100 9 C129.8234 9 154 14.3726 154 21" clip-path="url(#clipPath7)" fill-rule="evenodd" stroke="none" />
      <path fill="rgb(28,222,147)" d="M154 21 C154 9.402 129.8234 0 100 0 C70.1766 0 46 9.402 46 21 L46 21 C46 14.3726 70.1766 9 100 9 C129.8234 9 154 14.3726 154 21" clip-path="url(#clipPath7)" fill-rule="evenodd" stroke="none" />
    </g>
  </g>
</svg>
