<?xml version="1.0" encoding="ISO-8859-1"?>

<!DOCTYPE svg PUBLIC '-//W3C//DTD SVG 1.0//EN' 'http://www.w3.org/TR/2001/REC-SVG-20010904/DTD/svg10.dtd'>
<svg stroke-dasharray="none" shape-rendering="auto" xmlns="http://www.w3.org/2000/svg" font-family="&apos;Dialog&apos;" width="192" text-rendering="auto" fill-opacity="1" contentScriptType="text/ecmascript" color-interpolation="auto" color-rendering="auto" preserveAspectRatio="xMidYMid meet" font-size="12" fill="black" xmlns:xlink="http://www.w3.org/1999/xlink" stroke="black" image-rendering="auto" stroke-miterlimit="10" zoomAndPan="magnify" version="1.0" stroke-linecap="square" stroke-linejoin="miter" contentStyleType="text/css" font-style="normal" height="300" stroke-width="1" stroke-dashoffset="0" font-weight="normal" stroke-opacity="1">
  <!--Generated by the Batik Graphics2D SVG Generator-->
  <defs id="genericDefs" />
  <g>
    <defs id="defs1">
      <clipPath clipPathUnits="userSpaceOnUse" id="clipPath1">
        <path d="M13 0 L177 0 L177 28 L13 28 L13 0 Z" />
      </clipPath>
      <clipPath clipPathUnits="userSpaceOnUse" id="clipPath2">
        <path d="M14 0 L177 0 L177 19 L14 19 L14 0 Z" />
      </clipPath>
      <clipPath clipPathUnits="userSpaceOnUse" id="clipPath3">
        <path d="M-1 27 L193 27 L193 301 L-1 301 L-1 27 Z" />
      </clipPath>
      <clipPath clipPathUnits="userSpaceOnUse" id="clipPath4">
        <path d="M1 147 L33 147 L33 179 L1 179 L1 147 Z" />
      </clipPath>
      <clipPath clipPathUnits="userSpaceOnUse" id="clipPath5">
        <path d="M33 201 L65 201 L65 233 L33 233 L33 201 Z" />
      </clipPath>
      <clipPath clipPathUnits="userSpaceOnUse" id="clipPath6">
        <path d="M64 94 L96 94 L96 126 L64 126 L64 94 Z" />
      </clipPath>
    </defs>
    <g font-size="14" fill="white" text-rendering="optimizeLegibility" font-family="&apos;Verdana&apos;" stroke-linejoin="round" stroke="white" stroke-width="0" stroke-miterlimit="0">
      <rect x="14" y="1" clip-path="url(#clipPath1)" width="162" opacity="0" height="26" stroke="none" />
      <text x="62" y="16" clip-path="url(#clipPath2)" fill="rgb(254,255,254)" stroke="none" xml:space="preserve">2nd.. inv.</text>
      <rect x="16" y="28" clip-path="url(#clipPath3)" fill="rgb(14,14,14)" width="160" height="271" stroke="none" />
    </g>
    <g stroke-linecap="butt" font-size="14" fill="rgb(14,14,14)" text-rendering="optimizeLegibility" font-family="&apos;Verdana&apos;" stroke="rgb(14,14,14)">
      <rect x="16" y="28" clip-path="url(#clipPath3)" fill="none" width="160" height="271" />
      <rect x="16" y="28" clip-path="url(#clipPath3)" fill="gray" width="160" height="5" stroke="none" />
      <rect x="16" y="28" clip-path="url(#clipPath3)" fill="none" width="160" height="5" stroke="gray" />
      <rect x="16" y="81" clip-path="url(#clipPath3)" fill="gray" width="160" height="5" stroke="none" />
      <rect x="16" y="81" clip-path="url(#clipPath3)" fill="none" width="160" height="5" stroke="gray" />
      <rect x="16" y="134" clip-path="url(#clipPath3)" fill="gray" width="160" height="5" stroke="none" />
      <rect x="16" y="134" clip-path="url(#clipPath3)" fill="none" width="160" height="5" stroke="gray" />
      <rect x="16" y="187" clip-path="url(#clipPath3)" fill="gray" width="160" height="5" stroke="none" />
      <rect x="16" y="187" clip-path="url(#clipPath3)" fill="none" width="160" height="5" stroke="gray" />
      <rect x="16" y="240" clip-path="url(#clipPath3)" fill="gray" width="160" height="5" stroke="none" />
      <rect x="16" y="240" clip-path="url(#clipPath3)" fill="none" width="160" height="5" stroke="gray" />
      <rect x="16" y="294" clip-path="url(#clipPath3)" fill="gray" width="160" height="5" stroke="none" />
      <rect x="16" y="294" clip-path="url(#clipPath3)" fill="none" width="160" height="5" stroke="gray" />
      <line stroke-linecap="square" clip-path="url(#clipPath3)" fill="none" x1="176" x2="176" y1="28" y2="299" stroke="white" />
      <line stroke-linecap="square" clip-path="url(#clipPath3)" fill="none" x1="144" x2="144" y1="28" y2="299" stroke="white" />
      <line stroke-linecap="square" clip-path="url(#clipPath3)" fill="none" x1="112" x2="112" y1="28" y2="299" stroke="white" />
      <rect stroke-linecap="square" x="80" y="28" clip-path="url(#clipPath3)" fill="white" width="2" height="271" stroke="none" />
      <rect stroke-linecap="square" x="80" y="28" clip-path="url(#clipPath3)" fill="none" width="2" height="271" stroke="rgb(48,48,48)" />
      <rect stroke-linecap="square" x="48" y="28" clip-path="url(#clipPath3)" fill="white" width="3" height="271" stroke="none" />
      <rect stroke-linecap="square" x="48" y="28" clip-path="url(#clipPath3)" fill="none" width="3" height="271" stroke="rgb(48,48,48)" />
      <rect stroke-linecap="square" x="16" y="28" clip-path="url(#clipPath3)" fill="white" width="4" height="271" stroke="none" />
      <rect stroke-linecap="square" x="16" y="28" clip-path="url(#clipPath3)" fill="none" width="4" height="271" stroke="rgb(48,48,48)" />
    </g>
    <g fill="rgb(254,255,254)" text-rendering="geometricPrecision" font-size="15" font-family="&apos;Helvetica&apos;" stroke="rgb(254,255,254)">
      <circle r="13" clip-path="url(#clipPath4)" cx="17" cy="163" stroke="none" />
      <circle stroke-linecap="butt" clip-path="url(#clipPath4)" fill="none" r="13" cx="17" cy="163" stroke-width="2" />
    </g>
    <g stroke-linecap="butt" font-size="18" fill="rgb(13,14,13)" text-rendering="geometricPrecision" font-family="&apos;OpusText&apos;" stroke="rgb(13,14,13)" font-weight="bold" stroke-width="2">
      <text xml:space="preserve" x="10" y="168" clip-path="url(#clipPath4)" stroke="none">b</text>
      <text x="16" font-size="15" y="167" clip-path="url(#clipPath4)" font-family="&apos;Helvetica&apos;" stroke="none" font-weight="normal" xml:space="preserve">5</text>
    </g>
    <g stroke-linecap="butt" font-size="15" fill="red" text-rendering="geometricPrecision" font-family="&apos;Helvetica&apos;" stroke="red" stroke-width="2">
      <circle r="13" clip-path="url(#clipPath5)" cx="49" cy="217" stroke="none" />
      <circle fill="none" r="13" clip-path="url(#clipPath5)" cx="49" cy="217" />
      <text x="43" y="221" clip-path="url(#clipPath5)" fill="rgb(13,14,13)" stroke="none" xml:space="preserve">R</text>
      <circle clip-path="url(#clipPath6)" fill="rgb(254,255,254)" r="13" cx="80" cy="110" stroke="none" />
      <circle clip-path="url(#clipPath6)" fill="none" r="13" cx="80" cy="110" stroke="rgb(254,255,254)" />
    </g>
    <g stroke-linecap="butt" font-size="18" fill="rgb(13,14,13)" text-rendering="geometricPrecision" font-family="&apos;OpusText&apos;" stroke="rgb(13,14,13)" font-weight="bold" stroke-width="2">
      <text xml:space="preserve" x="73" y="115" clip-path="url(#clipPath6)" stroke="none">b</text>
      <text x="79" font-size="15" y="114" clip-path="url(#clipPath6)" font-family="&apos;Helvetica&apos;" stroke="none" font-weight="normal" xml:space="preserve">3</text>
    </g>
  </g>
</svg>
