<?xml version="1.0" encoding="ISO-8859-1"?>

<!DOCTYPE svg PUBLIC '-//W3C//DTD SVG 1.0//EN' 'http://www.w3.org/TR/2001/REC-SVG-20010904/DTD/svg10.dtd'>
<svg stroke-dasharray="none" shape-rendering="auto" xmlns="http://www.w3.org/2000/svg" font-family="&apos;Dialog&apos;" width="192" text-rendering="auto" fill-opacity="1" contentScriptType="text/ecmascript" color-interpolation="auto" color-rendering="auto" preserveAspectRatio="xMidYMid meet" font-size="12" fill="black" xmlns:xlink="http://www.w3.org/1999/xlink" stroke="black" image-rendering="auto" stroke-miterlimit="10" zoomAndPan="magnify" version="1.0" stroke-linecap="square" stroke-linejoin="miter" contentStyleType="text/css" font-style="normal" height="272" stroke-width="1" stroke-dashoffset="0" font-weight="normal" stroke-opacity="1">
  <!--Generated by the Batik Graphics2D SVG Generator-->
  <defs id="genericDefs" />
  <g>
    <defs id="defs1">
      <clipPath clipPathUnits="userSpaceOnUse" id="clipPath1">
        <path d="M160 66 L192 66 L192 98 L160 98 L160 66 Z" />
      </clipPath>
      <clipPath clipPathUnits="userSpaceOnUse" id="clipPath2">
        <path d="M128 13 L160 13 L160 45 L128 45 L128 13 Z" />
      </clipPath>
      <clipPath clipPathUnits="userSpaceOnUse" id="clipPath3">
        <path d="M2 66 L34 66 L34 98 L2 98 L2 66 Z" />
      </clipPath>
      <clipPath clipPathUnits="userSpaceOnUse" id="clipPath4">
        <path d="M96 66 L128 66 L128 98 L96 98 L96 66 Z" />
      </clipPath>
      <clipPath clipPathUnits="userSpaceOnUse" id="clipPath5">
        <path d="M2 226 L34 226 L34 258 L2 258 L2 226 Z" />
      </clipPath>
      <clipPath clipPathUnits="userSpaceOnUse" id="clipPath6">
        <path d="M33 120 L65 120 L65 152 L33 152 L33 120 Z" />
      </clipPath>
      <clipPath clipPathUnits="userSpaceOnUse" id="clipPath7">
        <path d="M65 13 L97 13 L97 45 L65 45 L65 13 Z" />
      </clipPath>
      <clipPath clipPathUnits="userSpaceOnUse" id="clipPath8">
        <path d="M128 173 L160 173 L160 205 L128 205 L128 173 Z" />
      </clipPath>
      <clipPath clipPathUnits="userSpaceOnUse" id="clipPath9">
        <path d="M65 173 L97 173 L97 205 L65 205 L65 173 Z" />
      </clipPath>
    </defs>
    <g font-size="19" fill="rgb(14,14,14)" text-rendering="optimizeLegibility" font-family="&apos;Verdana&apos;" stroke-linejoin="round" stroke="rgb(14,14,14)" stroke-width="0" stroke-miterlimit="0">
      <rect width="160" x="16" height="271" y="0" stroke="none" />
    </g>
    <g stroke-linecap="butt" font-size="19" fill="rgb(14,14,14)" text-rendering="optimizeLegibility" font-family="&apos;Verdana&apos;" stroke="rgb(14,14,14)">
      <rect fill="none" width="160" x="16" height="271" y="0" />
      <rect x="16" y="0" fill="gray" width="160" height="5" stroke="none" />
      <rect x="16" y="0" fill="none" width="160" height="5" stroke="gray" />
      <rect x="16" y="53" fill="gray" width="160" height="5" stroke="none" />
      <rect x="16" y="53" fill="none" width="160" height="5" stroke="gray" />
      <rect x="16" y="106" fill="gray" width="160" height="5" stroke="none" />
      <rect x="16" y="106" fill="none" width="160" height="5" stroke="gray" />
      <rect x="16" y="159" fill="gray" width="160" height="5" stroke="none" />
      <rect x="16" y="159" fill="none" width="160" height="5" stroke="gray" />
      <rect x="16" y="212" fill="gray" width="160" height="5" stroke="none" />
      <rect x="16" y="212" fill="none" width="160" height="5" stroke="gray" />
      <rect x="16" y="266" fill="gray" width="160" height="5" stroke="none" />
      <rect x="16" y="266" fill="none" width="160" height="5" stroke="gray" />
      <line stroke-linecap="square" fill="none" x1="176" x2="176" y1="0" y2="271" stroke="white" />
      <line stroke-linecap="square" fill="none" x1="144" x2="144" y1="0" y2="271" stroke="white" />
      <line stroke-linecap="square" fill="none" x1="112" x2="112" y1="0" y2="271" stroke="white" />
      <rect stroke-linecap="square" x="80" y="0" fill="white" width="2" height="271" stroke="none" />
      <rect stroke-linecap="square" x="80" y="0" fill="none" width="2" height="271" stroke="rgb(48,48,48)" />
      <rect stroke-linecap="square" x="48" y="0" fill="white" width="3" height="271" stroke="none" />
      <rect stroke-linecap="square" x="48" y="0" fill="none" width="3" height="271" stroke="rgb(48,48,48)" />
      <rect stroke-linecap="square" x="16" y="0" fill="white" width="4" height="271" stroke="none" />
      <rect stroke-linecap="square" x="16" y="0" fill="none" width="4" height="271" stroke="rgb(48,48,48)" />
    </g>
    <g font-size="17" fill="red" text-rendering="geometricPrecision" font-family="&apos;Arial&apos;" stroke="red" font-weight="bold">
      <circle r="13" clip-path="url(#clipPath1)" cx="176" cy="82" stroke="none" />
      <circle stroke-linecap="butt" clip-path="url(#clipPath1)" fill="none" r="13" cx="176" cy="82" stroke-width="2" />
    </g>
    <g stroke-linecap="butt" font-size="17" fill="rgb(14,14,14)" text-rendering="geometricPrecision" font-family="&apos;Arial&apos;" stroke="rgb(14,14,14)" font-weight="bold" stroke-width="2">
      <text xml:space="preserve" x="170" y="90" clip-path="url(#clipPath1)" stroke="none">R</text>
      <circle clip-path="url(#clipPath2)" fill="white" r="13" cx="144" cy="29" stroke="none" />
      <circle clip-path="url(#clipPath2)" fill="none" r="13" cx="144" cy="29" stroke="white" />
      <text x="136" font-size="20" y="37" clip-path="url(#clipPath2)" font-family="&apos;OpusText&apos;" stroke="none" xml:space="preserve">b</text>
      <text x="143" font-size="16" y="36" clip-path="url(#clipPath2)" stroke="none" xml:space="preserve">5</text>
      <circle clip-path="url(#clipPath3)" fill="red" r="13" cx="18" cy="82" stroke="none" />
      <circle clip-path="url(#clipPath3)" fill="none" r="13" cx="18" cy="82" stroke="red" />
      <text x="12" y="90" clip-path="url(#clipPath3)" fill="black" stroke="none" xml:space="preserve">R</text>
      <circle clip-path="url(#clipPath4)" fill="white" r="13" cx="112" cy="82" stroke="none" />
      <circle clip-path="url(#clipPath4)" fill="none" r="13" cx="112" cy="82" stroke="white" />
      <text x="104" font-size="20" y="90" clip-path="url(#clipPath4)" font-family="&apos;OpusText&apos;" stroke="none" xml:space="preserve">b</text>
      <text x="111" font-size="16" y="89" clip-path="url(#clipPath4)" stroke="none" xml:space="preserve">3</text>
      <circle clip-path="url(#clipPath5)" fill="white" r="13" cx="18" cy="242" stroke="none" />
      <circle clip-path="url(#clipPath5)" fill="none" r="13" cx="18" cy="242" stroke="white" />
      <text x="10" font-size="20" y="250" clip-path="url(#clipPath5)" font-family="&apos;OpusText&apos;" stroke="none" xml:space="preserve">b</text>
      <text x="17" font-size="16" y="249" clip-path="url(#clipPath5)" stroke="none" xml:space="preserve">3</text>
      <circle clip-path="url(#clipPath6)" fill="white" r="13" cx="49" cy="136" stroke="none" />
      <circle clip-path="url(#clipPath6)" fill="none" r="13" cx="49" cy="136" stroke="white" />
      <text x="41" font-size="20" y="144" clip-path="url(#clipPath6)" font-family="&apos;OpusText&apos;" stroke="none" xml:space="preserve">b</text>
      <text x="48" font-size="16" y="143" clip-path="url(#clipPath6)" stroke="none" xml:space="preserve">5</text>
      <circle clip-path="url(#clipPath7)" fill="white" r="13" cx="81" cy="29" stroke="none" />
      <circle clip-path="url(#clipPath7)" fill="none" r="13" cx="81" cy="29" stroke="white" />
      <text x="71" font-size="20" y="37" clip-path="url(#clipPath7)" font-family="&apos;OpusText&apos;" stroke="none" xml:space="preserve">bb</text>
      <text x="83" font-size="16" y="36" clip-path="url(#clipPath7)" stroke="none" xml:space="preserve">7</text>
      <circle clip-path="url(#clipPath8)" fill="white" r="13" cx="144" cy="189" stroke="none" />
      <circle clip-path="url(#clipPath8)" fill="none" r="13" cx="144" cy="189" stroke="white" />
      <text x="134" font-size="20" y="197" clip-path="url(#clipPath8)" font-family="&apos;OpusText&apos;" stroke="none" xml:space="preserve">bb</text>
      <text x="146" font-size="16" y="196" clip-path="url(#clipPath8)" stroke="none" xml:space="preserve">7</text>
      <circle clip-path="url(#clipPath9)" fill="red" r="13" cx="81" cy="189" stroke="none" />
      <circle clip-path="url(#clipPath9)" fill="none" r="13" cx="81" cy="189" stroke="red" />
      <text xml:space="preserve" x="75" y="197" clip-path="url(#clipPath9)" stroke="none">R</text>
    </g>
  </g>
</svg>
