<?xml version="1.0" encoding="ISO-8859-1"?>

<!DOCTYPE svg PUBLIC '-//W3C//DTD SVG 1.0//EN' 'http://www.w3.org/TR/2001/REC-SVG-20010904/DTD/svg10.dtd'>
<svg stroke-dasharray="none" shape-rendering="auto" xmlns="http://www.w3.org/2000/svg" font-family="&apos;Dialog&apos;" width="192" text-rendering="auto" fill-opacity="1" contentScriptType="text/ecmascript" color-interpolation="auto" color-rendering="auto" preserveAspectRatio="xMidYMid meet" font-size="12" fill="black" xmlns:xlink="http://www.w3.org/1999/xlink" stroke="black" image-rendering="auto" stroke-miterlimit="10" zoomAndPan="magnify" version="1.0" stroke-linecap="square" stroke-linejoin="miter" contentStyleType="text/css" font-style="normal" height="280" stroke-width="1" stroke-dashoffset="0" font-weight="normal" stroke-opacity="1">
  <!--Generated by the Batik Graphics2D SVG Generator-->
  <defs id="genericDefs" />
  <g>
    <defs id="defs1">
      <clipPath clipPathUnits="userSpaceOnUse" id="clipPath1">
        <path d="M-1 7 L193 7 L193 281 L-1 281 L-1 7 Z" />
      </clipPath>
      <clipPath clipPathUnits="userSpaceOnUse" id="clipPath2">
        <path d="M1 74 L33 74 L33 106 L1 106 L1 74 Z" />
      </clipPath>
      <clipPath clipPathUnits="userSpaceOnUse" id="clipPath3">
        <path d="M33 21 L65 21 L65 53 L33 53 L33 21 Z" />
      </clipPath>
      <clipPath clipPathUnits="userSpaceOnUse" id="clipPath4">
        <path d="M96 21 L128 21 L128 53 L96 53 L96 21 Z" />
      </clipPath>
      <clipPath clipPathUnits="userSpaceOnUse" id="clipPath5">
        <path d="M128 74 L160 74 L160 106 L128 106 L128 74 Z" />
      </clipPath>
      <clipPath clipPathUnits="userSpaceOnUse" id="clipPath6">
        <path d="M64 127 L96 127 L96 159 L64 159 L64 127 Z" />
      </clipPath>
      <clipPath clipPathUnits="userSpaceOnUse" id="clipPath7">
        <path d="M-1 -1 L193 -1 L193 281 L-1 281 L-1 -1 Z" />
      </clipPath>
    </defs>
    <g font-size="11" fill="rgb(72,220,147)" text-rendering="optimizeLegibility" stroke-linejoin="round" stroke="rgb(72,220,147)" stroke-width="0" stroke-miterlimit="0">
      <path d="M110 23.5 C110 10.5214 96.7924 0 80.5 0 C64.2076 0 51 10.5214 51 23.5 L51 23.5 C51 16.0442 64.2076 10 80.5 10 C96.7924 10 110 16.0442 110 23.5" fill-rule="evenodd" stroke="none" />
    </g>
    <g font-size="14" fill="rgb(14,14,14)" text-rendering="optimizeLegibility" font-family="&apos;Verdana&apos;" stroke-linejoin="round" stroke="rgb(14,14,14)" stroke-width="0" stroke-miterlimit="0">
      <rect x="16" y="8" clip-path="url(#clipPath1)" width="160" height="271" stroke="none" />
    </g>
    <g stroke-linecap="butt" font-size="14" fill="rgb(14,14,14)" text-rendering="optimizeLegibility" font-family="&apos;Verdana&apos;" stroke="rgb(14,14,14)">
      <rect x="16" y="8" clip-path="url(#clipPath1)" fill="none" width="160" height="271" />
      <rect x="16" y="8" clip-path="url(#clipPath1)" fill="gray" width="160" height="5" stroke="none" />
      <rect x="16" y="8" clip-path="url(#clipPath1)" fill="none" width="160" height="5" stroke="gray" />
      <rect x="16" y="61" clip-path="url(#clipPath1)" fill="gray" width="160" height="5" stroke="none" />
      <rect x="16" y="61" clip-path="url(#clipPath1)" fill="none" width="160" height="5" stroke="gray" />
      <rect x="16" y="114" clip-path="url(#clipPath1)" fill="gray" width="160" height="5" stroke="none" />
      <rect x="16" y="114" clip-path="url(#clipPath1)" fill="none" width="160" height="5" stroke="gray" />
      <rect x="16" y="167" clip-path="url(#clipPath1)" fill="gray" width="160" height="5" stroke="none" />
      <rect x="16" y="167" clip-path="url(#clipPath1)" fill="none" width="160" height="5" stroke="gray" />
      <rect x="16" y="220" clip-path="url(#clipPath1)" fill="gray" width="160" height="5" stroke="none" />
      <rect x="16" y="220" clip-path="url(#clipPath1)" fill="none" width="160" height="5" stroke="gray" />
      <rect x="16" y="274" clip-path="url(#clipPath1)" fill="gray" width="160" height="5" stroke="none" />
      <rect x="16" y="274" clip-path="url(#clipPath1)" fill="none" width="160" height="5" stroke="gray" />
      <line stroke-linecap="square" clip-path="url(#clipPath1)" fill="none" x1="176" x2="176" y1="8" y2="279" stroke="white" />
      <line stroke-linecap="square" clip-path="url(#clipPath1)" fill="none" x1="144" x2="144" y1="8" y2="279" stroke="white" />
      <line stroke-linecap="square" clip-path="url(#clipPath1)" fill="none" x1="112" x2="112" y1="8" y2="279" stroke="white" />
      <rect stroke-linecap="square" x="80" y="8" clip-path="url(#clipPath1)" fill="white" width="2" height="271" stroke="none" />
      <rect stroke-linecap="square" x="80" y="8" clip-path="url(#clipPath1)" fill="none" width="2" height="271" stroke="rgb(48,48,48)" />
      <rect stroke-linecap="square" x="48" y="8" clip-path="url(#clipPath1)" fill="white" width="3" height="271" stroke="none" />
      <rect stroke-linecap="square" x="48" y="8" clip-path="url(#clipPath1)" fill="none" width="3" height="271" stroke="rgb(48,48,48)" />
      <rect stroke-linecap="square" x="16" y="8" clip-path="url(#clipPath1)" fill="white" width="4" height="271" stroke="none" />
      <rect stroke-linecap="square" x="16" y="8" clip-path="url(#clipPath1)" fill="none" width="4" height="271" stroke="rgb(48,48,48)" />
    </g>
    <g fill="red" text-rendering="geometricPrecision" font-size="16" font-family="&apos;Helvetica&apos;" stroke="red">
      <rect x="5" y="78" clip-path="url(#clipPath2)" width="24" height="24" stroke="none" />
    </g>
    <g stroke-linecap="butt" font-size="16" fill="white" text-rendering="geometricPrecision" font-family="&apos;Helvetica&apos;" stroke="white" stroke-width="2">
      <rect x="5" y="78" clip-path="url(#clipPath2)" fill="none" width="24" height="24" />
      <rect x="5" y="78" clip-path="url(#clipPath2)" fill="none" width="24" height="24" stroke="red" />
      <text x="11" y="96" clip-path="url(#clipPath2)" fill="rgb(13,14,13)" stroke="none" xml:space="preserve">R</text>
      <circle clip-path="url(#clipPath3)" fill="rgb(254,255,254)" r="13" cx="49" cy="37" stroke="none" />
      <circle clip-path="url(#clipPath3)" fill="none" r="13" cx="49" cy="37" stroke="rgb(254,255,254)" />
    </g>
    <g stroke-linecap="butt" font-size="18" fill="rgb(13,14,13)" text-rendering="geometricPrecision" font-family="&apos;OpusText&apos;" stroke="rgb(13,14,13)" font-weight="bold" stroke-width="2">
      <text xml:space="preserve" x="41" y="46" clip-path="url(#clipPath3)" stroke="none">^</text>
      <text x="49" font-size="15" y="41" clip-path="url(#clipPath3)" font-family="&apos;Helvetica&apos;" stroke="none" font-weight="normal" xml:space="preserve">3</text>
    </g>
    <g stroke-linecap="butt" font-size="15" fill="rgb(254,255,254)" text-rendering="geometricPrecision" font-family="&apos;Helvetica&apos;" stroke="rgb(254,255,254)" stroke-width="2">
      <circle r="13" clip-path="url(#clipPath4)" cx="112" cy="37" stroke="none" />
      <circle fill="none" r="13" clip-path="url(#clipPath4)" cx="112" cy="37" />
      <text x="107" y="41" clip-path="url(#clipPath4)" fill="rgb(13,14,13)" stroke="none" xml:space="preserve">9</text>
      <circle r="13" clip-path="url(#clipPath5)" cx="144" cy="90" stroke="none" />
      <circle fill="none" r="13" clip-path="url(#clipPath5)" cx="144" cy="90" />
      <text x="135" y="94" clip-path="url(#clipPath5)" fill="rgb(13,14,13)" stroke="none" xml:space="preserve">p5</text>
      <circle r="13" clip-path="url(#clipPath6)" cx="80" cy="143" stroke="none" />
      <circle fill="none" r="13" clip-path="url(#clipPath6)" cx="80" cy="143" />
    </g>
    <g stroke-linecap="butt" font-size="18" fill="rgb(13,14,13)" text-rendering="geometricPrecision" font-family="&apos;OpusText&apos;" stroke="rgb(13,14,13)" font-weight="bold" stroke-width="2">
      <text xml:space="preserve" x="72" y="152" clip-path="url(#clipPath6)" stroke="none">^</text>
      <text x="80" font-size="15" y="147" clip-path="url(#clipPath6)" font-family="&apos;Helvetica&apos;" stroke="none" font-weight="normal" xml:space="preserve">7</text>
    </g>
    <g stroke-linecap="butt" font-size="11" fill="rgb(72,220,147)" text-rendering="geometricPrecision" stroke="rgb(72,220,147)" stroke-width="2">
      <path d="M110 23.5 C110 10.5214 96.7924 0 80.5 0 C64.2076 0 51 10.5214 51 23.5 L51 23.5 C51 16.0442 64.2076 10 80.5 10 C96.7924 10 110 16.0442 110 23.5" clip-path="url(#clipPath7)" fill-rule="evenodd" stroke="none" />
    </g>
  </g>
</svg>
