<?xml version="1.0" encoding="ISO-8859-1"?>

<!DOCTYPE svg PUBLIC '-//W3C//DTD SVG 1.0//EN' 'http://www.w3.org/TR/2001/REC-SVG-20010904/DTD/svg10.dtd'>
<svg stroke-dasharray="none" shape-rendering="auto" xmlns="http://www.w3.org/2000/svg" font-family="&apos;Dialog&apos;" width="192" text-rendering="auto" fill-opacity="1" contentScriptType="text/ecmascript" color-interpolation="auto" color-rendering="auto" preserveAspectRatio="xMidYMid meet" font-size="12" fill="black" xmlns:xlink="http://www.w3.org/1999/xlink" stroke="black" image-rendering="auto" stroke-miterlimit="10" zoomAndPan="magnify" version="1.0" stroke-linecap="square" stroke-linejoin="miter" contentStyleType="text/css" font-style="normal" height="272" stroke-width="1" stroke-dashoffset="0" font-weight="normal" stroke-opacity="1">
  <!--Generated by the Batik Graphics2D SVG Generator-->
  <defs id="genericDefs" />
  <g>
    <defs id="defs1">
      <clipPath clipPathUnits="userSpaceOnUse" id="clipPath1">
        <path d="M64 43 L96 43 L96 75 L64 75 L64 43 Z" />
      </clipPath>
      <clipPath clipPathUnits="userSpaceOnUse" id="clipPath2">
        <path d="M1 81 L33 81 L33 113 L1 113 L1 81 Z" />
      </clipPath>
      <clipPath clipPathUnits="userSpaceOnUse" id="clipPath3">
        <path d="M96 119 L128 119 L128 151 L96 151 L96 119 Z" />
      </clipPath>
      <clipPath clipPathUnits="userSpaceOnUse" id="clipPath4">
        <path d="M33 196 L65 196 L65 228 L33 228 L33 196 Z" />
      </clipPath>
    </defs>
    <g font-size="19" fill="rgb(14,14,14)" text-rendering="optimizeLegibility" font-family="&apos;Verdana&apos;" stroke-linejoin="round" stroke="rgb(14,14,14)" stroke-width="0" stroke-miterlimit="0">
      <rect width="160" x="16" height="271" y="0" stroke="none" />
    </g>
    <g stroke-linecap="butt" font-size="19" fill="rgb(14,14,14)" text-rendering="optimizeLegibility" font-family="&apos;Verdana&apos;" stroke="rgb(14,14,14)">
      <rect fill="none" width="160" x="16" height="271" y="0" />
      <rect x="16" y="0" fill="gray" width="160" height="3" stroke="none" />
      <rect x="16" y="0" fill="none" width="160" height="3" stroke="gray" />
      <rect x="16" y="38" fill="gray" width="160" height="3" stroke="none" />
      <rect x="16" y="38" fill="none" width="160" height="3" stroke="gray" />
      <rect x="16" y="76" fill="gray" width="160" height="3" stroke="none" />
      <rect x="16" y="76" fill="none" width="160" height="3" stroke="gray" />
      <rect x="16" y="114" fill="gray" width="160" height="3" stroke="none" />
      <rect x="16" y="114" fill="none" width="160" height="3" stroke="gray" />
      <rect x="16" y="153" fill="gray" width="160" height="3" stroke="none" />
      <rect x="16" y="153" fill="none" width="160" height="3" stroke="gray" />
      <rect x="16" y="191" fill="gray" width="160" height="3" stroke="none" />
      <rect x="16" y="191" fill="none" width="160" height="3" stroke="gray" />
      <rect x="16" y="229" fill="gray" width="160" height="3" stroke="none" />
      <rect x="16" y="229" fill="none" width="160" height="3" stroke="gray" />
      <rect x="16" y="268" fill="gray" width="160" height="3" stroke="none" />
      <rect x="16" y="268" fill="none" width="160" height="3" stroke="gray" />
      <line stroke-linecap="square" fill="none" x1="176" x2="176" y1="0" y2="271" stroke="white" />
      <line stroke-linecap="square" fill="none" x1="144" x2="144" y1="0" y2="271" stroke="white" />
      <line stroke-linecap="square" fill="none" x1="112" x2="112" y1="0" y2="271" stroke="white" />
      <rect stroke-linecap="square" x="80" y="0" fill="white" width="2" height="271" stroke="none" />
      <rect stroke-linecap="square" x="80" y="0" fill="none" width="2" height="271" stroke="rgb(48,48,48)" />
      <rect stroke-linecap="square" x="48" y="0" fill="white" width="3" height="271" stroke="none" />
      <rect stroke-linecap="square" x="48" y="0" fill="none" width="3" height="271" stroke="rgb(48,48,48)" />
      <rect stroke-linecap="square" x="16" y="0" fill="white" width="4" height="271" stroke="none" />
      <rect stroke-linecap="square" x="16" y="0" fill="none" width="4" height="271" stroke="rgb(48,48,48)" />
    </g>
    <g font-size="17" fill="rgb(255,3,1)" text-rendering="geometricPrecision" font-family="&apos;Arial&apos;" stroke="rgb(255,3,1)" font-weight="bold">
      <circle r="13" clip-path="url(#clipPath1)" cx="80" cy="59" stroke="none" />
      <circle stroke-linecap="butt" clip-path="url(#clipPath1)" fill="none" r="13" cx="80" cy="59" stroke-width="2" />
    </g>
    <g stroke-linecap="butt" font-size="17" text-rendering="geometricPrecision" font-family="&apos;Arial&apos;" font-weight="bold" stroke-width="2">
      <text xml:space="preserve" x="74" y="67" clip-path="url(#clipPath1)" stroke="none">R</text>
      <circle clip-path="url(#clipPath2)" fill="white" r="13" cx="17" cy="97" stroke="none" />
      <circle clip-path="url(#clipPath2)" fill="none" r="13" cx="17" cy="97" stroke="white" />
      <text x="9" font-size="20" y="105" clip-path="url(#clipPath2)" font-family="&apos;OpusText&apos;" stroke="none" xml:space="preserve">b</text>
      <text x="16" font-size="16" y="104" clip-path="url(#clipPath2)" stroke="none" xml:space="preserve">3</text>
      <circle clip-path="url(#clipPath3)" fill="white" r="13" cx="112" cy="135" stroke="none" />
      <circle clip-path="url(#clipPath3)" fill="none" r="13" cx="112" cy="135" stroke="white" />
      <text x="102" font-size="16" y="141" clip-path="url(#clipPath3)" stroke="none" xml:space="preserve">p5</text>
      <circle clip-path="url(#clipPath4)" fill="white" r="13" cx="49" cy="212" stroke="none" />
      <circle clip-path="url(#clipPath4)" fill="none" r="13" cx="49" cy="212" stroke="white" />
      <text x="39" font-size="20" y="225" clip-path="url(#clipPath4)" font-family="&apos;OpusText&apos;" stroke="none" xml:space="preserve">^</text>
      <text x="49" font-size="16" y="219" clip-path="url(#clipPath4)" stroke="none" xml:space="preserve">7</text>
    </g>
  </g>
</svg>
