<?xml version="1.0" encoding="ISO-8859-1"?>

<!DOCTYPE svg PUBLIC '-//W3C//DTD SVG 1.0//EN' 'http://www.w3.org/TR/2001/REC-SVG-20010904/DTD/svg10.dtd'>
<svg stroke-dasharray="none" shape-rendering="auto" xmlns="http://www.w3.org/2000/svg" font-family="&apos;Dialog&apos;" width="192" text-rendering="auto" fill-opacity="1" contentScriptType="text/ecmascript" color-interpolation="auto" color-rendering="auto" preserveAspectRatio="xMidYMid meet" font-size="12" fill="black" xmlns:xlink="http://www.w3.org/1999/xlink" stroke="black" image-rendering="auto" stroke-miterlimit="10" zoomAndPan="magnify" version="1.0" stroke-linecap="square" stroke-linejoin="miter" contentStyleType="text/css" font-style="normal" height="285" stroke-width="1" stroke-dashoffset="0" font-weight="normal" stroke-opacity="1">
  <!--Generated by the Batik Graphics2D SVG Generator-->
  <defs id="genericDefs" />
  <g>
    <defs id="defs1">
      <clipPath clipPathUnits="userSpaceOnUse" id="clipPath1">
        <path d="M-1 12 L193 12 L193 286 L-1 286 L-1 12 Z" />
      </clipPath>
      <clipPath clipPathUnits="userSpaceOnUse" id="clipPath2">
        <path d="M33 26 L65 26 L65 58 L33 58 L33 26 Z" />
      </clipPath>
      <clipPath clipPathUnits="userSpaceOnUse" id="clipPath3">
        <path d="M96 26 L128 26 L128 58 L96 58 L96 26 Z" />
      </clipPath>
      <clipPath clipPathUnits="userSpaceOnUse" id="clipPath4">
        <path d="M160 26 L192 26 L192 58 L160 58 L160 26 Z" />
      </clipPath>
      <clipPath clipPathUnits="userSpaceOnUse" id="clipPath5">
        <path d="M128 132 L160 132 L160 164 L128 164 L128 132 Z" />
      </clipPath>
      <clipPath clipPathUnits="userSpaceOnUse" id="clipPath6">
        <path d="M64 132 L96 132 L96 164 L64 164 L64 132 Z" />
      </clipPath>
      <clipPath clipPathUnits="userSpaceOnUse" id="clipPath7">
        <path d="M-1 -1 L193 -1 L193 286 L-1 286 L-1 -1 Z" />
      </clipPath>
    </defs>
    <g font-size="19" fill="rgb(14,14,14)" text-rendering="optimizeLegibility" font-family="&apos;Verdana&apos;" stroke-linejoin="round" stroke="rgb(14,14,14)" stroke-width="0" stroke-miterlimit="0">
      <rect x="16" y="13" clip-path="url(#clipPath1)" width="160" height="271" stroke="none" />
    </g>
    <g stroke-linecap="butt" font-size="19" fill="rgb(14,14,14)" text-rendering="optimizeLegibility" font-family="&apos;Verdana&apos;" stroke="rgb(14,14,14)">
      <rect x="16" y="13" clip-path="url(#clipPath1)" fill="none" width="160" height="271" />
      <rect x="16" y="13" clip-path="url(#clipPath1)" fill="gray" width="160" height="5" stroke="none" />
      <rect x="16" y="13" clip-path="url(#clipPath1)" fill="none" width="160" height="5" stroke="gray" />
      <rect x="16" y="66" clip-path="url(#clipPath1)" fill="gray" width="160" height="5" stroke="none" />
      <rect x="16" y="66" clip-path="url(#clipPath1)" fill="none" width="160" height="5" stroke="gray" />
      <rect x="16" y="119" clip-path="url(#clipPath1)" fill="gray" width="160" height="5" stroke="none" />
      <rect x="16" y="119" clip-path="url(#clipPath1)" fill="none" width="160" height="5" stroke="gray" />
      <rect x="16" y="172" clip-path="url(#clipPath1)" fill="gray" width="160" height="5" stroke="none" />
      <rect x="16" y="172" clip-path="url(#clipPath1)" fill="none" width="160" height="5" stroke="gray" />
      <rect x="16" y="225" clip-path="url(#clipPath1)" fill="gray" width="160" height="5" stroke="none" />
      <rect x="16" y="225" clip-path="url(#clipPath1)" fill="none" width="160" height="5" stroke="gray" />
      <rect x="16" y="279" clip-path="url(#clipPath1)" fill="gray" width="160" height="5" stroke="none" />
      <rect x="16" y="279" clip-path="url(#clipPath1)" fill="none" width="160" height="5" stroke="gray" />
      <line stroke-linecap="square" clip-path="url(#clipPath1)" fill="none" x1="176" x2="176" y1="13" y2="284" stroke="white" />
      <line stroke-linecap="square" clip-path="url(#clipPath1)" fill="none" x1="144" x2="144" y1="13" y2="284" stroke="white" />
      <line stroke-linecap="square" clip-path="url(#clipPath1)" fill="none" x1="112" x2="112" y1="13" y2="284" stroke="white" />
      <rect stroke-linecap="square" x="80" y="13" clip-path="url(#clipPath1)" fill="white" width="2" height="271" stroke="none" />
      <rect stroke-linecap="square" x="80" y="13" clip-path="url(#clipPath1)" fill="none" width="2" height="271" stroke="rgb(48,48,48)" />
      <rect stroke-linecap="square" x="48" y="13" clip-path="url(#clipPath1)" fill="white" width="3" height="271" stroke="none" />
      <rect stroke-linecap="square" x="48" y="13" clip-path="url(#clipPath1)" fill="none" width="3" height="271" stroke="rgb(48,48,48)" />
      <rect stroke-linecap="square" x="16" y="13" clip-path="url(#clipPath1)" fill="white" width="4" height="271" stroke="none" />
      <rect stroke-linecap="square" x="16" y="13" clip-path="url(#clipPath1)" fill="none" width="4" height="271" stroke="rgb(48,48,48)" />
    </g>
    <g font-size="17" fill="red" text-rendering="geometricPrecision" font-family="&apos;Arial&apos;" stroke="red" font-weight="bold">
      <rect x="37" y="30" clip-path="url(#clipPath2)" width="24" height="24" stroke="none" />
    </g>
    <g stroke-linecap="butt" font-size="17" fill="white" text-rendering="geometricPrecision" font-family="&apos;Arial&apos;" stroke="white" font-weight="bold" stroke-width="2">
      <rect x="37" y="30" clip-path="url(#clipPath2)" fill="none" width="24" height="24" />
      <rect x="37" y="30" clip-path="url(#clipPath2)" fill="none" width="24" height="24" stroke="red" />
      <text x="43" y="50" clip-path="url(#clipPath2)" fill="black" stroke="none" xml:space="preserve">R</text>
      <circle r="13" clip-path="url(#clipPath3)" cx="112" cy="42" stroke="none" />
      <circle fill="none" r="13" clip-path="url(#clipPath3)" cx="112" cy="42" />
    </g>
    <g stroke-linecap="butt" font-size="20" text-rendering="geometricPrecision" font-family="&apos;OpusText&apos;" font-weight="bold" stroke-width="2">
      <text xml:space="preserve" x="104" y="50" clip-path="url(#clipPath3)" stroke="none">b</text>
      <text x="111" font-size="16" y="49" clip-path="url(#clipPath3)" font-family="&apos;Arial&apos;" stroke="none" xml:space="preserve">7</text>
    </g>
    <g stroke-linecap="butt" font-size="16" fill="white" text-rendering="geometricPrecision" font-family="&apos;Arial&apos;" stroke="white" font-weight="bold" stroke-width="2">
      <circle r="13" clip-path="url(#clipPath4)" cx="176" cy="42" stroke="none" />
      <circle fill="none" r="13" clip-path="url(#clipPath4)" cx="176" cy="42" />
      <text x="166" y="48" clip-path="url(#clipPath4)" fill="black" stroke="none" xml:space="preserve">p5</text>
      <circle r="13" clip-path="url(#clipPath5)" cx="144" cy="148" stroke="none" />
      <circle fill="none" r="13" clip-path="url(#clipPath5)" cx="144" cy="148" />
    </g>
    <g stroke-linecap="butt" font-size="20" text-rendering="geometricPrecision" font-family="&apos;OpusText&apos;" font-weight="bold" stroke-width="2">
      <text xml:space="preserve" x="134" y="161" clip-path="url(#clipPath5)" stroke="none">^</text>
      <text x="144" font-size="16" y="155" clip-path="url(#clipPath5)" font-family="&apos;Arial&apos;" stroke="none" xml:space="preserve">3</text>
    </g>
    <g stroke-linecap="butt" font-size="16" fill="white" text-rendering="geometricPrecision" font-family="&apos;Arial&apos;" stroke="white" font-weight="bold" stroke-width="2">
      <circle r="13" clip-path="url(#clipPath6)" cx="80" cy="148" stroke="none" />
      <circle fill="none" r="13" clip-path="url(#clipPath6)" cx="80" cy="148" />
      <text x="70" y="154" clip-path="url(#clipPath6)" fill="black" stroke="none" xml:space="preserve">p5</text>
    </g>
    <g stroke-linecap="butt" fill="rgb(28,222,147)" text-rendering="geometricPrecision" font-family="&apos;Segoe UI&apos;" stroke="rgb(28,222,147)" stroke-width="2">
      <path d="M174 26.9999 C174 12.0883 146.4655 -0.0001 112.4999 -0.0001 C78.5344 0 51 12.0883 51 26.9999 C51 26.9999 51 27 51 27 C51 18.1635 78.5344 11 112.4999 11 C146.4654 10.9999 173.9999 18.1634 174 26.9999 C174 26.9999 174 27 174 27" clip-path="url(#clipPath7)" fill-rule="evenodd" stroke="none" />
      <path d="M174 26.9999 C174 12.0883 146.4655 -0.0001 112.4999 -0.0001 C78.5344 0 51 12.0883 51 26.9999 C51 26.9999 51 27 51 27 C51 18.1635 78.5344 11 112.4999 11 C146.4654 10.9999 173.9999 18.1634 174 26.9999 C174 26.9999 174 27 174 27" clip-path="url(#clipPath7)" fill-rule="evenodd" stroke="none" />
    </g>
  </g>
</svg>
