<?xml version="1.0" encoding="ISO-8859-1"?>

<!DOCTYPE svg PUBLIC '-//W3C//DTD SVG 1.0//EN' 'http://www.w3.org/TR/2001/REC-SVG-20010904/DTD/svg10.dtd'>
<svg stroke-dasharray="none" shape-rendering="auto" xmlns="http://www.w3.org/2000/svg" font-family="&apos;Dialog&apos;" width="192" text-rendering="auto" fill-opacity="1" contentScriptType="text/ecmascript" color-interpolation="auto" color-rendering="auto" preserveAspectRatio="xMidYMid meet" font-size="12" fill="black" xmlns:xlink="http://www.w3.org/1999/xlink" stroke="black" image-rendering="auto" stroke-miterlimit="10" zoomAndPan="magnify" version="1.0" stroke-linecap="square" stroke-linejoin="miter" contentStyleType="text/css" font-style="normal" height="272" stroke-width="1" stroke-dashoffset="0" font-weight="normal" stroke-opacity="1">
  <!--Generated by the Batik Graphics2D SVG Generator-->
  <defs id="genericDefs" />
  <g>
    <defs id="defs1">
      <clipPath clipPathUnits="userSpaceOnUse" id="clipPath1">
        <path d="M160 66 L192 66 L192 98 L160 98 L160 66 Z" />
      </clipPath>
      <clipPath clipPathUnits="userSpaceOnUse" id="clipPath2">
        <path d="M128 66 L160 66 L160 98 L128 98 L128 66 Z" />
      </clipPath>
      <clipPath clipPathUnits="userSpaceOnUse" id="clipPath3">
        <path d="M96 66 L128 66 L128 98 L96 98 L96 66 Z" />
      </clipPath>
      <clipPath clipPathUnits="userSpaceOnUse" id="clipPath4">
        <path d="M64 13 L96 13 L96 45 L64 45 L64 13 Z" />
      </clipPath>
      <clipPath clipPathUnits="userSpaceOnUse" id="clipPath5">
        <path d="M1 13 L33 13 L33 45 L1 45 L1 13 Z" />
      </clipPath>
      <clipPath clipPathUnits="userSpaceOnUse" id="clipPath6">
        <path d="M-1 -1 L193 -1 L193 273 L-1 273 L-1 -1 Z" />
      </clipPath>
    </defs>
    <g font-size="14" fill="rgb(14,14,14)" text-rendering="optimizeLegibility" font-family="&apos;Verdana&apos;" stroke-linejoin="round" stroke="rgb(14,14,14)" stroke-width="0" stroke-miterlimit="0">
      <rect width="160" x="16" height="271" y="0" stroke="none" />
    </g>
    <g stroke-linecap="butt" font-size="14" fill="rgb(14,14,14)" text-rendering="optimizeLegibility" font-family="&apos;Verdana&apos;" stroke="rgb(14,14,14)">
      <rect fill="none" width="160" x="16" height="271" y="0" />
      <rect x="16" y="0" fill="gray" width="160" height="5" stroke="none" />
      <rect x="16" y="0" fill="none" width="160" height="5" stroke="gray" />
      <rect x="16" y="53" fill="gray" width="160" height="5" stroke="none" />
      <rect x="16" y="53" fill="none" width="160" height="5" stroke="gray" />
      <rect x="16" y="106" fill="gray" width="160" height="5" stroke="none" />
      <rect x="16" y="106" fill="none" width="160" height="5" stroke="gray" />
      <rect x="16" y="159" fill="gray" width="160" height="5" stroke="none" />
      <rect x="16" y="159" fill="none" width="160" height="5" stroke="gray" />
      <rect x="16" y="212" fill="gray" width="160" height="5" stroke="none" />
      <rect x="16" y="212" fill="none" width="160" height="5" stroke="gray" />
      <rect x="16" y="266" fill="gray" width="160" height="5" stroke="none" />
      <rect x="16" y="266" fill="none" width="160" height="5" stroke="gray" />
      <line stroke-linecap="square" fill="none" x1="176" x2="176" y1="0" y2="271" stroke="white" />
      <line stroke-linecap="square" fill="none" x1="144" x2="144" y1="0" y2="271" stroke="white" />
      <line stroke-linecap="square" fill="none" x1="112" x2="112" y1="0" y2="271" stroke="white" />
      <rect stroke-linecap="square" x="80" y="0" fill="white" width="2" height="271" stroke="none" />
      <rect stroke-linecap="square" x="80" y="0" fill="none" width="2" height="271" stroke="rgb(48,48,48)" />
      <rect stroke-linecap="square" x="48" y="0" fill="white" width="3" height="271" stroke="none" />
      <rect stroke-linecap="square" x="48" y="0" fill="none" width="3" height="271" stroke="rgb(48,48,48)" />
      <rect stroke-linecap="square" x="16" y="0" fill="white" width="4" height="271" stroke="none" />
      <rect stroke-linecap="square" x="16" y="0" fill="none" width="4" height="271" stroke="rgb(48,48,48)" />
    </g>
    <g fill="rgb(254,255,254)" text-rendering="geometricPrecision" font-size="15" font-family="&apos;Helvetica&apos;" stroke="rgb(254,255,254)">
      <circle r="13" clip-path="url(#clipPath1)" cx="176" cy="82" stroke="none" />
      <circle stroke-linecap="butt" clip-path="url(#clipPath1)" fill="none" r="13" cx="176" cy="82" stroke-width="2" />
    </g>
    <g stroke-linecap="butt" font-size="18" fill="rgb(13,14,13)" text-rendering="geometricPrecision" font-family="&apos;OpusText&apos;" stroke="rgb(13,14,13)" font-weight="bold" stroke-width="2">
      <text xml:space="preserve" x="169" y="87" clip-path="url(#clipPath1)" stroke="none">b</text>
      <text x="175" font-size="15" y="86" clip-path="url(#clipPath1)" font-family="&apos;Helvetica&apos;" stroke="none" font-weight="normal" xml:space="preserve">9</text>
    </g>
    <g stroke-linecap="butt" font-size="15" fill="rgb(254,255,254)" text-rendering="geometricPrecision" font-family="&apos;Helvetica&apos;" stroke="rgb(254,255,254)" stroke-width="2">
      <circle r="13" clip-path="url(#clipPath2)" cx="144" cy="82" stroke="none" />
      <circle fill="none" r="13" clip-path="url(#clipPath2)" cx="144" cy="82" />
    </g>
    <g stroke-linecap="butt" font-size="18" fill="rgb(13,14,13)" text-rendering="geometricPrecision" font-family="&apos;OpusText&apos;" stroke="rgb(13,14,13)" font-weight="bold" stroke-width="2">
      <text xml:space="preserve" x="133" y="87" clip-path="url(#clipPath2)" stroke="none">b</text>
      <text x="139" font-size="15" y="86" clip-path="url(#clipPath2)" font-family="&apos;Helvetica&apos;" stroke="none" font-weight="normal" xml:space="preserve">13</text>
    </g>
    <g stroke-linecap="butt" font-size="15" fill="rgb(254,255,254)" text-rendering="geometricPrecision" font-family="&apos;Helvetica&apos;" stroke="rgb(254,255,254)" stroke-width="2">
      <circle r="13" clip-path="url(#clipPath3)" cx="112" cy="82" stroke="none" />
      <circle fill="none" r="13" clip-path="url(#clipPath3)" cx="112" cy="82" />
    </g>
    <g stroke-linecap="butt" font-size="18" fill="rgb(13,14,13)" text-rendering="geometricPrecision" font-family="&apos;OpusText&apos;" stroke="rgb(13,14,13)" font-weight="bold" stroke-width="2">
      <text xml:space="preserve" x="104" y="91" clip-path="url(#clipPath3)" stroke="none">^</text>
      <text x="112" font-size="15" y="86" clip-path="url(#clipPath3)" font-family="&apos;Helvetica&apos;" stroke="none" font-weight="normal" xml:space="preserve">3</text>
    </g>
    <g stroke-linecap="butt" font-size="15" fill="rgb(254,255,254)" text-rendering="geometricPrecision" font-family="&apos;Helvetica&apos;" stroke="rgb(254,255,254)" stroke-width="2">
      <circle r="13" clip-path="url(#clipPath4)" cx="80" cy="29" stroke="none" />
      <circle fill="none" r="13" clip-path="url(#clipPath4)" cx="80" cy="29" />
    </g>
    <g stroke-linecap="butt" font-size="18" fill="rgb(13,14,13)" text-rendering="geometricPrecision" font-family="&apos;OpusText&apos;" stroke="rgb(13,14,13)" font-weight="bold" stroke-width="2">
      <text xml:space="preserve" x="73" y="34" clip-path="url(#clipPath4)" stroke="none">b</text>
      <text x="79" font-size="15" y="33" clip-path="url(#clipPath4)" font-family="&apos;Helvetica&apos;" stroke="none" font-weight="normal" xml:space="preserve">7</text>
    </g>
    <g stroke-linecap="butt" font-size="16" fill="red" text-rendering="geometricPrecision" font-family="&apos;Helvetica&apos;" stroke="red" stroke-width="2">
      <rect x="5" y="17" clip-path="url(#clipPath5)" width="24" height="24" stroke="none" />
      <rect x="5" y="17" clip-path="url(#clipPath5)" fill="none" width="24" height="24" stroke="white" />
      <rect x="5" y="17" clip-path="url(#clipPath5)" fill="none" width="24" height="24" />
      <text x="11" y="35" clip-path="url(#clipPath5)" fill="rgb(13,14,13)" stroke="none" xml:space="preserve">R</text>
    </g>
    <g stroke-linecap="butt" font-size="11" fill="rgb(73,221,147)" text-rendering="geometricPrecision" stroke="rgb(73,221,147)" stroke-width="2">
      <path d="M174 68.5 C174 55.5214 160.5685 45 144 45 C127.4315 45 114 55.5214 114 68.5 L114 68.5 C114 61.0442 127.4315 55 144 55 C160.5685 55 174 61.0442 174 68.5" clip-path="url(#clipPath6)" fill-rule="evenodd" stroke="none" />
      <path d="M174 68.5 C174 55.5214 160.5685 45 144 45 C127.4315 45 114 55.5214 114 68.5 L114 68.5 C114 61.0442 127.4315 55 144 55 C160.5685 55 174 61.0442 174 68.5" clip-path="url(#clipPath6)" fill-rule="evenodd" stroke="none" />
    </g>
  </g>
</svg>
