<?xml version="1.0" encoding="ISO-8859-1"?>

<!DOCTYPE svg PUBLIC '-//W3C//DTD SVG 1.0//EN' 'http://www.w3.org/TR/2001/REC-SVG-20010904/DTD/svg10.dtd'>
<svg stroke-dasharray="none" shape-rendering="auto" xmlns="http://www.w3.org/2000/svg" font-family="&apos;Dialog&apos;" width="192" text-rendering="auto" fill-opacity="1" contentScriptType="text/ecmascript" color-interpolation="auto" color-rendering="auto" preserveAspectRatio="xMidYMid meet" font-size="12" fill="black" xmlns:xlink="http://www.w3.org/1999/xlink" stroke="black" image-rendering="auto" stroke-miterlimit="10" zoomAndPan="magnify" version="1.0" stroke-linecap="square" stroke-linejoin="miter" contentStyleType="text/css" font-style="normal" height="272" stroke-width="1" stroke-dashoffset="0" font-weight="normal" stroke-opacity="1">
  <!--Generated by the Batik Graphics2D SVG Generator-->
  <defs id="genericDefs" />
  <g>
    <defs id="defs1">
      <clipPath clipPathUnits="userSpaceOnUse" id="clipPath1">
        <path d="M33 120 L65 120 L65 152 L33 152 L33 120 Z" />
      </clipPath>
      <clipPath clipPathUnits="userSpaceOnUse" id="clipPath2">
        <path d="M96 158 L128 158 L128 190 L96 190 L96 158 Z" />
      </clipPath>
      <clipPath clipPathUnits="userSpaceOnUse" id="clipPath3">
        <path d="M128 196 L160 196 L160 228 L128 228 L128 196 Z" />
      </clipPath>
      <clipPath clipPathUnits="userSpaceOnUse" id="clipPath4">
        <path d="M2 81 L34 81 L34 113 L2 113 L2 81 Z" />
      </clipPath>
    </defs>
    <g font-size="19" fill="rgb(14,14,14)" text-rendering="optimizeLegibility" font-family="&apos;Verdana&apos;" stroke-linejoin="round" stroke="rgb(14,14,14)" stroke-width="0" stroke-miterlimit="0">
      <rect width="160" x="16" height="271" y="0" stroke="none" />
    </g>
    <g stroke-linecap="butt" font-size="19" fill="rgb(14,14,14)" text-rendering="optimizeLegibility" font-family="&apos;Verdana&apos;" stroke="rgb(14,14,14)">
      <rect fill="none" width="160" x="16" height="271" y="0" />
      <rect x="16" y="0" fill="gray" width="160" height="3" stroke="none" />
      <rect x="16" y="0" fill="none" width="160" height="3" stroke="gray" />
      <rect x="16" y="38" fill="gray" width="160" height="3" stroke="none" />
      <rect x="16" y="38" fill="none" width="160" height="3" stroke="gray" />
      <rect x="16" y="76" fill="gray" width="160" height="3" stroke="none" />
      <rect x="16" y="76" fill="none" width="160" height="3" stroke="gray" />
      <rect x="16" y="114" fill="gray" width="160" height="3" stroke="none" />
      <rect x="16" y="114" fill="none" width="160" height="3" stroke="gray" />
      <rect x="16" y="153" fill="gray" width="160" height="3" stroke="none" />
      <rect x="16" y="153" fill="none" width="160" height="3" stroke="gray" />
      <rect x="16" y="191" fill="gray" width="160" height="3" stroke="none" />
      <rect x="16" y="191" fill="none" width="160" height="3" stroke="gray" />
      <rect x="16" y="229" fill="gray" width="160" height="3" stroke="none" />
      <rect x="16" y="229" fill="none" width="160" height="3" stroke="gray" />
      <rect x="16" y="268" fill="gray" width="160" height="3" stroke="none" />
      <rect x="16" y="268" fill="none" width="160" height="3" stroke="gray" />
      <line stroke-linecap="square" fill="none" x1="176" x2="176" y1="0" y2="271" stroke="white" />
      <line stroke-linecap="square" fill="none" x1="144" x2="144" y1="0" y2="271" stroke="white" />
      <line stroke-linecap="square" fill="none" x1="112" x2="112" y1="0" y2="271" stroke="white" />
      <rect stroke-linecap="square" x="80" y="0" fill="white" width="2" height="271" stroke="none" />
      <rect stroke-linecap="square" x="80" y="0" fill="none" width="2" height="271" stroke="rgb(48,48,48)" />
      <rect stroke-linecap="square" x="48" y="0" fill="white" width="3" height="271" stroke="none" />
      <rect stroke-linecap="square" x="48" y="0" fill="none" width="3" height="271" stroke="rgb(48,48,48)" />
      <rect stroke-linecap="square" x="16" y="0" fill="white" width="4" height="271" stroke="none" />
      <rect stroke-linecap="square" x="16" y="0" fill="none" width="4" height="271" stroke="rgb(48,48,48)" />
    </g>
    <g font-size="17" fill="red" text-rendering="geometricPrecision" font-family="&apos;Arial&apos;" stroke="red" font-weight="bold">
      <circle r="13" clip-path="url(#clipPath1)" cx="49" cy="136" stroke="none" />
      <circle stroke-linecap="butt" clip-path="url(#clipPath1)" fill="none" r="13" cx="49" cy="136" stroke-width="2" />
    </g>
    <g stroke-linecap="butt" font-size="17" text-rendering="geometricPrecision" font-family="&apos;Arial&apos;" font-weight="bold" stroke-width="2">
      <text xml:space="preserve" x="43" y="144" clip-path="url(#clipPath1)" stroke="none">R</text>
      <circle clip-path="url(#clipPath2)" fill="white" r="13" cx="112" cy="174" stroke="none" />
      <circle clip-path="url(#clipPath2)" fill="none" r="13" cx="112" cy="174" stroke="white" />
    </g>
    <g stroke-linecap="butt" font-size="20" fill="rgb(14,14,14)" text-rendering="geometricPrecision" font-family="&apos;OpusText&apos;" stroke="rgb(14,14,14)" font-weight="bold" stroke-width="2">
      <text xml:space="preserve" x="102" y="187" clip-path="url(#clipPath2)" stroke="none">^</text>
      <text x="112" font-size="16" y="181" clip-path="url(#clipPath2)" font-family="&apos;Arial&apos;" stroke="none" xml:space="preserve">7</text>
    </g>
    <g stroke-linecap="butt" font-size="16" fill="white" text-rendering="geometricPrecision" font-family="&apos;Arial&apos;" stroke="white" font-weight="bold" stroke-width="2">
      <circle r="13" clip-path="url(#clipPath3)" cx="144" cy="212" stroke="none" />
      <circle fill="none" r="13" clip-path="url(#clipPath3)" cx="144" cy="212" />
    </g>
    <g stroke-linecap="butt" font-size="20" fill="rgb(14,14,14)" text-rendering="geometricPrecision" font-family="&apos;OpusText&apos;" stroke="rgb(14,14,14)" font-weight="bold" stroke-width="2">
      <text xml:space="preserve" x="134" y="225" clip-path="url(#clipPath3)" stroke="none">^</text>
      <text x="144" font-size="16" y="219" clip-path="url(#clipPath3)" font-family="&apos;Arial&apos;" stroke="none" xml:space="preserve">3</text>
    </g>
    <g stroke-linecap="butt" font-size="16" fill="white" text-rendering="geometricPrecision" font-family="&apos;Arial&apos;" stroke="white" font-weight="bold" stroke-width="2">
      <circle r="13" clip-path="url(#clipPath4)" cx="18" cy="97" stroke="none" />
      <circle fill="none" r="13" clip-path="url(#clipPath4)" cx="18" cy="97" />
    </g>
    <g stroke-linecap="butt" font-size="20" fill="rgb(14,14,14)" text-rendering="geometricPrecision" font-family="&apos;OpusText&apos;" stroke="rgb(14,14,14)" font-weight="bold" stroke-width="2">
      <text xml:space="preserve" x="10" y="105" clip-path="url(#clipPath4)" stroke="none">b</text>
      <text x="17" font-size="16" y="104" clip-path="url(#clipPath4)" font-family="&apos;Arial&apos;" stroke="none" xml:space="preserve">5</text>
    </g>
  </g>
</svg>
