<?xml version="1.0" encoding="ISO-8859-1"?>

<!DOCTYPE svg PUBLIC '-//W3C//DTD SVG 1.0//EN' 'http://www.w3.org/TR/2001/REC-SVG-20010904/DTD/svg10.dtd'>
<svg stroke-dasharray="none" shape-rendering="auto" xmlns="http://www.w3.org/2000/svg" font-family="&apos;Dialog&apos;" width="192" text-rendering="auto" fill-opacity="1" contentScriptType="text/ecmascript" color-interpolation="auto" color-rendering="auto" preserveAspectRatio="xMidYMid meet" font-size="12" fill="black" xmlns:xlink="http://www.w3.org/1999/xlink" stroke="black" image-rendering="auto" stroke-miterlimit="10" zoomAndPan="magnify" version="1.0" stroke-linecap="square" stroke-linejoin="miter" contentStyleType="text/css" font-style="normal" height="288" stroke-width="1" stroke-dashoffset="0" font-weight="normal" stroke-opacity="1">
  <!--Generated by the Batik Graphics2D SVG Generator-->
  <defs id="genericDefs" />
  <g>
    <defs id="defs1">
      <clipPath clipPathUnits="userSpaceOnUse" id="clipPath1">
        <path d="M-1 15 L193 15 L193 289 L-1 289 L-1 15 Z" />
      </clipPath>
      <clipPath clipPathUnits="userSpaceOnUse" id="clipPath2">
        <path d="M1 29 L33 29 L33 61 L1 61 L1 29 Z" />
      </clipPath>
      <clipPath clipPathUnits="userSpaceOnUse" id="clipPath3">
        <path d="M64 29 L96 29 L96 61 L64 61 L64 29 Z" />
      </clipPath>
      <clipPath clipPathUnits="userSpaceOnUse" id="clipPath4">
        <path d="M160 29 L192 29 L192 61 L160 61 L160 29 Z" />
      </clipPath>
      <clipPath clipPathUnits="userSpaceOnUse" id="clipPath5">
        <path d="M128 29 L160 29 L160 61 L128 61 L128 29 Z" />
      </clipPath>
      <clipPath clipPathUnits="userSpaceOnUse" id="clipPath6">
        <path d="M33 135 L65 135 L65 167 L33 167 L33 135 Z" />
      </clipPath>
      <clipPath clipPathUnits="userSpaceOnUse" id="clipPath7">
        <path d="M96 135 L128 135 L128 167 L96 167 L96 135 Z" />
      </clipPath>
      <clipPath clipPathUnits="userSpaceOnUse" id="clipPath8">
        <path d="M-1 -1 L193 -1 L193 289 L-1 289 L-1 -1 Z" />
      </clipPath>
    </defs>
    <g font-size="19" fill="rgb(14,14,14)" text-rendering="optimizeLegibility" font-family="&apos;Verdana&apos;" stroke-linejoin="round" stroke="rgb(14,14,14)" stroke-width="0" stroke-miterlimit="0">
      <rect x="16" y="16" clip-path="url(#clipPath1)" width="160" height="271" stroke="none" />
    </g>
    <g stroke-linecap="butt" font-size="19" fill="rgb(14,14,14)" text-rendering="optimizeLegibility" font-family="&apos;Verdana&apos;" stroke="rgb(14,14,14)">
      <rect x="16" y="16" clip-path="url(#clipPath1)" fill="none" width="160" height="271" />
      <rect x="16" y="16" clip-path="url(#clipPath1)" fill="gray" width="160" height="5" stroke="none" />
      <rect x="16" y="16" clip-path="url(#clipPath1)" fill="none" width="160" height="5" stroke="gray" />
      <rect x="16" y="69" clip-path="url(#clipPath1)" fill="gray" width="160" height="5" stroke="none" />
      <rect x="16" y="69" clip-path="url(#clipPath1)" fill="none" width="160" height="5" stroke="gray" />
      <rect x="16" y="122" clip-path="url(#clipPath1)" fill="gray" width="160" height="5" stroke="none" />
      <rect x="16" y="122" clip-path="url(#clipPath1)" fill="none" width="160" height="5" stroke="gray" />
      <rect x="16" y="175" clip-path="url(#clipPath1)" fill="gray" width="160" height="5" stroke="none" />
      <rect x="16" y="175" clip-path="url(#clipPath1)" fill="none" width="160" height="5" stroke="gray" />
      <rect x="16" y="228" clip-path="url(#clipPath1)" fill="gray" width="160" height="5" stroke="none" />
      <rect x="16" y="228" clip-path="url(#clipPath1)" fill="none" width="160" height="5" stroke="gray" />
      <rect x="16" y="282" clip-path="url(#clipPath1)" fill="gray" width="160" height="5" stroke="none" />
      <rect x="16" y="282" clip-path="url(#clipPath1)" fill="none" width="160" height="5" stroke="gray" />
      <line stroke-linecap="square" clip-path="url(#clipPath1)" fill="none" x1="176" x2="176" y1="16" y2="287" stroke="white" />
      <line stroke-linecap="square" clip-path="url(#clipPath1)" fill="none" x1="144" x2="144" y1="16" y2="287" stroke="white" />
      <line stroke-linecap="square" clip-path="url(#clipPath1)" fill="none" x1="112" x2="112" y1="16" y2="287" stroke="white" />
      <rect stroke-linecap="square" x="80" y="16" clip-path="url(#clipPath1)" fill="white" width="2" height="271" stroke="none" />
      <rect stroke-linecap="square" x="80" y="16" clip-path="url(#clipPath1)" fill="none" width="2" height="271" stroke="rgb(48,48,48)" />
      <rect stroke-linecap="square" x="48" y="16" clip-path="url(#clipPath1)" fill="white" width="3" height="271" stroke="none" />
      <rect stroke-linecap="square" x="48" y="16" clip-path="url(#clipPath1)" fill="none" width="3" height="271" stroke="rgb(48,48,48)" />
      <rect stroke-linecap="square" x="16" y="16" clip-path="url(#clipPath1)" fill="white" width="4" height="271" stroke="none" />
      <rect stroke-linecap="square" x="16" y="16" clip-path="url(#clipPath1)" fill="none" width="4" height="271" stroke="rgb(48,48,48)" />
    </g>
    <g font-size="17" fill="red" text-rendering="geometricPrecision" font-family="&apos;Arial&apos;" stroke="red" font-weight="bold">
      <rect x="5" y="33" clip-path="url(#clipPath2)" width="24" height="24" stroke="none" />
    </g>
    <g stroke-linecap="butt" font-size="17" fill="white" text-rendering="geometricPrecision" font-family="&apos;Arial&apos;" stroke="white" font-weight="bold" stroke-width="2">
      <rect x="5" y="33" clip-path="url(#clipPath2)" fill="none" width="24" height="24" />
      <rect x="5" y="33" clip-path="url(#clipPath2)" fill="none" width="24" height="24" stroke="red" />
      <text x="11" y="53" clip-path="url(#clipPath2)" fill="black" stroke="none" xml:space="preserve">R</text>
      <circle r="13" clip-path="url(#clipPath3)" cx="80" cy="45" stroke="none" />
      <circle fill="none" r="13" clip-path="url(#clipPath3)" cx="80" cy="45" />
    </g>
    <g stroke-linecap="butt" font-size="20" text-rendering="geometricPrecision" font-family="&apos;OpusText&apos;" font-weight="bold" stroke-width="2">
      <text xml:space="preserve" x="72" y="53" clip-path="url(#clipPath3)" stroke="none">b</text>
      <text x="79" font-size="16" y="52" clip-path="url(#clipPath3)" font-family="&apos;Arial&apos;" stroke="none" xml:space="preserve">7</text>
    </g>
    <g stroke-linecap="butt" font-size="17" fill="rgb(255,38,0)" text-rendering="geometricPrecision" font-family="&apos;Arial&apos;" stroke="rgb(255,38,0)" font-weight="bold" stroke-width="2">
      <rect x="164" y="33" clip-path="url(#clipPath4)" width="24" height="24" stroke="none" />
      <rect x="164" y="33" clip-path="url(#clipPath4)" fill="none" width="24" height="24" stroke="white" />
      <rect x="164" y="33" clip-path="url(#clipPath4)" fill="none" width="24" height="24" />
      <text x="170" y="53" clip-path="url(#clipPath4)" fill="black" stroke="none" xml:space="preserve">R</text>
      <circle clip-path="url(#clipPath5)" fill="white" r="13" cx="144" cy="45" stroke="none" />
      <circle clip-path="url(#clipPath5)" fill="none" r="13" cx="144" cy="45" stroke="white" />
      <text x="134" font-size="16" y="51" clip-path="url(#clipPath5)" fill="black" stroke="none" xml:space="preserve">p5</text>
      <circle clip-path="url(#clipPath6)" fill="white" r="13" cx="49" cy="151" stroke="none" />
      <circle clip-path="url(#clipPath6)" fill="none" r="13" cx="49" cy="151" stroke="white" />
      <text x="39" font-size="16" y="157" clip-path="url(#clipPath6)" fill="black" stroke="none" xml:space="preserve">p5</text>
      <circle clip-path="url(#clipPath7)" fill="white" r="13" cx="112" cy="151" stroke="none" />
      <circle clip-path="url(#clipPath7)" fill="none" r="13" cx="112" cy="151" stroke="white" />
      <text x="102" font-size="16" y="157" clip-path="url(#clipPath7)" fill="black" stroke="none" xml:space="preserve">p4</text>
    </g>
    <g stroke-linecap="butt" fill="rgb(28,222,147)" text-rendering="geometricPrecision" font-family="&apos;Segoe UI&apos;" stroke="rgb(28,222,147)" stroke-width="2">
      <path d="M174 29.5 C174 13.2076 139.302 -0 96.4999 -0 C53.6979 0 19 13.2076 19 29.5 C19 29.5 19 29.5 19 29.5 C19 19.835 53.6979 12 96.4999 12 C139.3019 12 173.9999 19.835 174 29.5 C174 29.5 174 29.5 174 29.5" clip-path="url(#clipPath8)" fill-rule="evenodd" stroke="none" />
      <path d="M174 29.5 C174 13.2076 139.302 -0 96.4999 -0 C53.6979 0 19 13.2076 19 29.5 C19 29.5 19 29.5 19 29.5 C19 19.835 53.6979 12 96.4999 12 C139.3019 12 173.9999 19.835 174 29.5 C174 29.5 174 29.5 174 29.5" clip-path="url(#clipPath8)" fill-rule="evenodd" stroke="none" />
    </g>
  </g>
</svg>
