<?xml version="1.0" encoding="ISO-8859-1"?>

<!DOCTYPE svg PUBLIC '-//W3C//DTD SVG 1.0//EN' 'http://www.w3.org/TR/2001/REC-SVG-20010904/DTD/svg10.dtd'>
<svg stroke-dasharray="none" shape-rendering="auto" xmlns="http://www.w3.org/2000/svg" font-family="&apos;Dialog&apos;" width="192" text-rendering="auto" fill-opacity="1" contentScriptType="text/ecmascript" color-interpolation="auto" color-rendering="auto" preserveAspectRatio="xMidYMid meet" font-size="12" fill="black" xmlns:xlink="http://www.w3.org/1999/xlink" stroke="black" image-rendering="auto" stroke-miterlimit="10" zoomAndPan="magnify" version="1.0" stroke-linecap="square" stroke-linejoin="miter" contentStyleType="text/css" font-style="normal" height="278" stroke-width="1" stroke-dashoffset="0" font-weight="normal" stroke-opacity="1">
  <!--Generated by the Batik Graphics2D SVG Generator-->
  <defs id="genericDefs" />
  <g>
    <defs id="defs1">
      <clipPath clipPathUnits="userSpaceOnUse" id="clipPath1">
        <path d="M-1 5 L193 5 L193 279 L-1 279 L-1 5 Z" />
      </clipPath>
      <clipPath clipPathUnits="userSpaceOnUse" id="clipPath2">
        <path d="M33 72 L65 72 L65 104 L33 104 L33 72 Z" />
      </clipPath>
      <clipPath clipPathUnits="userSpaceOnUse" id="clipPath3">
        <path d="M64 19 L96 19 L96 51 L64 51 L64 19 Z" />
      </clipPath>
      <clipPath clipPathUnits="userSpaceOnUse" id="clipPath4">
        <path d="M96 19 L128 19 L128 51 L96 51 L96 19 Z" />
      </clipPath>
      <clipPath clipPathUnits="userSpaceOnUse" id="clipPath5">
        <path d="M128 72 L160 72 L160 104 L128 104 L128 72 Z" />
      </clipPath>
      <clipPath clipPathUnits="userSpaceOnUse" id="clipPath6">
        <path d="M160 72 L192 72 L192 104 L160 104 L160 72 Z" />
      </clipPath>
      <clipPath clipPathUnits="userSpaceOnUse" id="clipPath7">
        <path d="M-1 -1 L193 -1 L193 279 L-1 279 L-1 -1 Z" />
      </clipPath>
    </defs>
    <g fill="rgb(71,218,147)" text-rendering="optimizeLegibility" font-family="&apos;Segoe UI&apos;" stroke-linejoin="round" stroke="rgb(71,218,147)" stroke-width="0" stroke-miterlimit="0">
      <path d="M173.9999 75.5 C173.9999 63.0736 167.7319 53 159.9999 53 C152.2679 53 145.9999 63.0736 146 75.5 C146 75.5 146 75.5 146 75.5 C145.9999 68.0442 152.2679 62 159.9999 62 C167.7319 62 173.9999 68.0441 173.9999 75.5 C173.9999 75.5 173.9999 75.5 173.9999 75.5" fill-rule="evenodd" stroke="none" />
      <path d="M109.9999 22.5 C109.9999 10.0736 103.7319 -0 95.9999 -0 C88.2679 0 81.9999 10.0736 82 22.5 C82 22.5 82 22.5 82 22.5 C81.9999 15.0442 88.2679 9 95.9999 9 C103.7319 9 109.9999 15.0441 109.9999 22.5 C109.9999 22.5 109.9999 22.5 109.9999 22.5" fill-rule="evenodd" stroke="none" />
    </g>
    <g font-size="19" fill="rgb(14,14,14)" text-rendering="optimizeLegibility" font-family="&apos;Verdana&apos;" stroke-linejoin="round" stroke="rgb(14,14,14)" stroke-width="0" stroke-miterlimit="0">
      <rect x="16" y="6" clip-path="url(#clipPath1)" width="160" height="271" stroke="none" />
    </g>
    <g stroke-linecap="butt" font-size="19" fill="rgb(14,14,14)" text-rendering="optimizeLegibility" font-family="&apos;Verdana&apos;" stroke="rgb(14,14,14)">
      <rect x="16" y="6" clip-path="url(#clipPath1)" fill="none" width="160" height="271" />
      <rect x="16" y="6" clip-path="url(#clipPath1)" fill="gray" width="160" height="5" stroke="none" />
      <rect x="16" y="6" clip-path="url(#clipPath1)" fill="none" width="160" height="5" stroke="gray" />
      <rect x="16" y="59" clip-path="url(#clipPath1)" fill="gray" width="160" height="5" stroke="none" />
      <rect x="16" y="59" clip-path="url(#clipPath1)" fill="none" width="160" height="5" stroke="gray" />
      <rect x="16" y="112" clip-path="url(#clipPath1)" fill="gray" width="160" height="5" stroke="none" />
      <rect x="16" y="112" clip-path="url(#clipPath1)" fill="none" width="160" height="5" stroke="gray" />
      <rect x="16" y="165" clip-path="url(#clipPath1)" fill="gray" width="160" height="5" stroke="none" />
      <rect x="16" y="165" clip-path="url(#clipPath1)" fill="none" width="160" height="5" stroke="gray" />
      <rect x="16" y="218" clip-path="url(#clipPath1)" fill="gray" width="160" height="5" stroke="none" />
      <rect x="16" y="218" clip-path="url(#clipPath1)" fill="none" width="160" height="5" stroke="gray" />
      <rect x="16" y="272" clip-path="url(#clipPath1)" fill="gray" width="160" height="5" stroke="none" />
      <rect x="16" y="272" clip-path="url(#clipPath1)" fill="none" width="160" height="5" stroke="gray" />
      <line stroke-linecap="square" clip-path="url(#clipPath1)" fill="none" x1="176" x2="176" y1="6" y2="277" stroke="white" />
      <line stroke-linecap="square" clip-path="url(#clipPath1)" fill="none" x1="144" x2="144" y1="6" y2="277" stroke="white" />
      <line stroke-linecap="square" clip-path="url(#clipPath1)" fill="none" x1="112" x2="112" y1="6" y2="277" stroke="white" />
      <rect stroke-linecap="square" x="80" y="6" clip-path="url(#clipPath1)" fill="white" width="2" height="271" stroke="none" />
      <rect stroke-linecap="square" x="80" y="6" clip-path="url(#clipPath1)" fill="none" width="2" height="271" stroke="rgb(48,48,48)" />
      <rect stroke-linecap="square" x="48" y="6" clip-path="url(#clipPath1)" fill="white" width="3" height="271" stroke="none" />
      <rect stroke-linecap="square" x="48" y="6" clip-path="url(#clipPath1)" fill="none" width="3" height="271" stroke="rgb(48,48,48)" />
      <rect stroke-linecap="square" x="16" y="6" clip-path="url(#clipPath1)" fill="white" width="4" height="271" stroke="none" />
      <rect stroke-linecap="square" x="16" y="6" clip-path="url(#clipPath1)" fill="none" width="4" height="271" stroke="rgb(48,48,48)" />
    </g>
    <g font-size="17" fill="red" text-rendering="geometricPrecision" font-family="&apos;Arial&apos;" stroke="red" font-weight="bold">
      <rect x="37" y="76" clip-path="url(#clipPath2)" width="24" height="24" stroke="none" />
    </g>
    <g stroke-linecap="butt" font-size="17" fill="white" text-rendering="geometricPrecision" font-family="&apos;Arial&apos;" stroke="white" font-weight="bold" stroke-width="2">
      <rect x="37" y="76" clip-path="url(#clipPath2)" fill="none" width="24" height="24" />
      <rect x="37" y="76" clip-path="url(#clipPath2)" fill="none" width="24" height="24" stroke="red" />
      <text x="43" y="96" clip-path="url(#clipPath2)" fill="rgb(13,14,13)" stroke="none" xml:space="preserve">R</text>
      <circle clip-path="url(#clipPath3)" fill="rgb(254,255,254)" r="13" cx="80" cy="35" stroke="none" />
      <circle clip-path="url(#clipPath3)" fill="none" r="13" cx="80" cy="35" stroke="rgb(254,255,254)" />
    </g>
    <g stroke-linecap="butt" font-size="20" fill="rgb(13,14,13)" text-rendering="geometricPrecision" font-family="&apos;OpusText&apos;" stroke="rgb(13,14,13)" font-weight="bold" stroke-width="2">
      <text xml:space="preserve" x="70" y="48" clip-path="url(#clipPath3)" stroke="none">^</text>
      <text x="80" font-size="16" y="42" clip-path="url(#clipPath3)" font-family="&apos;Arial&apos;" stroke="none" xml:space="preserve">3</text>
    </g>
    <g stroke-linecap="butt" font-size="16" fill="rgb(254,255,254)" text-rendering="geometricPrecision" font-family="&apos;Arial&apos;" stroke="rgb(254,255,254)" font-weight="bold" stroke-width="2">
      <circle r="13" clip-path="url(#clipPath4)" cx="112" cy="35" stroke="none" />
      <circle fill="none" r="13" clip-path="url(#clipPath4)" cx="112" cy="35" />
    </g>
    <g stroke-linecap="butt" font-size="20" fill="rgb(13,14,13)" text-rendering="geometricPrecision" font-family="&apos;OpusText&apos;" stroke="rgb(13,14,13)" font-weight="bold" stroke-width="2">
      <text xml:space="preserve" x="102" y="48" clip-path="url(#clipPath4)" stroke="none">^</text>
      <text x="112" font-size="16" y="42" clip-path="url(#clipPath4)" font-family="&apos;Arial&apos;" stroke="none" xml:space="preserve">6</text>
    </g>
    <g stroke-linecap="butt" font-size="17" fill="rgb(254,255,254)" text-rendering="geometricPrecision" font-family="&apos;Arial&apos;" stroke="rgb(254,255,254)" font-weight="bold" stroke-width="2">
      <circle r="13" clip-path="url(#clipPath5)" cx="144" cy="88" stroke="none" />
      <circle fill="none" r="13" clip-path="url(#clipPath5)" cx="144" cy="88" />
      <text x="139" y="96" clip-path="url(#clipPath5)" fill="rgb(13,14,13)" stroke="none" xml:space="preserve">9</text>
      <circle r="13" clip-path="url(#clipPath6)" cx="176" cy="88" stroke="none" />
      <circle fill="none" r="13" clip-path="url(#clipPath6)" cx="176" cy="88" />
      <text x="166" font-size="16" y="94" clip-path="url(#clipPath6)" fill="rgb(13,14,13)" stroke="none" xml:space="preserve">p5</text>
    </g>
    <g stroke-linecap="butt" fill="rgb(71,218,147)" text-rendering="geometricPrecision" font-family="&apos;Segoe UI&apos;" stroke="rgb(71,218,147)" stroke-width="2">
      <path d="M173.9999 75.5 C173.9999 63.0736 167.7319 53 159.9999 53 C152.2679 53 145.9999 63.0736 146 75.5 C146 75.5 146 75.5 146 75.5 C145.9999 68.0442 152.2679 62 159.9999 62 C167.7319 62 173.9999 68.0441 173.9999 75.5 C173.9999 75.5 173.9999 75.5 173.9999 75.5" clip-path="url(#clipPath7)" fill-rule="evenodd" stroke="none" />
      <path d="M109.9999 22.5 C109.9999 10.0736 103.7319 -0 95.9999 -0 C88.2679 0 81.9999 10.0736 82 22.5 C82 22.5 82 22.5 82 22.5 C81.9999 15.0442 88.2679 9 95.9999 9 C103.7319 9 109.9999 15.0441 109.9999 22.5 C109.9999 22.5 109.9999 22.5 109.9999 22.5" clip-path="url(#clipPath7)" fill-rule="evenodd" stroke="none" />
    </g>
  </g>
</svg>
