<?xml version="1.0" encoding="ISO-8859-1"?>

<!DOCTYPE svg PUBLIC '-//W3C//DTD SVG 1.0//EN' 'http://www.w3.org/TR/2001/REC-SVG-20010904/DTD/svg10.dtd'>
<svg stroke-dasharray="none" shape-rendering="auto" xmlns="http://www.w3.org/2000/svg" font-family="&apos;Dialog&apos;" width="192" text-rendering="auto" fill-opacity="1" contentScriptType="text/ecmascript" color-interpolation="auto" color-rendering="auto" preserveAspectRatio="xMidYMid meet" font-size="12" fill="black" xmlns:xlink="http://www.w3.org/1999/xlink" stroke="black" image-rendering="auto" stroke-miterlimit="10" zoomAndPan="magnify" version="1.0" stroke-linecap="square" stroke-linejoin="miter" contentStyleType="text/css" font-style="normal" height="280" stroke-width="1" stroke-dashoffset="0" font-weight="normal" stroke-opacity="1">
  <!--Generated by the Batik Graphics2D SVG Generator-->
  <defs id="genericDefs" />
  <g>
    <defs id="defs1">
      <clipPath clipPathUnits="userSpaceOnUse" id="clipPath1">
        <path d="M-1 7 L193 7 L193 281 L-1 281 L-1 7 Z" />
      </clipPath>
      <clipPath clipPathUnits="userSpaceOnUse" id="clipPath2">
        <path d="M33 74 L65 74 L65 106 L33 106 L33 74 Z" />
      </clipPath>
      <clipPath clipPathUnits="userSpaceOnUse" id="clipPath3">
        <path d="M64 21 L96 21 L96 53 L64 53 L64 21 Z" />
      </clipPath>
      <clipPath clipPathUnits="userSpaceOnUse" id="clipPath4">
        <path d="M128 21 L160 21 L160 53 L128 53 L128 21 Z" />
      </clipPath>
      <clipPath clipPathUnits="userSpaceOnUse" id="clipPath5">
        <path d="M96 74 L128 74 L128 106 L96 106 L96 74 Z" />
      </clipPath>
      <clipPath clipPathUnits="userSpaceOnUse" id="clipPath6">
        <path d="M-1 -1 L193 -1 L193 281 L-1 281 L-1 -1 Z" />
      </clipPath>
    </defs>
    <g fill="rgb(28,222,147)" text-rendering="optimizeLegibility" font-family="&apos;Segoe UI&apos;" stroke-linejoin="round" stroke="rgb(28,222,147)" stroke-width="0" stroke-miterlimit="0">
      <path d="M141.9999 23.5 C141.9999 10.5213 128.5685 -0 111.9999 -0 C95.4314 0 81.9999 10.5213 82 23.5 C82 23.5 82 23.5 82 23.5 C81.9999 16.0442 95.4314 10 111.9999 10 C128.5685 10 141.9999 16.0441 141.9999 23.5 C141.9999 23.5 141.9999 23.5 141.9999 23.5" fill-rule="evenodd" stroke="none" />
    </g>
    <g font-size="19" fill="rgb(14,14,14)" text-rendering="optimizeLegibility" font-family="&apos;Verdana&apos;" stroke-linejoin="round" stroke="rgb(14,14,14)" stroke-width="0" stroke-miterlimit="0">
      <rect x="16" y="8" clip-path="url(#clipPath1)" width="160" height="271" stroke="none" />
    </g>
    <g stroke-linecap="butt" font-size="19" fill="rgb(14,14,14)" text-rendering="optimizeLegibility" font-family="&apos;Verdana&apos;" stroke="rgb(14,14,14)">
      <rect x="16" y="8" clip-path="url(#clipPath1)" fill="none" width="160" height="271" />
      <rect x="16" y="8" clip-path="url(#clipPath1)" fill="gray" width="160" height="5" stroke="none" />
      <rect x="16" y="8" clip-path="url(#clipPath1)" fill="none" width="160" height="5" stroke="gray" />
      <rect x="16" y="61" clip-path="url(#clipPath1)" fill="gray" width="160" height="5" stroke="none" />
      <rect x="16" y="61" clip-path="url(#clipPath1)" fill="none" width="160" height="5" stroke="gray" />
      <rect x="16" y="114" clip-path="url(#clipPath1)" fill="gray" width="160" height="5" stroke="none" />
      <rect x="16" y="114" clip-path="url(#clipPath1)" fill="none" width="160" height="5" stroke="gray" />
      <rect x="16" y="167" clip-path="url(#clipPath1)" fill="gray" width="160" height="5" stroke="none" />
      <rect x="16" y="167" clip-path="url(#clipPath1)" fill="none" width="160" height="5" stroke="gray" />
      <rect x="16" y="220" clip-path="url(#clipPath1)" fill="gray" width="160" height="5" stroke="none" />
      <rect x="16" y="220" clip-path="url(#clipPath1)" fill="none" width="160" height="5" stroke="gray" />
      <rect x="16" y="274" clip-path="url(#clipPath1)" fill="gray" width="160" height="5" stroke="none" />
      <rect x="16" y="274" clip-path="url(#clipPath1)" fill="none" width="160" height="5" stroke="gray" />
      <line stroke-linecap="square" clip-path="url(#clipPath1)" fill="none" x1="176" x2="176" y1="8" y2="279" stroke="white" />
      <line stroke-linecap="square" clip-path="url(#clipPath1)" fill="none" x1="144" x2="144" y1="8" y2="279" stroke="white" />
      <line stroke-linecap="square" clip-path="url(#clipPath1)" fill="none" x1="112" x2="112" y1="8" y2="279" stroke="white" />
      <rect stroke-linecap="square" x="80" y="8" clip-path="url(#clipPath1)" fill="white" width="2" height="271" stroke="none" />
      <rect stroke-linecap="square" x="80" y="8" clip-path="url(#clipPath1)" fill="none" width="2" height="271" stroke="rgb(48,48,48)" />
      <rect stroke-linecap="square" x="48" y="8" clip-path="url(#clipPath1)" fill="white" width="3" height="271" stroke="none" />
      <rect stroke-linecap="square" x="48" y="8" clip-path="url(#clipPath1)" fill="none" width="3" height="271" stroke="rgb(48,48,48)" />
      <rect stroke-linecap="square" x="16" y="8" clip-path="url(#clipPath1)" fill="white" width="4" height="271" stroke="none" />
      <rect stroke-linecap="square" x="16" y="8" clip-path="url(#clipPath1)" fill="none" width="4" height="271" stroke="rgb(48,48,48)" />
    </g>
    <g font-size="17" fill="red" text-rendering="geometricPrecision" font-family="&apos;Arial&apos;" stroke="red" font-weight="bold">
      <rect x="37" y="78" clip-path="url(#clipPath2)" width="24" height="24" stroke="none" />
    </g>
    <g stroke-linecap="butt" font-size="17" fill="white" text-rendering="geometricPrecision" font-family="&apos;Arial&apos;" stroke="white" font-weight="bold" stroke-width="2">
      <rect x="37" y="78" clip-path="url(#clipPath2)" fill="none" width="24" height="24" />
      <rect x="37" y="78" clip-path="url(#clipPath2)" fill="none" width="24" height="24" stroke="red" />
      <text x="43" y="98" clip-path="url(#clipPath2)" fill="black" stroke="none" xml:space="preserve">R</text>
      <circle r="13" clip-path="url(#clipPath3)" cx="80" cy="37" stroke="none" />
      <circle fill="none" r="13" clip-path="url(#clipPath3)" cx="80" cy="37" />
    </g>
    <g stroke-linecap="butt" font-size="20" text-rendering="geometricPrecision" font-family="&apos;OpusText&apos;" font-weight="bold" stroke-width="2">
      <text xml:space="preserve" x="70" y="50" clip-path="url(#clipPath3)" stroke="none">^</text>
      <text x="80" font-size="16" y="44" clip-path="url(#clipPath3)" font-family="&apos;Arial&apos;" stroke="none" xml:space="preserve">3</text>
    </g>
    <g stroke-linecap="butt" font-size="16" fill="white" text-rendering="geometricPrecision" font-family="&apos;Arial&apos;" stroke="white" font-weight="bold" stroke-width="2">
      <circle r="13" clip-path="url(#clipPath4)" cx="144" cy="37" stroke="none" />
      <circle fill="none" r="13" clip-path="url(#clipPath4)" cx="144" cy="37" />
    </g>
    <g stroke-linecap="butt" font-size="20" text-rendering="geometricPrecision" font-family="&apos;OpusText&apos;" font-weight="bold" stroke-width="2">
      <text xml:space="preserve" x="136" y="45" clip-path="url(#clipPath4)" stroke="none">b</text>
      <text x="143" font-size="16" y="44" clip-path="url(#clipPath4)" font-family="&apos;Arial&apos;" stroke="none" xml:space="preserve">9</text>
    </g>
    <g stroke-linecap="butt" font-size="16" fill="white" text-rendering="geometricPrecision" font-family="&apos;Arial&apos;" stroke="white" font-weight="bold" stroke-width="2">
      <circle r="13" clip-path="url(#clipPath5)" cx="112" cy="90" stroke="none" />
      <circle fill="none" r="13" clip-path="url(#clipPath5)" cx="112" cy="90" />
    </g>
    <g stroke-linecap="butt" font-size="20" text-rendering="geometricPrecision" font-family="&apos;OpusText&apos;" font-weight="bold" stroke-width="2">
      <text xml:space="preserve" x="104" y="98" clip-path="url(#clipPath5)" stroke="none">b</text>
      <text x="111" font-size="16" y="97" clip-path="url(#clipPath5)" font-family="&apos;Arial&apos;" stroke="none" xml:space="preserve">7</text>
    </g>
    <g stroke-linecap="butt" fill="rgb(28,222,147)" text-rendering="geometricPrecision" font-family="&apos;Segoe UI&apos;" stroke="rgb(28,222,147)" stroke-width="2">
      <path d="M141.9999 23.5 C141.9999 10.5213 128.5685 -0 111.9999 -0 C95.4314 0 81.9999 10.5213 82 23.5 C82 23.5 82 23.5 82 23.5 C81.9999 16.0442 95.4314 10 111.9999 10 C128.5685 10 141.9999 16.0441 141.9999 23.5 C141.9999 23.5 141.9999 23.5 141.9999 23.5" clip-path="url(#clipPath6)" fill-rule="evenodd" stroke="none" />
    </g>
  </g>
</svg>
