<?xml version="1.0" encoding="ISO-8859-1"?>

<!DOCTYPE svg PUBLIC '-//W3C//DTD SVG 1.0//EN' 'http://www.w3.org/TR/2001/REC-SVG-20010904/DTD/svg10.dtd'>
<svg stroke-dasharray="none" shape-rendering="auto" xmlns="http://www.w3.org/2000/svg" font-family="&apos;Dialog&apos;" width="275" text-rendering="auto" fill-opacity="1" contentScriptType="text/ecmascript" color-interpolation="auto" color-rendering="auto" preserveAspectRatio="xMidYMid meet" font-size="12" fill="black" xmlns:xlink="http://www.w3.org/1999/xlink" stroke="black" image-rendering="auto" stroke-miterlimit="10" zoomAndPan="magnify" version="1.0" stroke-linecap="square" stroke-linejoin="miter" contentStyleType="text/css" font-style="normal" height="192" stroke-width="1" stroke-dashoffset="0" font-weight="normal" stroke-opacity="1">
  <!--Generated by the Batik Graphics2D SVG Generator-->
  <defs id="genericDefs" />
  <g>
    <defs id="defs1">
      <clipPath clipPathUnits="userSpaceOnUse" id="clipPath1">
        <path d="M2 -1 L276 -1 L276 193 L2 193 L2 -1 Z" />
      </clipPath>
      <clipPath clipPathUnits="userSpaceOnUse" id="clipPath2">
        <path d="M69 129 L101 129 L101 161 L69 161 L69 129 Z" />
      </clipPath>
      <clipPath clipPathUnits="userSpaceOnUse" id="clipPath3">
        <path d="M16 96 L48 96 L48 128 L16 128 L16 96 Z" />
      </clipPath>
      <clipPath clipPathUnits="userSpaceOnUse" id="clipPath4">
        <path d="M16 64 L48 64 L48 96 L16 96 L16 64 Z" />
      </clipPath>
      <clipPath clipPathUnits="userSpaceOnUse" id="clipPath5">
        <path d="M69 32 L101 32 L101 64 L69 64 L69 32 Z" />
      </clipPath>
      <clipPath clipPathUnits="userSpaceOnUse" id="clipPath6">
        <path d="M69 0 L101 0 L101 32 L69 32 L69 0 Z" />
      </clipPath>
      <clipPath clipPathUnits="userSpaceOnUse" id="clipPath7">
        <path d="M-1 -1 L276 -1 L276 193 L-1 193 L-1 -1 Z" />
      </clipPath>
    </defs>
    <g fill="rgb(28,222,147)" text-rendering="optimizeLegibility" font-family="&apos;Segoe UI&apos;" stroke-linejoin="round" stroke="rgb(28,222,147)" stroke-width="0" stroke-miterlimit="0">
      <path d="M74.9999 18 C63.9542 18 54.9999 24.268 55 32 C55 39.732 63.9543 46 75 46 C68.3726 46 63 39.732 62.9999 32 C62.9999 24.268 68.3726 18 74.9999 18" fill-rule="evenodd" stroke="none" />
      <path d="M21.9999 82 C10.9542 82 1.9999 88.268 2 96 C2 103.732 10.9543 110 22 109.9999 C15.3726 110 10 103.732 9.9999 96 C9.9999 88.268 15.3726 82 21.9999 82" fill-rule="evenodd" stroke="none" />
    </g>
    <g font-size="19" fill="rgb(14,14,14)" text-rendering="optimizeLegibility" font-family="&apos;Verdana&apos;" stroke-linejoin="round" stroke="rgb(14,14,14)" stroke-width="0" stroke-miterlimit="0">
      <rect x="3" y="16" clip-path="url(#clipPath1)" width="271" height="162" stroke="none" />
    </g>
    <g stroke-linecap="butt" font-size="19" fill="rgb(14,14,14)" text-rendering="optimizeLegibility" font-family="&apos;Verdana&apos;" stroke="rgb(14,14,14)">
      <rect x="3" y="16" clip-path="url(#clipPath1)" fill="none" width="271" height="162" />
      <rect x="3" y="16" clip-path="url(#clipPath1)" fill="gray" width="5" height="162" stroke="none" />
      <rect x="3" y="16" clip-path="url(#clipPath1)" fill="none" width="5" height="162" stroke="gray" />
      <rect x="56" y="16" clip-path="url(#clipPath1)" fill="gray" width="5" height="162" stroke="none" />
      <rect x="56" y="16" clip-path="url(#clipPath1)" fill="none" width="5" height="162" stroke="gray" />
      <rect x="109" y="16" clip-path="url(#clipPath1)" fill="gray" width="5" height="162" stroke="none" />
      <rect x="109" y="16" clip-path="url(#clipPath1)" fill="none" width="5" height="162" stroke="gray" />
      <rect x="162" y="16" clip-path="url(#clipPath1)" fill="gray" width="5" height="162" stroke="none" />
      <rect x="162" y="16" clip-path="url(#clipPath1)" fill="none" width="5" height="162" stroke="gray" />
      <rect x="215" y="16" clip-path="url(#clipPath1)" fill="gray" width="5" height="162" stroke="none" />
      <rect x="215" y="16" clip-path="url(#clipPath1)" fill="none" width="5" height="162" stroke="gray" />
      <rect x="269" y="16" clip-path="url(#clipPath1)" fill="gray" width="5" height="162" stroke="none" />
      <rect x="269" y="16" clip-path="url(#clipPath1)" fill="none" width="5" height="162" stroke="gray" />
      <line stroke-linecap="square" clip-path="url(#clipPath1)" fill="none" x1="3" x2="274" y1="16" y2="16" stroke="white" />
      <line stroke-linecap="square" clip-path="url(#clipPath1)" fill="none" x1="3" x2="274" y1="48" y2="48" stroke="white" />
      <line stroke-linecap="square" clip-path="url(#clipPath1)" fill="none" x1="3" x2="274" y1="80" y2="80" stroke="white" />
      <rect stroke-linecap="square" x="3" y="111" clip-path="url(#clipPath1)" fill="white" width="271" height="2" stroke="none" />
      <rect stroke-linecap="square" x="3" y="111" clip-path="url(#clipPath1)" fill="none" width="271" height="2" stroke="rgb(48,48,48)" />
      <rect stroke-linecap="square" x="3" y="142" clip-path="url(#clipPath1)" fill="white" width="271" height="3" stroke="none" />
      <rect stroke-linecap="square" x="3" y="142" clip-path="url(#clipPath1)" fill="none" width="271" height="3" stroke="rgb(48,48,48)" />
      <rect stroke-linecap="square" x="3" y="174" clip-path="url(#clipPath1)" fill="white" width="271" height="4" stroke="none" />
      <rect stroke-linecap="square" x="3" y="174" clip-path="url(#clipPath1)" fill="none" width="271" height="4" stroke="rgb(48,48,48)" />
    </g>
    <g font-size="17" fill="red" text-rendering="geometricPrecision" font-family="&apos;Arial&apos;" stroke="red" font-weight="bold">
      <rect x="73" y="133" clip-path="url(#clipPath2)" width="24" height="24" stroke="none" />
    </g>
    <g stroke-linecap="butt" font-size="17" fill="white" text-rendering="geometricPrecision" font-family="&apos;Arial&apos;" stroke="white" font-weight="bold" stroke-width="2">
      <rect x="73" y="133" clip-path="url(#clipPath2)" fill="none" width="24" height="24" />
      <rect x="73" y="133" clip-path="url(#clipPath2)" fill="none" width="24" height="24" stroke="red" />
      <text x="79" y="153" clip-path="url(#clipPath2)" fill="rgb(13,14,13)" stroke="none" xml:space="preserve">R</text>
      <circle clip-path="url(#clipPath3)" fill="rgb(254,255,254)" r="13" cx="32" cy="112" stroke="none" />
      <circle clip-path="url(#clipPath3)" fill="none" r="13" cx="32" cy="112" stroke="rgb(254,255,254)" />
    </g>
    <g stroke-linecap="butt" font-size="20" fill="rgb(13,14,13)" text-rendering="geometricPrecision" font-family="&apos;OpusText&apos;" stroke="rgb(13,14,13)" font-weight="bold" stroke-width="2">
      <text xml:space="preserve" x="22" y="124" clip-path="url(#clipPath3)" stroke="none">^</text>
      <text x="32" font-size="16" y="118" clip-path="url(#clipPath3)" font-family="&apos;Arial&apos;" stroke="none" xml:space="preserve">3</text>
    </g>
    <g stroke-linecap="butt" font-size="16" fill="rgb(254,255,254)" text-rendering="geometricPrecision" font-family="&apos;Arial&apos;" stroke="rgb(254,255,254)" font-weight="bold" stroke-width="2">
      <circle r="13" clip-path="url(#clipPath4)" cx="32" cy="80" stroke="none" />
      <circle fill="none" r="13" clip-path="url(#clipPath4)" cx="32" cy="80" />
    </g>
    <g stroke-linecap="butt" font-size="20" fill="rgb(13,14,13)" text-rendering="geometricPrecision" font-family="&apos;OpusText&apos;" stroke="rgb(13,14,13)" font-weight="bold" stroke-width="2">
      <text xml:space="preserve" x="22" y="92" clip-path="url(#clipPath4)" stroke="none">^</text>
      <text x="32" font-size="16" y="86" clip-path="url(#clipPath4)" font-family="&apos;Arial&apos;" stroke="none" xml:space="preserve">6</text>
    </g>
    <g stroke-linecap="butt" font-size="17" fill="rgb(254,255,254)" text-rendering="geometricPrecision" font-family="&apos;Arial&apos;" stroke="rgb(254,255,254)" font-weight="bold" stroke-width="2">
      <circle r="13" clip-path="url(#clipPath5)" cx="85" cy="48" stroke="none" />
      <circle fill="none" r="13" clip-path="url(#clipPath5)" cx="85" cy="48" />
      <text x="80" y="55" clip-path="url(#clipPath5)" fill="rgb(13,14,13)" stroke="none" xml:space="preserve">9</text>
      <circle r="13" clip-path="url(#clipPath6)" cx="85" cy="16" stroke="none" />
      <circle fill="none" r="13" clip-path="url(#clipPath6)" cx="85" cy="16" />
      <text x="75" font-size="16" y="21" clip-path="url(#clipPath6)" fill="rgb(13,14,13)" stroke="none" xml:space="preserve">p5</text>
    </g>
    <g stroke-linecap="butt" fill="rgb(28,222,147)" text-rendering="geometricPrecision" font-family="&apos;Segoe UI&apos;" stroke="rgb(28,222,147)" stroke-width="2">
      <path d="M74.9999 18 C63.9542 18 54.9999 24.268 55 32 C55 39.732 63.9543 46 75 46 C68.3726 46 63 39.732 62.9999 32 C62.9999 24.268 68.3726 18 74.9999 18" clip-path="url(#clipPath7)" fill-rule="evenodd" stroke="none" />
      <path d="M21.9999 82 C10.9542 82 1.9999 88.268 2 96 C2 103.732 10.9543 110 22 109.9999 C15.3726 110 10 103.732 9.9999 96 C9.9999 88.268 15.3726 82 21.9999 82" clip-path="url(#clipPath7)" fill-rule="evenodd" stroke="none" />
    </g>
  </g>
</svg>
