<?xml version="1.0" encoding="ISO-8859-1"?>

<!DOCTYPE svg PUBLIC '-//W3C//DTD SVG 1.0//EN' 'http://www.w3.org/TR/2001/REC-SVG-20010904/DTD/svg10.dtd'>
<svg stroke-dasharray="none" shape-rendering="auto" xmlns="http://www.w3.org/2000/svg" font-family="&apos;Dialog&apos;" width="272" text-rendering="auto" fill-opacity="1" contentScriptType="text/ecmascript" color-interpolation="auto" color-rendering="auto" preserveAspectRatio="xMidYMid meet" font-size="12" fill="black" xmlns:xlink="http://www.w3.org/1999/xlink" stroke="black" image-rendering="auto" stroke-miterlimit="10" zoomAndPan="magnify" version="1.0" stroke-linecap="square" stroke-linejoin="miter" contentStyleType="text/css" font-style="normal" height="192" stroke-width="1" stroke-dashoffset="0" font-weight="normal" stroke-opacity="1">
  <!--Generated by the Batik Graphics2D SVG Generator-->
  <defs id="genericDefs" />
  <g>
    <defs id="defs1">
      <clipPath clipPathUnits="userSpaceOnUse" id="clipPath1">
        <path d="M81 162 L113 162 L113 193 L81 193 L81 162 Z" />
      </clipPath>
      <clipPath clipPathUnits="userSpaceOnUse" id="clipPath2">
        <path d="M120 97 L152 97 L152 129 L120 129 L120 97 Z" />
      </clipPath>
      <clipPath clipPathUnits="userSpaceOnUse" id="clipPath3">
        <path d="M43 32 L75 32 L75 64 L43 64 L43 32 Z" />
      </clipPath>
      <clipPath clipPathUnits="userSpaceOnUse" id="clipPath4">
        <path d="M120 64 L152 64 L152 96 L120 96 L120 64 Z" />
      </clipPath>
    </defs>
    <g font-size="19" fill="rgb(14,14,14)" text-rendering="optimizeLegibility" font-family="&apos;Verdana&apos;" stroke-linejoin="round" stroke="rgb(14,14,14)" stroke-width="0" stroke-miterlimit="0">
      <rect width="271" x="0" height="162" y="16" stroke="none" />
    </g>
    <g stroke-linecap="butt" font-size="19" fill="rgb(14,14,14)" text-rendering="optimizeLegibility" font-family="&apos;Verdana&apos;" stroke="rgb(14,14,14)">
      <rect fill="none" width="271" x="0" height="162" y="16" />
      <rect x="0" y="16" fill="gray" width="3" height="162" stroke="none" />
      <rect x="0" y="16" fill="none" width="3" height="162" stroke="gray" />
      <rect x="38" y="16" fill="gray" width="3" height="162" stroke="none" />
      <rect x="38" y="16" fill="none" width="3" height="162" stroke="gray" />
      <rect x="76" y="16" fill="gray" width="3" height="162" stroke="none" />
      <rect x="76" y="16" fill="none" width="3" height="162" stroke="gray" />
      <rect x="114" y="16" fill="gray" width="3" height="162" stroke="none" />
      <rect x="114" y="16" fill="none" width="3" height="162" stroke="gray" />
      <rect x="153" y="16" fill="gray" width="3" height="162" stroke="none" />
      <rect x="153" y="16" fill="none" width="3" height="162" stroke="gray" />
      <rect x="191" y="16" fill="gray" width="3" height="162" stroke="none" />
      <rect x="191" y="16" fill="none" width="3" height="162" stroke="gray" />
      <rect x="229" y="16" fill="gray" width="3" height="162" stroke="none" />
      <rect x="229" y="16" fill="none" width="3" height="162" stroke="gray" />
      <rect x="268" y="16" fill="gray" width="3" height="162" stroke="none" />
      <rect x="268" y="16" fill="none" width="3" height="162" stroke="gray" />
      <line stroke-linecap="square" fill="none" x1="0" x2="271" y1="16" y2="16" stroke="white" />
      <line stroke-linecap="square" fill="none" x1="0" x2="271" y1="48" y2="48" stroke="white" />
      <line stroke-linecap="square" fill="none" x1="0" x2="271" y1="80" y2="80" stroke="white" />
      <rect stroke-linecap="square" x="0" y="111" fill="white" width="271" height="2" stroke="none" />
      <rect stroke-linecap="square" x="0" y="111" fill="none" width="271" height="2" stroke="rgb(48,48,48)" />
      <rect stroke-linecap="square" x="0" y="142" fill="white" width="271" height="3" stroke="none" />
      <rect stroke-linecap="square" x="0" y="142" fill="none" width="271" height="3" stroke="rgb(48,48,48)" />
      <rect stroke-linecap="square" x="0" y="174" fill="white" width="271" height="4" stroke="none" />
      <rect stroke-linecap="square" x="0" y="174" fill="none" width="271" height="4" stroke="rgb(48,48,48)" />
    </g>
    <g font-size="17" fill="red" text-rendering="geometricPrecision" font-family="&apos;Arial&apos;" stroke="red" font-weight="bold">
      <circle r="13" clip-path="url(#clipPath1)" cx="97" cy="178" stroke="none" />
      <circle stroke-linecap="butt" clip-path="url(#clipPath1)" fill="none" r="13" cx="97" cy="178" stroke-width="2" />
    </g>
    <g stroke-linecap="butt" font-size="17" text-rendering="geometricPrecision" font-family="&apos;Arial&apos;" font-weight="bold" stroke-width="2">
      <text xml:space="preserve" x="91" y="185" clip-path="url(#clipPath1)" stroke="none">R</text>
      <circle clip-path="url(#clipPath2)" fill="white" r="13" cx="136" cy="113" stroke="none" />
      <circle clip-path="url(#clipPath2)" fill="none" r="13" cx="136" cy="113" stroke="white" />
    </g>
    <g stroke-linecap="butt" font-size="20" fill="rgb(14,14,14)" text-rendering="geometricPrecision" font-family="&apos;OpusText&apos;" stroke="rgb(14,14,14)" font-weight="bold" stroke-width="2">
      <text xml:space="preserve" x="126" y="125" clip-path="url(#clipPath2)" stroke="none">^</text>
      <text x="136" font-size="16" y="119" clip-path="url(#clipPath2)" font-family="&apos;Arial&apos;" stroke="none" xml:space="preserve">7</text>
    </g>
    <g stroke-linecap="butt" font-size="16" fill="white" text-rendering="geometricPrecision" font-family="&apos;Arial&apos;" stroke="white" font-weight="bold" stroke-width="2">
      <circle r="13" clip-path="url(#clipPath3)" cx="59" cy="48" stroke="none" />
      <circle fill="none" r="13" clip-path="url(#clipPath3)" cx="59" cy="48" />
    </g>
    <g stroke-linecap="butt" font-size="20" fill="rgb(14,14,14)" text-rendering="geometricPrecision" font-family="&apos;OpusText&apos;" stroke="rgb(14,14,14)" font-weight="bold" stroke-width="2">
      <text xml:space="preserve" x="51" y="55" clip-path="url(#clipPath3)" stroke="none">b</text>
      <text x="58" font-size="16" y="54" clip-path="url(#clipPath3)" font-family="&apos;Arial&apos;" stroke="none" xml:space="preserve">5</text>
    </g>
    <g stroke-linecap="butt" font-size="16" fill="white" text-rendering="geometricPrecision" font-family="&apos;Arial&apos;" stroke="white" font-weight="bold" stroke-width="2">
      <circle r="13" clip-path="url(#clipPath4)" cx="136" cy="80" stroke="none" />
      <circle fill="none" r="13" clip-path="url(#clipPath4)" cx="136" cy="80" />
    </g>
    <g stroke-linecap="butt" font-size="20" fill="rgb(14,14,14)" text-rendering="geometricPrecision" font-family="&apos;OpusText&apos;" stroke="rgb(14,14,14)" font-weight="bold" stroke-width="2">
      <text xml:space="preserve" x="126" y="92" clip-path="url(#clipPath4)" stroke="none">^</text>
      <text x="136" font-size="16" y="86" clip-path="url(#clipPath4)" font-family="&apos;Arial&apos;" stroke="none" xml:space="preserve">3</text>
    </g>
  </g>
</svg>
