<?xml version="1.0" encoding="ISO-8859-1"?>

<!DOCTYPE svg PUBLIC '-//W3C//DTD SVG 1.0//EN' 'http://www.w3.org/TR/2001/REC-SVG-20010904/DTD/svg10.dtd'>
<svg stroke-dasharray="none" shape-rendering="auto" xmlns="http://www.w3.org/2000/svg" font-family="&apos;Dialog&apos;" width="278" text-rendering="auto" fill-opacity="1" contentScriptType="text/ecmascript" color-interpolation="auto" color-rendering="auto" preserveAspectRatio="xMidYMid meet" font-size="12" fill="black" xmlns:xlink="http://www.w3.org/1999/xlink" stroke="black" image-rendering="auto" stroke-miterlimit="10" zoomAndPan="magnify" version="1.0" stroke-linecap="square" stroke-linejoin="miter" contentStyleType="text/css" font-style="normal" height="192" stroke-width="1" stroke-dashoffset="0" font-weight="normal" stroke-opacity="1">
  <!--Generated by the Batik Graphics2D SVG Generator-->
  <defs id="genericDefs" />
  <g>
    <defs id="defs1">
      <clipPath clipPathUnits="userSpaceOnUse" id="clipPath1">
        <path d="M5 -1 L279 -1 L279 193 L5 193 L5 -1 Z" />
      </clipPath>
      <clipPath clipPathUnits="userSpaceOnUse" id="clipPath2">
        <path d="M19 129 L51 129 L51 161 L19 161 L19 129 Z" />
      </clipPath>
      <clipPath clipPathUnits="userSpaceOnUse" id="clipPath3">
        <path d="M19 64 L51 64 L51 96 L19 96 L19 64 Z" />
      </clipPath>
      <clipPath clipPathUnits="userSpaceOnUse" id="clipPath4">
        <path d="M125 32 L157 32 L157 64 L125 64 L125 32 Z" />
      </clipPath>
      <clipPath clipPathUnits="userSpaceOnUse" id="clipPath5">
        <path d="M179 96 L211 96 L211 128 L179 128 L179 96 Z" />
      </clipPath>
      <clipPath clipPathUnits="userSpaceOnUse" id="clipPath6">
        <path d="M-1 -1 L279 -1 L279 193 L-1 193 L-1 -1 Z" />
      </clipPath>
    </defs>
    <g font-size="19" fill="rgb(14,14,14)" text-rendering="optimizeLegibility" font-family="&apos;Verdana&apos;" stroke-linejoin="round" stroke="rgb(14,14,14)" stroke-width="0" stroke-miterlimit="0">
      <rect x="6" y="16" clip-path="url(#clipPath1)" width="271" height="162" stroke="none" />
    </g>
    <g stroke-linecap="butt" font-size="19" fill="rgb(14,14,14)" text-rendering="optimizeLegibility" font-family="&apos;Verdana&apos;" stroke="rgb(14,14,14)">
      <rect x="6" y="16" clip-path="url(#clipPath1)" fill="none" width="271" height="162" />
      <rect x="6" y="16" clip-path="url(#clipPath1)" fill="gray" width="5" height="162" stroke="none" />
      <rect x="6" y="16" clip-path="url(#clipPath1)" fill="none" width="5" height="162" stroke="gray" />
      <rect x="59" y="16" clip-path="url(#clipPath1)" fill="gray" width="5" height="162" stroke="none" />
      <rect x="59" y="16" clip-path="url(#clipPath1)" fill="none" width="5" height="162" stroke="gray" />
      <rect x="112" y="16" clip-path="url(#clipPath1)" fill="gray" width="5" height="162" stroke="none" />
      <rect x="112" y="16" clip-path="url(#clipPath1)" fill="none" width="5" height="162" stroke="gray" />
      <rect x="165" y="16" clip-path="url(#clipPath1)" fill="gray" width="5" height="162" stroke="none" />
      <rect x="165" y="16" clip-path="url(#clipPath1)" fill="none" width="5" height="162" stroke="gray" />
      <rect x="218" y="16" clip-path="url(#clipPath1)" fill="gray" width="5" height="162" stroke="none" />
      <rect x="218" y="16" clip-path="url(#clipPath1)" fill="none" width="5" height="162" stroke="gray" />
      <rect x="272" y="16" clip-path="url(#clipPath1)" fill="gray" width="5" height="162" stroke="none" />
      <rect x="272" y="16" clip-path="url(#clipPath1)" fill="none" width="5" height="162" stroke="gray" />
      <line stroke-linecap="square" clip-path="url(#clipPath1)" fill="none" x1="6" x2="277" y1="16" y2="16" stroke="white" />
      <line stroke-linecap="square" clip-path="url(#clipPath1)" fill="none" x1="6" x2="277" y1="48" y2="48" stroke="white" />
      <line stroke-linecap="square" clip-path="url(#clipPath1)" fill="none" x1="6" x2="277" y1="80" y2="80" stroke="white" />
      <rect stroke-linecap="square" x="6" y="111" clip-path="url(#clipPath1)" fill="white" width="271" height="2" stroke="none" />
      <rect stroke-linecap="square" x="6" y="111" clip-path="url(#clipPath1)" fill="none" width="271" height="2" stroke="rgb(48,48,48)" />
      <rect stroke-linecap="square" x="6" y="142" clip-path="url(#clipPath1)" fill="white" width="271" height="3" stroke="none" />
      <rect stroke-linecap="square" x="6" y="142" clip-path="url(#clipPath1)" fill="none" width="271" height="3" stroke="rgb(48,48,48)" />
      <rect stroke-linecap="square" x="6" y="174" clip-path="url(#clipPath1)" fill="white" width="271" height="4" stroke="none" />
      <rect stroke-linecap="square" x="6" y="174" clip-path="url(#clipPath1)" fill="none" width="271" height="4" stroke="rgb(48,48,48)" />
    </g>
    <g font-size="17" fill="red" text-rendering="geometricPrecision" font-family="&apos;Arial&apos;" stroke="red" font-weight="bold">
      <rect x="23" y="133" clip-path="url(#clipPath2)" width="24" height="24" stroke="none" />
    </g>
    <g stroke-linecap="butt" font-size="17" fill="white" text-rendering="geometricPrecision" font-family="&apos;Arial&apos;" stroke="white" font-weight="bold" stroke-width="2">
      <rect x="23" y="133" clip-path="url(#clipPath2)" fill="none" width="24" height="24" />
      <rect x="23" y="133" clip-path="url(#clipPath2)" fill="none" width="24" height="24" stroke="red" />
      <text x="29" y="153" clip-path="url(#clipPath2)" fill="black" stroke="none" xml:space="preserve">R</text>
      <circle r="13" clip-path="url(#clipPath3)" cx="35" cy="80" stroke="none" />
      <circle fill="none" r="13" clip-path="url(#clipPath3)" cx="35" cy="80" />
    </g>
    <g stroke-linecap="butt" font-size="20" text-rendering="geometricPrecision" font-family="&apos;OpusText&apos;" font-weight="bold" stroke-width="2">
      <text xml:space="preserve" x="27" y="87" clip-path="url(#clipPath3)" stroke="none">b</text>
      <text x="34" font-size="16" y="86" clip-path="url(#clipPath3)" font-family="&apos;Arial&apos;" stroke="none" xml:space="preserve">7</text>
    </g>
    <g stroke-linecap="butt" font-size="16" fill="white" text-rendering="geometricPrecision" font-family="&apos;Arial&apos;" stroke="white" font-weight="bold" stroke-width="2">
      <circle r="13" clip-path="url(#clipPath4)" cx="141" cy="48" stroke="none" />
      <circle fill="none" r="13" clip-path="url(#clipPath4)" cx="141" cy="48" />
    </g>
    <g stroke-linecap="butt" font-size="20" text-rendering="geometricPrecision" font-family="&apos;OpusText&apos;" font-weight="bold" stroke-width="2">
      <text xml:space="preserve" x="131" y="60" clip-path="url(#clipPath4)" stroke="none">^</text>
      <text x="141" font-size="16" y="54" clip-path="url(#clipPath4)" font-family="&apos;Arial&apos;" stroke="none" xml:space="preserve">3</text>
    </g>
    <g stroke-linecap="butt" font-size="16" fill="white" text-rendering="geometricPrecision" font-family="&apos;Arial&apos;" stroke="white" font-weight="bold" stroke-width="2">
      <circle r="13" clip-path="url(#clipPath5)" cx="195" cy="112" stroke="none" />
      <circle fill="none" r="13" clip-path="url(#clipPath5)" cx="195" cy="112" />
    </g>
    <g stroke-linecap="butt" font-size="20" text-rendering="geometricPrecision" font-family="&apos;OpusText&apos;" font-weight="bold" stroke-width="2">
      <text xml:space="preserve" x="187" y="119" clip-path="url(#clipPath5)" stroke="none">#</text>
      <text x="195" font-size="16" y="118" clip-path="url(#clipPath5)" font-family="&apos;Arial&apos;" stroke="none" xml:space="preserve">5</text>
    </g>
    <g stroke-linecap="butt" fill="rgb(28,222,147)" text-rendering="geometricPrecision" font-family="&apos;Segoe UI&apos;" stroke="rgb(28,222,147)" stroke-width="2">
      <path d="M24.5 82 C12.0735 82 2 95.6553 2 112.5 C2 129.3447 12.0736 143 24.5 143 C17.0442 143 11 129.3447 11 112.5 C11 95.6553 17.0441 82 24.5 82" clip-path="url(#clipPath6)" fill-rule="evenodd" stroke="none" />
      <path d="M24.5 82 C12.0735 82 2 95.6553 2 112.5 C2 129.3447 12.0736 143 24.5 143 C17.0442 143 11 129.3447 11 112.5 C11 95.6553 17.0441 82 24.5 82" clip-path="url(#clipPath6)" fill-rule="evenodd" stroke="none" />
    </g>
  </g>
</svg>
