<?xml version="1.0" encoding="ISO-8859-1"?>

<!DOCTYPE svg PUBLIC '-//W3C//DTD SVG 1.0//EN' 'http://www.w3.org/TR/2001/REC-SVG-20010904/DTD/svg10.dtd'>
<svg stroke-dasharray="none" shape-rendering="auto" xmlns="http://www.w3.org/2000/svg" font-family="&apos;Dialog&apos;" width="278" text-rendering="auto" fill-opacity="1" contentScriptType="text/ecmascript" color-interpolation="auto" color-rendering="auto" preserveAspectRatio="xMidYMid meet" font-size="12" fill="black" xmlns:xlink="http://www.w3.org/1999/xlink" stroke="black" image-rendering="auto" stroke-miterlimit="10" zoomAndPan="magnify" version="1.0" stroke-linecap="square" stroke-linejoin="miter" contentStyleType="text/css" font-style="normal" height="192" stroke-width="1" stroke-dashoffset="0" font-weight="normal" stroke-opacity="1">
  <!--Generated by the Batik Graphics2D SVG Generator-->
  <defs id="genericDefs" />
  <g>
    <defs id="defs1">
      <clipPath clipPathUnits="userSpaceOnUse" id="clipPath1">
        <path d="M5 -1 L279 -1 L279 193 L5 193 L5 -1 Z" />
      </clipPath>
      <clipPath clipPathUnits="userSpaceOnUse" id="clipPath2">
        <path d="M19 96 L51 96 L51 128 L19 128 L19 96 Z" />
      </clipPath>
      <clipPath clipPathUnits="userSpaceOnUse" id="clipPath3">
        <path d="M19 32 L51 32 L51 64 L19 64 L19 32 Z" />
      </clipPath>
      <clipPath clipPathUnits="userSpaceOnUse" id="clipPath4">
        <path d="M72 161 L104 161 L104 193 L72 193 L72 161 Z" />
      </clipPath>
      <clipPath clipPathUnits="userSpaceOnUse" id="clipPath5">
        <path d="M72 64 L104 64 L104 96 L72 96 L72 64 Z" />
      </clipPath>
      <clipPath clipPathUnits="userSpaceOnUse" id="clipPath6">
        <path d="M-1 -1 L279 -1 L279 193 L-1 193 L-1 -1 Z" />
      </clipPath>
    </defs>
    <g fill="rgb(28,222,147)" text-rendering="optimizeLegibility" font-family="&apos;Segoe UI&apos;" stroke-linejoin="round" stroke="rgb(28,222,147)" stroke-width="0" stroke-miterlimit="0">
      <path d="M24.5 49.9999 C12.0736 50 2 63.4315 2 80 C2 96.5685 12.0736 110 24.5 109.9999 C17.0442 110 11 96.5685 11 80 C11 63.4315 17.0441 50 24.5 49.9999" fill-rule="evenodd" stroke="none" />
    </g>
    <g font-size="19" fill="rgb(14,14,14)" text-rendering="optimizeLegibility" font-family="&apos;Verdana&apos;" stroke-linejoin="round" stroke="rgb(14,14,14)" stroke-width="0" stroke-miterlimit="0">
      <rect x="6" y="16" clip-path="url(#clipPath1)" width="271" height="162" stroke="none" />
    </g>
    <g stroke-linecap="butt" font-size="19" fill="rgb(14,14,14)" text-rendering="optimizeLegibility" font-family="&apos;Verdana&apos;" stroke="rgb(14,14,14)">
      <rect x="6" y="16" clip-path="url(#clipPath1)" fill="none" width="271" height="162" />
      <rect x="6" y="16" clip-path="url(#clipPath1)" fill="gray" width="5" height="162" stroke="none" />
      <rect x="6" y="16" clip-path="url(#clipPath1)" fill="none" width="5" height="162" stroke="gray" />
      <rect x="59" y="16" clip-path="url(#clipPath1)" fill="gray" width="5" height="162" stroke="none" />
      <rect x="59" y="16" clip-path="url(#clipPath1)" fill="none" width="5" height="162" stroke="gray" />
      <rect x="112" y="16" clip-path="url(#clipPath1)" fill="gray" width="5" height="162" stroke="none" />
      <rect x="112" y="16" clip-path="url(#clipPath1)" fill="none" width="5" height="162" stroke="gray" />
      <rect x="165" y="16" clip-path="url(#clipPath1)" fill="gray" width="5" height="162" stroke="none" />
      <rect x="165" y="16" clip-path="url(#clipPath1)" fill="none" width="5" height="162" stroke="gray" />
      <rect x="218" y="16" clip-path="url(#clipPath1)" fill="gray" width="5" height="162" stroke="none" />
      <rect x="218" y="16" clip-path="url(#clipPath1)" fill="none" width="5" height="162" stroke="gray" />
      <rect x="272" y="16" clip-path="url(#clipPath1)" fill="gray" width="5" height="162" stroke="none" />
      <rect x="272" y="16" clip-path="url(#clipPath1)" fill="none" width="5" height="162" stroke="gray" />
      <line stroke-linecap="square" clip-path="url(#clipPath1)" fill="none" x1="6" x2="277" y1="16" y2="16" stroke="white" />
      <line stroke-linecap="square" clip-path="url(#clipPath1)" fill="none" x1="6" x2="277" y1="48" y2="48" stroke="white" />
      <line stroke-linecap="square" clip-path="url(#clipPath1)" fill="none" x1="6" x2="277" y1="80" y2="80" stroke="white" />
      <rect stroke-linecap="square" x="6" y="111" clip-path="url(#clipPath1)" fill="white" width="271" height="2" stroke="none" />
      <rect stroke-linecap="square" x="6" y="111" clip-path="url(#clipPath1)" fill="none" width="271" height="2" stroke="rgb(48,48,48)" />
      <rect stroke-linecap="square" x="6" y="142" clip-path="url(#clipPath1)" fill="white" width="271" height="3" stroke="none" />
      <rect stroke-linecap="square" x="6" y="142" clip-path="url(#clipPath1)" fill="none" width="271" height="3" stroke="rgb(48,48,48)" />
      <rect stroke-linecap="square" x="6" y="174" clip-path="url(#clipPath1)" fill="white" width="271" height="4" stroke="none" />
      <rect stroke-linecap="square" x="6" y="174" clip-path="url(#clipPath1)" fill="none" width="271" height="4" stroke="rgb(48,48,48)" />
    </g>
    <g font-size="17" fill="white" text-rendering="geometricPrecision" font-family="&apos;Arial&apos;" stroke="white" font-weight="bold">
      <rect x="23" y="100" clip-path="url(#clipPath2)" width="24" height="24" stroke="none" />
      <rect stroke-linecap="butt" x="23" y="100" clip-path="url(#clipPath2)" fill="none" width="24" height="24" stroke-width="2" />
      <rect stroke-linecap="butt" x="23" y="100" clip-path="url(#clipPath2)" fill="none" width="24" height="24" stroke-width="2" />
    </g>
    <g stroke-linecap="butt" font-size="21" text-rendering="geometricPrecision" font-family="&apos;OpusText&apos;" font-weight="bold" stroke-width="2">
      <text xml:space="preserve" x="24" y="121" clip-path="url(#clipPath2)" stroke="none">bb</text>
      <text x="36" font-size="17" y="120" clip-path="url(#clipPath2)" font-family="&apos;Arial&apos;" stroke="none" xml:space="preserve">7</text>
    </g>
    <g stroke-linecap="butt" font-size="17" fill="white" text-rendering="geometricPrecision" font-family="&apos;Arial&apos;" stroke="white" font-weight="bold" stroke-width="2">
      <rect x="23" y="36" clip-path="url(#clipPath3)" width="24" height="24" stroke="none" />
      <rect x="23" y="36" clip-path="url(#clipPath3)" fill="none" width="24" height="24" />
      <rect x="23" y="36" clip-path="url(#clipPath3)" fill="none" width="24" height="24" />
    </g>
    <g stroke-linecap="butt" font-size="21" text-rendering="geometricPrecision" font-family="&apos;OpusText&apos;" font-weight="bold" stroke-width="2">
      <text xml:space="preserve" x="26" y="57" clip-path="url(#clipPath3)" stroke="none">b</text>
      <text x="34" font-size="17" y="56" clip-path="url(#clipPath3)" font-family="&apos;Arial&apos;" stroke="none" xml:space="preserve">5</text>
    </g>
    <g stroke-linecap="butt" font-size="17" fill="red" text-rendering="geometricPrecision" font-family="&apos;Arial&apos;" stroke="red" font-weight="bold" stroke-width="2">
      <rect x="76" y="165" clip-path="url(#clipPath4)" width="24" height="24" stroke="none" />
      <rect x="76" y="165" clip-path="url(#clipPath4)" fill="none" width="24" height="24" stroke="white" />
      <rect x="76" y="165" clip-path="url(#clipPath4)" fill="none" width="24" height="24" />
      <text x="82" y="185" clip-path="url(#clipPath4)" fill="black" stroke="none" xml:space="preserve">R</text>
      <rect x="76" y="68" clip-path="url(#clipPath5)" fill="white" width="24" height="24" stroke="none" />
      <rect x="76" y="68" clip-path="url(#clipPath5)" fill="none" width="24" height="24" stroke="white" />
      <rect x="76" y="68" clip-path="url(#clipPath5)" fill="none" width="24" height="24" stroke="white" />
    </g>
    <g stroke-linecap="butt" font-size="21" text-rendering="geometricPrecision" font-family="&apos;OpusText&apos;" font-weight="bold" stroke-width="2">
      <text xml:space="preserve" x="79" y="89" clip-path="url(#clipPath5)" stroke="none">b</text>
      <text x="87" font-size="17" y="88" clip-path="url(#clipPath5)" font-family="&apos;Arial&apos;" stroke="none" xml:space="preserve">3</text>
    </g>
    <g stroke-linecap="butt" fill="rgb(28,222,147)" text-rendering="geometricPrecision" font-family="&apos;Segoe UI&apos;" stroke="rgb(28,222,147)" stroke-width="2">
      <path d="M24.5 49.9999 C12.0736 50 2 63.4315 2 80 C2 96.5685 12.0736 110 24.5 109.9999 C17.0442 110 11 96.5685 11 80 C11 63.4315 17.0441 50 24.5 49.9999" clip-path="url(#clipPath6)" fill-rule="evenodd" stroke="none" />
    </g>
  </g>
</svg>
