<?xml version="1.0" encoding="ISO-8859-1"?>

<!DOCTYPE svg PUBLIC '-//W3C//DTD SVG 1.0//EN' 'http://www.w3.org/TR/2001/REC-SVG-20010904/DTD/svg10.dtd'>
<svg stroke-dasharray="none" shape-rendering="auto" xmlns="http://www.w3.org/2000/svg" font-family="&apos;Dialog&apos;" width="272" text-rendering="auto" fill-opacity="1" contentScriptType="text/ecmascript" color-interpolation="auto" color-rendering="auto" preserveAspectRatio="xMidYMid meet" font-size="12" fill="black" xmlns:xlink="http://www.w3.org/1999/xlink" stroke="black" image-rendering="auto" stroke-miterlimit="10" zoomAndPan="magnify" version="1.0" stroke-linecap="square" stroke-linejoin="miter" contentStyleType="text/css" font-style="normal" height="192" stroke-width="1" stroke-dashoffset="0" font-weight="normal" stroke-opacity="1">
  <!--Generated by the Batik Graphics2D SVG Generator-->
  <defs id="genericDefs" />
  <g>
    <defs id="defs1">
      <clipPath clipPathUnits="userSpaceOnUse" id="clipPath1">
        <path d="M81 129 L113 129 L113 161 L81 161 L81 129 Z" />
      </clipPath>
      <clipPath clipPathUnits="userSpaceOnUse" id="clipPath2">
        <path d="M119 96 L151 96 L151 128 L119 128 L119 96 Z" />
      </clipPath>
      <clipPath clipPathUnits="userSpaceOnUse" id="clipPath3">
        <path d="M158 32 L190 32 L190 64 L158 64 L158 32 Z" />
      </clipPath>
      <clipPath clipPathUnits="userSpaceOnUse" id="clipPath4">
        <path d="M196 0 L228 0 L228 32 L196 32 L196 0 Z" />
      </clipPath>
    </defs>
    <g font-size="19" fill="rgb(14,14,14)" text-rendering="optimizeLegibility" font-family="&apos;Verdana&apos;" stroke-linejoin="round" stroke="rgb(14,14,14)" stroke-width="0" stroke-miterlimit="0">
      <rect width="271" x="0" height="162" y="16" stroke="none" />
    </g>
    <g stroke-linecap="butt" font-size="19" fill="rgb(14,14,14)" text-rendering="optimizeLegibility" font-family="&apos;Verdana&apos;" stroke="rgb(14,14,14)">
      <rect fill="none" width="271" x="0" height="162" y="16" />
      <rect x="0" y="16" fill="gray" width="3" height="162" stroke="none" />
      <rect x="0" y="16" fill="none" width="3" height="162" stroke="gray" />
      <rect x="38" y="16" fill="gray" width="3" height="162" stroke="none" />
      <rect x="38" y="16" fill="none" width="3" height="162" stroke="gray" />
      <rect x="76" y="16" fill="gray" width="3" height="162" stroke="none" />
      <rect x="76" y="16" fill="none" width="3" height="162" stroke="gray" />
      <rect x="114" y="16" fill="gray" width="3" height="162" stroke="none" />
      <rect x="114" y="16" fill="none" width="3" height="162" stroke="gray" />
      <rect x="153" y="16" fill="gray" width="3" height="162" stroke="none" />
      <rect x="153" y="16" fill="none" width="3" height="162" stroke="gray" />
      <rect x="191" y="16" fill="gray" width="3" height="162" stroke="none" />
      <rect x="191" y="16" fill="none" width="3" height="162" stroke="gray" />
      <rect x="229" y="16" fill="gray" width="3" height="162" stroke="none" />
      <rect x="229" y="16" fill="none" width="3" height="162" stroke="gray" />
      <rect x="268" y="16" fill="gray" width="3" height="162" stroke="none" />
      <rect x="268" y="16" fill="none" width="3" height="162" stroke="gray" />
      <line stroke-linecap="square" fill="none" x1="0" x2="271" y1="16" y2="16" stroke="white" />
      <line stroke-linecap="square" fill="none" x1="0" x2="271" y1="48" y2="48" stroke="white" />
      <line stroke-linecap="square" fill="none" x1="0" x2="271" y1="80" y2="80" stroke="white" />
      <rect stroke-linecap="square" x="0" y="111" fill="white" width="271" height="2" stroke="none" />
      <rect stroke-linecap="square" x="0" y="111" fill="none" width="271" height="2" stroke="rgb(48,48,48)" />
      <rect stroke-linecap="square" x="0" y="142" fill="white" width="271" height="3" stroke="none" />
      <rect stroke-linecap="square" x="0" y="142" fill="none" width="271" height="3" stroke="rgb(48,48,48)" />
      <rect stroke-linecap="square" x="0" y="174" fill="white" width="271" height="4" stroke="none" />
      <rect stroke-linecap="square" x="0" y="174" fill="none" width="271" height="4" stroke="rgb(48,48,48)" />
    </g>
    <g font-size="17" fill="rgb(255,3,1)" text-rendering="geometricPrecision" font-family="&apos;Arial&apos;" stroke="rgb(255,3,1)" font-weight="bold">
      <circle r="13" clip-path="url(#clipPath1)" cx="97" cy="145" stroke="none" />
      <circle stroke-linecap="butt" clip-path="url(#clipPath1)" fill="none" r="13" cx="97" cy="145" stroke-width="2" />
    </g>
    <g stroke-linecap="butt" font-size="17" text-rendering="geometricPrecision" font-family="&apos;Arial&apos;" font-weight="bold" stroke-width="2">
      <text xml:space="preserve" x="91" y="152" clip-path="url(#clipPath1)" stroke="none">R</text>
      <circle clip-path="url(#clipPath2)" fill="white" r="13" cx="135" cy="112" stroke="none" />
      <circle clip-path="url(#clipPath2)" fill="none" r="13" cx="135" cy="112" stroke="white" />
      <text x="127" font-size="20" y="119" clip-path="url(#clipPath2)" font-family="&apos;OpusText&apos;" stroke="none" xml:space="preserve">b</text>
      <text x="134" font-size="16" y="118" clip-path="url(#clipPath2)" stroke="none" xml:space="preserve">5</text>
      <circle clip-path="url(#clipPath3)" fill="white" r="13" cx="174" cy="48" stroke="none" />
      <circle clip-path="url(#clipPath3)" fill="none" r="13" cx="174" cy="48" stroke="white" />
      <text x="164" font-size="20" y="60" clip-path="url(#clipPath3)" font-family="&apos;OpusText&apos;" stroke="none" xml:space="preserve">^</text>
      <text x="174" font-size="16" y="54" clip-path="url(#clipPath3)" stroke="none" xml:space="preserve">3</text>
      <circle clip-path="url(#clipPath4)" fill="white" r="13" cx="212" cy="16" stroke="none" />
      <circle clip-path="url(#clipPath4)" fill="none" r="13" cx="212" cy="16" stroke="white" />
      <text x="204" font-size="20" y="23" clip-path="url(#clipPath4)" font-family="&apos;OpusText&apos;" stroke="none" xml:space="preserve">b</text>
      <text x="211" font-size="16" y="22" clip-path="url(#clipPath4)" stroke="none" xml:space="preserve">7</text>
    </g>
  </g>
</svg>
