<?xml version="1.0" encoding="ISO-8859-1"?>

<!DOCTYPE svg PUBLIC '-//W3C//DTD SVG 1.0//EN' 'http://www.w3.org/TR/2001/REC-SVG-20010904/DTD/svg10.dtd'>
<svg stroke-dasharray="none" shape-rendering="auto" xmlns="http://www.w3.org/2000/svg" font-family="&apos;Dialog&apos;" width="285" text-rendering="auto" fill-opacity="1" contentScriptType="text/ecmascript" color-interpolation="auto" color-rendering="auto" preserveAspectRatio="xMidYMid meet" font-size="12" fill="black" xmlns:xlink="http://www.w3.org/1999/xlink" stroke="black" image-rendering="auto" stroke-miterlimit="10" zoomAndPan="magnify" version="1.0" stroke-linecap="square" stroke-linejoin="miter" contentStyleType="text/css" font-style="normal" height="192" stroke-width="1" stroke-dashoffset="0" font-weight="normal" stroke-opacity="1">
  <!--Generated by the Batik Graphics2D SVG Generator-->
  <defs id="genericDefs" />
  <g>
    <defs id="defs1">
      <clipPath clipPathUnits="userSpaceOnUse" id="clipPath1">
        <path d="M12 -1 L286 -1 L286 193 L12 193 L12 -1 Z" />
      </clipPath>
      <clipPath clipPathUnits="userSpaceOnUse" id="clipPath2">
        <path d="M26 161 L58 161 L58 193 L26 193 L26 161 Z" />
      </clipPath>
      <clipPath clipPathUnits="userSpaceOnUse" id="clipPath3">
        <path d="M26 96 L58 96 L58 128 L26 128 L26 96 Z" />
      </clipPath>
      <clipPath clipPathUnits="userSpaceOnUse" id="clipPath4">
        <path d="M26 0 L58 0 L58 32 L26 32 L26 0 Z" />
      </clipPath>
      <clipPath clipPathUnits="userSpaceOnUse" id="clipPath5">
        <path d="M26 32 L58 32 L58 64 L26 64 L26 32 Z" />
      </clipPath>
      <clipPath clipPathUnits="userSpaceOnUse" id="clipPath6">
        <path d="M132 129 L164 129 L164 161 L132 161 L132 129 Z" />
      </clipPath>
      <clipPath clipPathUnits="userSpaceOnUse" id="clipPath7">
        <path d="M132 64 L164 64 L164 96 L132 96 L132 64 Z" />
      </clipPath>
      <clipPath clipPathUnits="userSpaceOnUse" id="clipPath8">
        <path d="M-1 -1 L286 -1 L286 193 L-1 193 L-1 -1 Z" />
      </clipPath>
    </defs>
    <g fill="rgb(28,222,147)" text-rendering="optimizeLegibility" font-family="&apos;Segoe UI&apos;" stroke-linejoin="round" stroke="rgb(28,222,147)" stroke-width="0" stroke-miterlimit="0">
      <path d="M29 18 C14.0883 18 2 53.1457 2 96.5001 C2 139.8544 14.0883 175 29 175 C20.1635 175 13 139.8544 13 96.5 C13 53.1457 20.1634 18 29 18" fill-rule="evenodd" stroke="none" />
    </g>
    <g font-size="19" fill="rgb(14,14,14)" text-rendering="optimizeLegibility" font-family="&apos;Verdana&apos;" stroke-linejoin="round" stroke="rgb(14,14,14)" stroke-width="0" stroke-miterlimit="0">
      <rect x="13" y="16" clip-path="url(#clipPath1)" width="271" height="162" stroke="none" />
    </g>
    <g stroke-linecap="butt" font-size="19" fill="rgb(14,14,14)" text-rendering="optimizeLegibility" font-family="&apos;Verdana&apos;" stroke="rgb(14,14,14)">
      <rect x="13" y="16" clip-path="url(#clipPath1)" fill="none" width="271" height="162" />
      <rect x="13" y="16" clip-path="url(#clipPath1)" fill="gray" width="5" height="162" stroke="none" />
      <rect x="13" y="16" clip-path="url(#clipPath1)" fill="none" width="5" height="162" stroke="gray" />
      <rect x="66" y="16" clip-path="url(#clipPath1)" fill="gray" width="5" height="162" stroke="none" />
      <rect x="66" y="16" clip-path="url(#clipPath1)" fill="none" width="5" height="162" stroke="gray" />
      <rect x="119" y="16" clip-path="url(#clipPath1)" fill="gray" width="5" height="162" stroke="none" />
      <rect x="119" y="16" clip-path="url(#clipPath1)" fill="none" width="5" height="162" stroke="gray" />
      <rect x="172" y="16" clip-path="url(#clipPath1)" fill="gray" width="5" height="162" stroke="none" />
      <rect x="172" y="16" clip-path="url(#clipPath1)" fill="none" width="5" height="162" stroke="gray" />
      <rect x="225" y="16" clip-path="url(#clipPath1)" fill="gray" width="5" height="162" stroke="none" />
      <rect x="225" y="16" clip-path="url(#clipPath1)" fill="none" width="5" height="162" stroke="gray" />
      <rect x="279" y="16" clip-path="url(#clipPath1)" fill="gray" width="5" height="162" stroke="none" />
      <rect x="279" y="16" clip-path="url(#clipPath1)" fill="none" width="5" height="162" stroke="gray" />
      <line stroke-linecap="square" clip-path="url(#clipPath1)" fill="none" x1="13" x2="284" y1="16" y2="16" stroke="white" />
      <line stroke-linecap="square" clip-path="url(#clipPath1)" fill="none" x1="13" x2="284" y1="48" y2="48" stroke="white" />
      <line stroke-linecap="square" clip-path="url(#clipPath1)" fill="none" x1="13" x2="284" y1="80" y2="80" stroke="white" />
      <rect stroke-linecap="square" x="13" y="111" clip-path="url(#clipPath1)" fill="white" width="271" height="2" stroke="none" />
      <rect stroke-linecap="square" x="13" y="111" clip-path="url(#clipPath1)" fill="none" width="271" height="2" stroke="rgb(48,48,48)" />
      <rect stroke-linecap="square" x="13" y="142" clip-path="url(#clipPath1)" fill="white" width="271" height="3" stroke="none" />
      <rect stroke-linecap="square" x="13" y="142" clip-path="url(#clipPath1)" fill="none" width="271" height="3" stroke="rgb(48,48,48)" />
      <rect stroke-linecap="square" x="13" y="174" clip-path="url(#clipPath1)" fill="white" width="271" height="4" stroke="none" />
      <rect stroke-linecap="square" x="13" y="174" clip-path="url(#clipPath1)" fill="none" width="271" height="4" stroke="rgb(48,48,48)" />
    </g>
    <g font-size="17" fill="red" text-rendering="geometricPrecision" font-family="&apos;Arial&apos;" stroke="red" font-weight="bold">
      <rect x="30" y="165" clip-path="url(#clipPath2)" width="24" height="24" stroke="none" />
    </g>
    <g stroke-linecap="butt" font-size="17" fill="white" text-rendering="geometricPrecision" font-family="&apos;Arial&apos;" stroke="white" font-weight="bold" stroke-width="2">
      <rect x="30" y="165" clip-path="url(#clipPath2)" fill="none" width="24" height="24" />
      <rect x="30" y="165" clip-path="url(#clipPath2)" fill="none" width="24" height="24" stroke="red" />
      <text x="36" y="185" clip-path="url(#clipPath2)" fill="black" stroke="none" xml:space="preserve">R</text>
      <circle r="13" clip-path="url(#clipPath3)" cx="42" cy="112" stroke="none" />
      <circle fill="none" r="13" clip-path="url(#clipPath3)" cx="42" cy="112" />
    </g>
    <g stroke-linecap="butt" font-size="20" text-rendering="geometricPrecision" font-family="&apos;OpusText&apos;" font-weight="bold" stroke-width="2">
      <text xml:space="preserve" x="34" y="119" clip-path="url(#clipPath3)" stroke="none">b</text>
      <text x="41" font-size="16" y="118" clip-path="url(#clipPath3)" font-family="&apos;Arial&apos;" stroke="none" xml:space="preserve">7</text>
    </g>
    <g stroke-linecap="butt" font-size="17" fill="red" text-rendering="geometricPrecision" font-family="&apos;Arial&apos;" stroke="red" font-weight="bold" stroke-width="2">
      <rect x="30" y="4" clip-path="url(#clipPath4)" width="24" height="24" stroke="none" />
      <rect x="30" y="4" clip-path="url(#clipPath4)" fill="none" width="24" height="24" stroke="white" />
      <rect x="30" y="4" clip-path="url(#clipPath4)" fill="none" width="24" height="24" />
      <text x="36" y="24" clip-path="url(#clipPath4)" fill="black" stroke="none" xml:space="preserve">R</text>
      <circle clip-path="url(#clipPath5)" fill="white" r="13" cx="42" cy="48" stroke="none" />
      <circle clip-path="url(#clipPath5)" fill="none" r="13" cx="42" cy="48" stroke="white" />
      <text x="32" font-size="16" y="53" clip-path="url(#clipPath5)" fill="black" stroke="none" xml:space="preserve">p5</text>
      <circle clip-path="url(#clipPath6)" fill="white" r="13" cx="148" cy="145" stroke="none" />
      <circle clip-path="url(#clipPath6)" fill="none" r="13" cx="148" cy="145" stroke="white" />
      <text x="138" font-size="16" y="150" clip-path="url(#clipPath6)" fill="black" stroke="none" xml:space="preserve">p5</text>
      <circle clip-path="url(#clipPath7)" fill="white" r="13" cx="148" cy="80" stroke="none" />
      <circle clip-path="url(#clipPath7)" fill="none" r="13" cx="148" cy="80" stroke="white" />
      <text x="138" font-size="16" y="85" clip-path="url(#clipPath7)" fill="black" stroke="none" xml:space="preserve">p4</text>
    </g>
    <g stroke-linecap="butt" fill="rgb(28,222,147)" text-rendering="geometricPrecision" font-family="&apos;Segoe UI&apos;" stroke="rgb(28,222,147)" stroke-width="2">
      <path d="M29 18 C14.0883 18 2 53.1457 2 96.5001 C2 139.8544 14.0883 175 29 175 C20.1635 175 13 139.8544 13 96.5 C13 53.1457 20.1634 18 29 18" clip-path="url(#clipPath8)" fill-rule="evenodd" stroke="none" />
    </g>
  </g>
</svg>
