<?xml version="1.0" encoding="ISO-8859-1"?>

<!DOCTYPE svg PUBLIC '-//W3C//DTD SVG 1.0//EN' 'http://www.w3.org/TR/2001/REC-SVG-20010904/DTD/svg10.dtd'>
<svg stroke-dasharray="none" shape-rendering="auto" xmlns="http://www.w3.org/2000/svg" font-family="&apos;Dialog&apos;" width="278" text-rendering="auto" fill-opacity="1" contentScriptType="text/ecmascript" color-interpolation="auto" color-rendering="auto" preserveAspectRatio="xMidYMid meet" font-size="12" fill="black" xmlns:xlink="http://www.w3.org/1999/xlink" stroke="black" image-rendering="auto" stroke-miterlimit="10" zoomAndPan="magnify" version="1.0" stroke-linecap="square" stroke-linejoin="miter" contentStyleType="text/css" font-style="normal" height="192" stroke-width="1" stroke-dashoffset="0" font-weight="normal" stroke-opacity="1">
  <!--Generated by the Batik Graphics2D SVG Generator-->
  <defs id="genericDefs" />
  <g>
    <defs id="defs1">
      <clipPath clipPathUnits="userSpaceOnUse" id="clipPath1">
        <path d="M5 -1 L279 -1 L279 193 L5 193 L5 -1 Z" />
      </clipPath>
      <clipPath clipPathUnits="userSpaceOnUse" id="clipPath2">
        <path d="M72 161 L104 161 L104 193 L72 193 L72 161 Z" />
      </clipPath>
      <clipPath clipPathUnits="userSpaceOnUse" id="clipPath3">
        <path d="M19 129 L51 129 L51 161 L19 161 L19 129 Z" />
      </clipPath>
      <clipPath clipPathUnits="userSpaceOnUse" id="clipPath4">
        <path d="M19 96 L51 96 L51 128 L19 128 L19 96 Z" />
      </clipPath>
      <clipPath clipPathUnits="userSpaceOnUse" id="clipPath5">
        <path d="M19 64 L51 64 L51 96 L19 96 L19 64 Z" />
      </clipPath>
      <clipPath clipPathUnits="userSpaceOnUse" id="clipPath6">
        <path d="M72 32 L104 32 L104 64 L72 64 L72 32 Z" />
      </clipPath>
      <clipPath clipPathUnits="userSpaceOnUse" id="clipPath7">
        <path d="M72 0 L104 0 L104 32 L72 32 L72 0 Z" />
      </clipPath>
      <clipPath clipPathUnits="userSpaceOnUse" id="clipPath8">
        <path d="M-1 -1 L279 -1 L279 193 L-1 193 L-1 -1 Z" />
      </clipPath>
    </defs>
    <g fill="rgb(28,222,147)" text-rendering="optimizeLegibility" font-family="&apos;Segoe UI&apos;" stroke-linejoin="round" stroke="rgb(28,222,147)" stroke-width="0" stroke-miterlimit="0">
      <path d="M77.9999 18 C66.9542 18 57.9999 24.268 58 32 C58 39.732 66.9543 46 78 46 C71.3726 46 66 39.732 65.9999 32 C65.9999 24.268 71.3726 18 77.9999 18" fill-rule="evenodd" stroke="none" />
    </g>
    <g font-size="19" fill="rgb(14,14,14)" text-rendering="optimizeLegibility" font-family="&apos;Verdana&apos;" stroke-linejoin="round" stroke="rgb(14,14,14)" stroke-width="0" stroke-miterlimit="0">
      <rect x="6" y="16" clip-path="url(#clipPath1)" width="271" height="162" stroke="none" />
    </g>
    <g stroke-linecap="butt" font-size="19" fill="rgb(14,14,14)" text-rendering="optimizeLegibility" font-family="&apos;Verdana&apos;" stroke="rgb(14,14,14)">
      <rect x="6" y="16" clip-path="url(#clipPath1)" fill="none" width="271" height="162" />
      <rect x="6" y="16" clip-path="url(#clipPath1)" fill="gray" width="5" height="162" stroke="none" />
      <rect x="6" y="16" clip-path="url(#clipPath1)" fill="none" width="5" height="162" stroke="gray" />
      <rect x="59" y="16" clip-path="url(#clipPath1)" fill="gray" width="5" height="162" stroke="none" />
      <rect x="59" y="16" clip-path="url(#clipPath1)" fill="none" width="5" height="162" stroke="gray" />
      <rect x="112" y="16" clip-path="url(#clipPath1)" fill="gray" width="5" height="162" stroke="none" />
      <rect x="112" y="16" clip-path="url(#clipPath1)" fill="none" width="5" height="162" stroke="gray" />
      <rect x="165" y="16" clip-path="url(#clipPath1)" fill="gray" width="5" height="162" stroke="none" />
      <rect x="165" y="16" clip-path="url(#clipPath1)" fill="none" width="5" height="162" stroke="gray" />
      <rect x="218" y="16" clip-path="url(#clipPath1)" fill="gray" width="5" height="162" stroke="none" />
      <rect x="218" y="16" clip-path="url(#clipPath1)" fill="none" width="5" height="162" stroke="gray" />
      <rect x="272" y="16" clip-path="url(#clipPath1)" fill="gray" width="5" height="162" stroke="none" />
      <rect x="272" y="16" clip-path="url(#clipPath1)" fill="none" width="5" height="162" stroke="gray" />
      <line stroke-linecap="square" clip-path="url(#clipPath1)" fill="none" x1="6" x2="277" y1="16" y2="16" stroke="white" />
      <line stroke-linecap="square" clip-path="url(#clipPath1)" fill="none" x1="6" x2="277" y1="48" y2="48" stroke="white" />
      <line stroke-linecap="square" clip-path="url(#clipPath1)" fill="none" x1="6" x2="277" y1="80" y2="80" stroke="white" />
      <rect stroke-linecap="square" x="6" y="111" clip-path="url(#clipPath1)" fill="white" width="271" height="2" stroke="none" />
      <rect stroke-linecap="square" x="6" y="111" clip-path="url(#clipPath1)" fill="none" width="271" height="2" stroke="rgb(48,48,48)" />
      <rect stroke-linecap="square" x="6" y="142" clip-path="url(#clipPath1)" fill="white" width="271" height="3" stroke="none" />
      <rect stroke-linecap="square" x="6" y="142" clip-path="url(#clipPath1)" fill="none" width="271" height="3" stroke="rgb(48,48,48)" />
      <rect stroke-linecap="square" x="6" y="174" clip-path="url(#clipPath1)" fill="white" width="271" height="4" stroke="none" />
      <rect stroke-linecap="square" x="6" y="174" clip-path="url(#clipPath1)" fill="none" width="271" height="4" stroke="rgb(48,48,48)" />
    </g>
    <g font-size="17" fill="red" text-rendering="geometricPrecision" font-family="&apos;Arial&apos;" stroke="red" font-weight="bold">
      <rect x="76" y="165" clip-path="url(#clipPath2)" width="24" height="24" stroke="none" />
    </g>
    <g stroke-linecap="butt" font-size="17" fill="white" text-rendering="geometricPrecision" font-family="&apos;Arial&apos;" stroke="white" font-weight="bold" stroke-width="2">
      <rect x="76" y="165" clip-path="url(#clipPath2)" fill="none" width="24" height="24" />
      <rect x="76" y="165" clip-path="url(#clipPath2)" fill="none" width="24" height="24" stroke="red" />
      <text x="82" y="185" clip-path="url(#clipPath2)" fill="rgb(13,14,13)" stroke="none" xml:space="preserve">R</text>
      <circle clip-path="url(#clipPath3)" fill="rgb(254,255,254)" r="13" cx="35" cy="145" stroke="none" />
      <circle clip-path="url(#clipPath3)" fill="none" r="13" cx="35" cy="145" stroke="rgb(254,255,254)" />
    </g>
    <g stroke-linecap="butt" font-size="20" fill="rgb(13,14,13)" text-rendering="geometricPrecision" font-family="&apos;OpusText&apos;" stroke="rgb(13,14,13)" font-weight="bold" stroke-width="2">
      <text xml:space="preserve" x="25" y="157" clip-path="url(#clipPath3)" stroke="none">^</text>
      <text x="35" font-size="16" y="151" clip-path="url(#clipPath3)" font-family="&apos;Arial&apos;" stroke="none" xml:space="preserve">3</text>
    </g>
    <g stroke-linecap="butt" font-size="16" fill="rgb(254,255,254)" text-rendering="geometricPrecision" font-family="&apos;Arial&apos;" stroke="rgb(254,255,254)" font-weight="bold" stroke-width="2">
      <circle r="13" clip-path="url(#clipPath4)" cx="35" cy="112" stroke="none" />
      <circle fill="none" r="13" clip-path="url(#clipPath4)" cx="35" cy="112" />
    </g>
    <g stroke-linecap="butt" font-size="20" fill="rgb(13,14,13)" text-rendering="geometricPrecision" font-family="&apos;OpusText&apos;" stroke="rgb(13,14,13)" font-weight="bold" stroke-width="2">
      <text xml:space="preserve" x="25" y="124" clip-path="url(#clipPath4)" stroke="none">^</text>
      <text x="35" font-size="16" y="118" clip-path="url(#clipPath4)" font-family="&apos;Arial&apos;" stroke="none" xml:space="preserve">6</text>
    </g>
    <g stroke-linecap="butt" font-size="17" fill="rgb(254,255,254)" text-rendering="geometricPrecision" font-family="&apos;Arial&apos;" stroke="rgb(254,255,254)" font-weight="bold" stroke-width="2">
      <circle r="13" clip-path="url(#clipPath5)" cx="35" cy="80" stroke="none" />
      <circle fill="none" r="13" clip-path="url(#clipPath5)" cx="35" cy="80" />
      <text x="30" y="87" clip-path="url(#clipPath5)" fill="rgb(13,14,13)" stroke="none" xml:space="preserve">9</text>
      <circle r="13" clip-path="url(#clipPath6)" cx="88" cy="48" stroke="none" />
      <circle fill="none" r="13" clip-path="url(#clipPath6)" cx="88" cy="48" />
      <text x="78" font-size="16" y="53" clip-path="url(#clipPath6)" fill="rgb(13,14,13)" stroke="none" xml:space="preserve">p5</text>
      <rect x="76" y="4" clip-path="url(#clipPath7)" fill="red" width="24" height="24" stroke="none" />
      <rect x="76" y="4" clip-path="url(#clipPath7)" fill="none" width="24" height="24" stroke="white" />
      <rect x="76" y="4" clip-path="url(#clipPath7)" fill="none" width="24" height="24" stroke="red" />
      <text x="82" y="24" clip-path="url(#clipPath7)" fill="rgb(13,14,13)" stroke="none" xml:space="preserve">R</text>
    </g>
    <g stroke-linecap="butt" fill="rgb(28,222,147)" text-rendering="geometricPrecision" font-family="&apos;Segoe UI&apos;" stroke="rgb(28,222,147)" stroke-width="2">
      <path d="M24.4999 82 C12.0735 82 1.9999 95.6553 2 112.5 C2 129.3447 12.0736 143 24.5 143 C17.0441 143 11 129.3447 10.9999 112.5 C10.9999 95.6553 17.0441 82 24.4999 82" clip-path="url(#clipPath8)" fill-rule="evenodd" stroke="none" />
      <path d="M77.9999 18 C66.9542 18 57.9999 24.268 58 32 C58 39.732 66.9543 46 78 46 C71.3726 46 66 39.732 65.9999 32 C65.9999 24.268 71.3726 18 77.9999 18" clip-path="url(#clipPath8)" fill-rule="evenodd" stroke="none" />
      <path d="M24.4999 82 C12.0735 82 1.9999 95.6553 2 112.5 C2 129.3447 12.0736 143 24.5 143 C17.0441 143 11 129.3447 10.9999 112.5 C10.9999 95.6553 17.0441 82 24.4999 82" clip-path="url(#clipPath8)" fill-rule="evenodd" stroke="none" />
    </g>
  </g>
</svg>
