<?xml version="1.0" encoding="ISO-8859-1"?>

<!DOCTYPE svg PUBLIC '-//W3C//DTD SVG 1.0//EN' 'http://www.w3.org/TR/2001/REC-SVG-20010904/DTD/svg10.dtd'>
<svg stroke-dasharray="none" shape-rendering="auto" xmlns="http://www.w3.org/2000/svg" font-family="&apos;Dialog&apos;" width="283" text-rendering="auto" fill-opacity="1" contentScriptType="text/ecmascript" color-interpolation="auto" color-rendering="auto" preserveAspectRatio="xMidYMid meet" font-size="12" fill="black" xmlns:xlink="http://www.w3.org/1999/xlink" stroke="black" image-rendering="auto" stroke-miterlimit="10" zoomAndPan="magnify" version="1.0" stroke-linecap="square" stroke-linejoin="miter" contentStyleType="text/css" font-style="normal" height="192" stroke-width="1" stroke-dashoffset="0" font-weight="normal" stroke-opacity="1">
  <!--Generated by the Batik Graphics2D SVG Generator-->
  <defs id="genericDefs" />
  <g>
    <defs id="defs1">
      <clipPath clipPathUnits="userSpaceOnUse" id="clipPath1">
        <path d="M10 -1 L284 -1 L284 193 L10 193 L10 -1 Z" />
      </clipPath>
      <clipPath clipPathUnits="userSpaceOnUse" id="clipPath2">
        <path d="M130 129 L162 129 L162 161 L130 161 L130 129 Z" />
      </clipPath>
      <clipPath clipPathUnits="userSpaceOnUse" id="clipPath3">
        <path d="M77 96 L109 96 L109 128 L77 128 L77 96 Z" />
      </clipPath>
      <clipPath clipPathUnits="userSpaceOnUse" id="clipPath4">
        <path d="M24 32 L56 32 L56 64 L24 64 L24 32 Z" />
      </clipPath>
      <clipPath clipPathUnits="userSpaceOnUse" id="clipPath5">
        <path d="M24 64 L56 64 L56 96 L24 96 L24 64 Z" />
      </clipPath>
      <clipPath clipPathUnits="userSpaceOnUse" id="clipPath6">
        <path d="M24 161 L56 161 L56 193 L24 193 L24 161 Z" />
      </clipPath>
      <clipPath clipPathUnits="userSpaceOnUse" id="clipPath7">
        <path d="M130 0 L162 0 L162 32 L130 32 L130 0 Z" />
      </clipPath>
      <clipPath clipPathUnits="userSpaceOnUse" id="clipPath8">
        <path d="M-1 -1 L284 -1 L284 193 L-1 193 L-1 -1 Z" />
      </clipPath>
    </defs>
    <g fill="rgb(28,222,147)" text-rendering="optimizeLegibility" font-family="&apos;Segoe UI&apos;" stroke-linejoin="round" stroke="rgb(28,222,147)" stroke-width="0" stroke-miterlimit="0">
      <path d="M27.9999 50 C13.6406 50 1.9999 77.9822 2 112.5001 C2 147.0178 13.6406 175 28 175 C19.7157 175 13 147.0178 12.9999 112.5 C12.9999 77.9822 19.7157 50 27.9999 50" fill-rule="evenodd" stroke="none" />
      <path d="M-315 81.5 C-315 69.0736 -321.268 59 -329 59 C-336.732 59 -343 69.0736 -343 81.5 C-343 81.5 -343 81.5 -343 81.5 C-343 74.0442 -336.732 68 -329 68 C-321.2681 68 -315 74.0441 -315 81.5 C-315 81.5 -315 81.5 -315 81.5" fill-rule="evenodd" stroke="none" />
    </g>
    <g font-size="19" fill="rgb(14,14,14)" text-rendering="optimizeLegibility" font-family="&apos;Verdana&apos;" stroke-linejoin="round" stroke="rgb(14,14,14)" stroke-width="0" stroke-miterlimit="0">
      <rect x="11" y="16" clip-path="url(#clipPath1)" width="271" height="162" stroke="none" />
    </g>
    <g stroke-linecap="butt" font-size="19" fill="rgb(14,14,14)" text-rendering="optimizeLegibility" font-family="&apos;Verdana&apos;" stroke="rgb(14,14,14)">
      <rect x="11" y="16" clip-path="url(#clipPath1)" fill="none" width="271" height="162" />
      <rect x="11" y="16" clip-path="url(#clipPath1)" fill="gray" width="5" height="162" stroke="none" />
      <rect x="11" y="16" clip-path="url(#clipPath1)" fill="none" width="5" height="162" stroke="gray" />
      <rect x="64" y="16" clip-path="url(#clipPath1)" fill="gray" width="5" height="162" stroke="none" />
      <rect x="64" y="16" clip-path="url(#clipPath1)" fill="none" width="5" height="162" stroke="gray" />
      <rect x="117" y="16" clip-path="url(#clipPath1)" fill="gray" width="5" height="162" stroke="none" />
      <rect x="117" y="16" clip-path="url(#clipPath1)" fill="none" width="5" height="162" stroke="gray" />
      <rect x="170" y="16" clip-path="url(#clipPath1)" fill="gray" width="5" height="162" stroke="none" />
      <rect x="170" y="16" clip-path="url(#clipPath1)" fill="none" width="5" height="162" stroke="gray" />
      <rect x="223" y="16" clip-path="url(#clipPath1)" fill="gray" width="5" height="162" stroke="none" />
      <rect x="223" y="16" clip-path="url(#clipPath1)" fill="none" width="5" height="162" stroke="gray" />
      <rect x="277" y="16" clip-path="url(#clipPath1)" fill="gray" width="5" height="162" stroke="none" />
      <rect x="277" y="16" clip-path="url(#clipPath1)" fill="none" width="5" height="162" stroke="gray" />
      <line stroke-linecap="square" clip-path="url(#clipPath1)" fill="none" x1="11" x2="282" y1="16" y2="16" stroke="white" />
      <line stroke-linecap="square" clip-path="url(#clipPath1)" fill="none" x1="11" x2="282" y1="48" y2="48" stroke="white" />
      <line stroke-linecap="square" clip-path="url(#clipPath1)" fill="none" x1="11" x2="282" y1="80" y2="80" stroke="white" />
      <rect stroke-linecap="square" x="11" y="111" clip-path="url(#clipPath1)" fill="white" width="271" height="2" stroke="none" />
      <rect stroke-linecap="square" x="11" y="111" clip-path="url(#clipPath1)" fill="none" width="271" height="2" stroke="rgb(48,48,48)" />
      <rect stroke-linecap="square" x="11" y="142" clip-path="url(#clipPath1)" fill="white" width="271" height="3" stroke="none" />
      <rect stroke-linecap="square" x="11" y="142" clip-path="url(#clipPath1)" fill="none" width="271" height="3" stroke="rgb(48,48,48)" />
      <rect stroke-linecap="square" x="11" y="174" clip-path="url(#clipPath1)" fill="white" width="271" height="4" stroke="none" />
      <rect stroke-linecap="square" x="11" y="174" clip-path="url(#clipPath1)" fill="none" width="271" height="4" stroke="rgb(48,48,48)" />
    </g>
    <g font-size="16" fill="rgb(254,255,254)" text-rendering="geometricPrecision" font-family="&apos;Arial&apos;" stroke="rgb(254,255,254)" font-weight="bold">
      <circle r="13" clip-path="url(#clipPath2)" cx="146" cy="145" stroke="none" />
      <circle stroke-linecap="butt" clip-path="url(#clipPath2)" fill="none" r="13" cx="146" cy="145" stroke-width="2" />
    </g>
    <g stroke-linecap="butt" font-size="16" fill="rgb(13,14,13)" text-rendering="geometricPrecision" font-family="&apos;Arial&apos;" stroke="rgb(13,14,13)" font-weight="bold" stroke-width="2">
      <text xml:space="preserve" x="136" y="150" clip-path="url(#clipPath2)" stroke="none">p5</text>
      <circle clip-path="url(#clipPath3)" fill="rgb(254,255,254)" r="13" cx="93" cy="112" stroke="none" />
      <circle clip-path="url(#clipPath3)" fill="none" r="13" cx="93" cy="112" stroke="rgb(254,255,254)" />
      <text x="83" font-size="20" y="124" clip-path="url(#clipPath3)" font-family="&apos;OpusText&apos;" stroke="none" xml:space="preserve">^</text>
      <text xml:space="preserve" x="93" y="118" clip-path="url(#clipPath3)" stroke="none">7</text>
      <circle clip-path="url(#clipPath4)" fill="rgb(254,255,254)" r="13" cx="40" cy="48" stroke="none" />
      <circle clip-path="url(#clipPath4)" fill="none" r="13" cx="40" cy="48" stroke="rgb(254,255,254)" />
      <text xml:space="preserve" x="30" y="53" clip-path="url(#clipPath4)" stroke="none">p5</text>
      <circle clip-path="url(#clipPath5)" fill="rgb(254,255,254)" r="13" cx="40" cy="80" stroke="none" />
      <circle clip-path="url(#clipPath5)" fill="none" r="13" cx="40" cy="80" stroke="rgb(254,255,254)" />
      <text x="32" font-size="20" y="87" clip-path="url(#clipPath5)" font-family="&apos;OpusText&apos;" stroke="none" xml:space="preserve">b</text>
      <text xml:space="preserve" x="39" y="86" clip-path="url(#clipPath5)" stroke="none">3</text>
      <rect x="28" y="165" clip-path="url(#clipPath6)" fill="red" width="24" height="24" stroke="none" />
      <rect x="28" y="165" clip-path="url(#clipPath6)" fill="none" width="24" height="24" stroke="white" />
      <rect x="28" y="165" clip-path="url(#clipPath6)" fill="none" width="24" height="24" stroke="red" />
      <text x="34" font-size="17" y="185" clip-path="url(#clipPath6)" stroke="none" xml:space="preserve">R</text>
      <circle clip-path="url(#clipPath7)" fill="rgb(254,255,254)" r="13" cx="146" cy="16" stroke="none" />
      <circle clip-path="url(#clipPath7)" fill="none" r="13" cx="146" cy="16" stroke="rgb(254,255,254)" />
      <text xml:space="preserve" x="141" y="22" clip-path="url(#clipPath7)" stroke="none">9</text>
    </g>
    <g stroke-linecap="butt" fill="rgb(28,222,147)" text-rendering="geometricPrecision" font-family="&apos;Segoe UI&apos;" stroke="rgb(28,222,147)" stroke-width="2">
      <path d="M27.9999 50 C13.6406 50 1.9999 77.9822 2 112.5001 C2 147.0178 13.6406 175 28 175 C19.7157 175 13 147.0178 12.9999 112.5 C12.9999 77.9822 19.7157 50 27.9999 50" clip-path="url(#clipPath8)" fill-rule="evenodd" stroke="none" />
      <path d="M-315 81.5 C-315 69.0736 -321.268 59 -329 59 C-336.732 59 -343 69.0736 -343 81.5 C-343 81.5 -343 81.5 -343 81.5 C-343 74.0442 -336.732 68 -329 68 C-321.2681 68 -315 74.0441 -315 81.5 C-315 81.5 -315 81.5 -315 81.5" clip-path="url(#clipPath8)" fill-rule="evenodd" stroke="none" />
    </g>
  </g>
</svg>
