<?xml version="1.0" encoding="ISO-8859-1"?>

<!DOCTYPE svg PUBLIC '-//W3C//DTD SVG 1.0//EN' 'http://www.w3.org/TR/2001/REC-SVG-20010904/DTD/svg10.dtd'>
<svg stroke-dasharray="none" shape-rendering="auto" xmlns="http://www.w3.org/2000/svg" font-family="&apos;Dialog&apos;" width="283" text-rendering="auto" fill-opacity="1" contentScriptType="text/ecmascript" color-interpolation="auto" color-rendering="auto" preserveAspectRatio="xMidYMid meet" font-size="12" fill="black" xmlns:xlink="http://www.w3.org/1999/xlink" stroke="black" image-rendering="auto" stroke-miterlimit="10" zoomAndPan="magnify" version="1.0" stroke-linecap="square" stroke-linejoin="miter" contentStyleType="text/css" font-style="normal" height="192" stroke-width="1" stroke-dashoffset="0" font-weight="normal" stroke-opacity="1">
  <!--Generated by the Batik Graphics2D SVG Generator-->
  <defs id="genericDefs" />
  <g>
    <defs id="defs1">
      <clipPath clipPathUnits="userSpaceOnUse" id="clipPath1">
        <path d="M10 -1 L284 -1 L284 193 L10 193 L10 -1 Z" />
      </clipPath>
      <clipPath clipPathUnits="userSpaceOnUse" id="clipPath2">
        <path d="M24 129 L56 129 L56 161 L24 161 L24 129 Z" />
      </clipPath>
      <clipPath clipPathUnits="userSpaceOnUse" id="clipPath3">
        <path d="M24 64 L56 64 L56 96 L24 96 L24 64 Z" />
      </clipPath>
      <clipPath clipPathUnits="userSpaceOnUse" id="clipPath4">
        <path d="M24 0 L56 0 L56 32 L24 32 L24 0 Z" />
      </clipPath>
      <clipPath clipPathUnits="userSpaceOnUse" id="clipPath5">
        <path d="M130 32 L162 32 L162 64 L130 64 L130 32 Z" />
      </clipPath>
      <clipPath clipPathUnits="userSpaceOnUse" id="clipPath6">
        <path d="M130 96 L162 96 L162 128 L130 128 L130 96 Z" />
      </clipPath>
      <clipPath clipPathUnits="userSpaceOnUse" id="clipPath7">
        <path d="M-1 -1 L284 -1 L284 193 L-1 193 L-1 -1 Z" />
      </clipPath>
    </defs>
    <g fill="rgb(28,222,147)" text-rendering="optimizeLegibility" font-family="&apos;Segoe UI&apos;" stroke-linejoin="round" stroke="rgb(28,222,147)" stroke-width="0" stroke-miterlimit="0">
      <path d="M28 17.9999 C13.6406 18 2 45.9822 2 80.5001 C2 115.0178 13.6406 143 28 142.9999 C19.7157 143 13 115.0178 13 80.5 C13 45.9822 19.7157 18 28 17.9999" fill-rule="evenodd" stroke="none" />
    </g>
    <g font-size="19" fill="rgb(14,14,14)" text-rendering="optimizeLegibility" font-family="&apos;Verdana&apos;" stroke-linejoin="round" stroke="rgb(14,14,14)" stroke-width="0" stroke-miterlimit="0">
      <rect x="11" y="16" clip-path="url(#clipPath1)" width="271" height="162" stroke="none" />
    </g>
    <g stroke-linecap="butt" font-size="19" fill="rgb(14,14,14)" text-rendering="optimizeLegibility" font-family="&apos;Verdana&apos;" stroke="rgb(14,14,14)">
      <rect x="11" y="16" clip-path="url(#clipPath1)" fill="none" width="271" height="162" />
      <rect x="11" y="16" clip-path="url(#clipPath1)" fill="gray" width="5" height="162" stroke="none" />
      <rect x="11" y="16" clip-path="url(#clipPath1)" fill="none" width="5" height="162" stroke="gray" />
      <rect x="64" y="16" clip-path="url(#clipPath1)" fill="gray" width="5" height="162" stroke="none" />
      <rect x="64" y="16" clip-path="url(#clipPath1)" fill="none" width="5" height="162" stroke="gray" />
      <rect x="117" y="16" clip-path="url(#clipPath1)" fill="gray" width="5" height="162" stroke="none" />
      <rect x="117" y="16" clip-path="url(#clipPath1)" fill="none" width="5" height="162" stroke="gray" />
      <rect x="170" y="16" clip-path="url(#clipPath1)" fill="gray" width="5" height="162" stroke="none" />
      <rect x="170" y="16" clip-path="url(#clipPath1)" fill="none" width="5" height="162" stroke="gray" />
      <rect x="223" y="16" clip-path="url(#clipPath1)" fill="gray" width="5" height="162" stroke="none" />
      <rect x="223" y="16" clip-path="url(#clipPath1)" fill="none" width="5" height="162" stroke="gray" />
      <rect x="277" y="16" clip-path="url(#clipPath1)" fill="gray" width="5" height="162" stroke="none" />
      <rect x="277" y="16" clip-path="url(#clipPath1)" fill="none" width="5" height="162" stroke="gray" />
      <line stroke-linecap="square" clip-path="url(#clipPath1)" fill="none" x1="11" x2="282" y1="16" y2="16" stroke="white" />
      <line stroke-linecap="square" clip-path="url(#clipPath1)" fill="none" x1="11" x2="282" y1="48" y2="48" stroke="white" />
      <line stroke-linecap="square" clip-path="url(#clipPath1)" fill="none" x1="11" x2="282" y1="80" y2="80" stroke="white" />
      <rect stroke-linecap="square" x="11" y="111" clip-path="url(#clipPath1)" fill="white" width="271" height="2" stroke="none" />
      <rect stroke-linecap="square" x="11" y="111" clip-path="url(#clipPath1)" fill="none" width="271" height="2" stroke="rgb(48,48,48)" />
      <rect stroke-linecap="square" x="11" y="142" clip-path="url(#clipPath1)" fill="white" width="271" height="3" stroke="none" />
      <rect stroke-linecap="square" x="11" y="142" clip-path="url(#clipPath1)" fill="none" width="271" height="3" stroke="rgb(48,48,48)" />
      <rect stroke-linecap="square" x="11" y="174" clip-path="url(#clipPath1)" fill="white" width="271" height="4" stroke="none" />
      <rect stroke-linecap="square" x="11" y="174" clip-path="url(#clipPath1)" fill="none" width="271" height="4" stroke="rgb(48,48,48)" />
    </g>
    <g font-size="17" fill="red" text-rendering="geometricPrecision" font-family="&apos;Arial&apos;" stroke="red" font-weight="bold">
      <rect x="28" y="133" clip-path="url(#clipPath2)" width="24" height="24" stroke="none" />
    </g>
    <g stroke-linecap="butt" font-size="17" fill="white" text-rendering="geometricPrecision" font-family="&apos;Arial&apos;" stroke="white" font-weight="bold" stroke-width="2">
      <rect x="28" y="133" clip-path="url(#clipPath2)" fill="none" width="24" height="24" />
      <rect x="28" y="133" clip-path="url(#clipPath2)" fill="none" width="24" height="24" stroke="red" />
      <text x="34" y="153" clip-path="url(#clipPath2)" fill="black" stroke="none" xml:space="preserve">R</text>
      <circle r="13" clip-path="url(#clipPath3)" cx="40" cy="80" stroke="none" />
      <circle fill="none" r="13" clip-path="url(#clipPath3)" cx="40" cy="80" />
    </g>
    <g stroke-linecap="butt" font-size="20" text-rendering="geometricPrecision" font-family="&apos;OpusText&apos;" font-weight="bold" stroke-width="2">
      <text xml:space="preserve" x="32" y="87" clip-path="url(#clipPath3)" stroke="none">b</text>
      <text x="39" font-size="16" y="86" clip-path="url(#clipPath3)" font-family="&apos;Arial&apos;" stroke="none" xml:space="preserve">7</text>
    </g>
    <g stroke-linecap="butt" font-size="16" fill="white" text-rendering="geometricPrecision" font-family="&apos;Arial&apos;" stroke="white" font-weight="bold" stroke-width="2">
      <circle r="13" clip-path="url(#clipPath4)" cx="40" cy="16" stroke="none" />
      <circle fill="none" r="13" clip-path="url(#clipPath4)" cx="40" cy="16" />
      <text x="30" y="21" clip-path="url(#clipPath4)" fill="black" stroke="none" xml:space="preserve">p5</text>
      <circle r="13" clip-path="url(#clipPath5)" cx="146" cy="48" stroke="none" />
      <circle fill="none" r="13" clip-path="url(#clipPath5)" cx="146" cy="48" />
    </g>
    <g stroke-linecap="butt" font-size="20" text-rendering="geometricPrecision" font-family="&apos;OpusText&apos;" font-weight="bold" stroke-width="2">
      <text xml:space="preserve" x="136" y="60" clip-path="url(#clipPath5)" stroke="none">^</text>
      <text x="146" font-size="16" y="54" clip-path="url(#clipPath5)" font-family="&apos;Arial&apos;" stroke="none" xml:space="preserve">3</text>
    </g>
    <g stroke-linecap="butt" font-size="16" fill="white" text-rendering="geometricPrecision" font-family="&apos;Arial&apos;" stroke="white" font-weight="bold" stroke-width="2">
      <circle r="13" clip-path="url(#clipPath6)" cx="146" cy="112" stroke="none" />
      <circle fill="none" r="13" clip-path="url(#clipPath6)" cx="146" cy="112" />
      <text x="136" y="117" clip-path="url(#clipPath6)" fill="black" stroke="none" xml:space="preserve">p5</text>
    </g>
    <g stroke-linecap="butt" fill="rgb(28,222,147)" text-rendering="geometricPrecision" font-family="&apos;Segoe UI&apos;" stroke="rgb(28,222,147)" stroke-width="2">
      <path d="M28 17.9999 C13.6406 18 2 45.9822 2 80.5001 C2 115.0178 13.6406 143 28 142.9999 C19.7157 143 13 115.0178 13 80.5 C13 45.9822 19.7157 18 28 17.9999" clip-path="url(#clipPath7)" fill-rule="evenodd" stroke="none" />
    </g>
  </g>
</svg>
