<?xml version="1.0" encoding="ISO-8859-1"?>

<!DOCTYPE svg PUBLIC '-//W3C//DTD SVG 1.0//EN' 'http://www.w3.org/TR/2001/REC-SVG-20010904/DTD/svg10.dtd'>
<svg stroke-dasharray="none" shape-rendering="auto" xmlns="http://www.w3.org/2000/svg" font-family="&apos;Dialog&apos;" width="272" text-rendering="auto" fill-opacity="1" contentScriptType="text/ecmascript" color-interpolation="auto" color-rendering="auto" preserveAspectRatio="xMidYMid meet" font-size="12" fill="black" xmlns:xlink="http://www.w3.org/1999/xlink" stroke="black" image-rendering="auto" stroke-miterlimit="10" zoomAndPan="magnify" version="1.0" stroke-linecap="square" stroke-linejoin="miter" contentStyleType="text/css" font-style="normal" height="192" stroke-width="1" stroke-dashoffset="0" font-weight="normal" stroke-opacity="1">
  <!--Generated by the Batik Graphics2D SVG Generator-->
  <defs id="genericDefs" />
  <g>
    <defs id="defs1">
      <clipPath clipPathUnits="userSpaceOnUse" id="clipPath1">
        <path d="M66 161 L98 161 L98 193 L66 193 L66 161 Z" />
      </clipPath>
      <clipPath clipPathUnits="userSpaceOnUse" id="clipPath2">
        <path d="M13 96 L45 96 L45 128 L13 128 L13 96 Z" />
      </clipPath>
      <clipPath clipPathUnits="userSpaceOnUse" id="clipPath3">
        <path d="M66 64 L98 64 L98 96 L66 96 L66 64 Z" />
      </clipPath>
      <clipPath clipPathUnits="userSpaceOnUse" id="clipPath4">
        <path d="M66 0 L98 0 L98 32 L66 32 L66 0 Z" />
      </clipPath>
      <clipPath clipPathUnits="userSpaceOnUse" id="clipPath5">
        <path d="M66 32 L98 32 L98 64 L66 64 L66 32 Z" />
      </clipPath>
      <clipPath clipPathUnits="userSpaceOnUse" id="clipPath6">
        <path d="M-1 -1 L273 -1 L273 193 L-1 193 L-1 -1 Z" />
      </clipPath>
    </defs>
    <g fill="rgb(28,222,147)" text-rendering="optimizeLegibility" font-family="&apos;Segoe UI&apos;" stroke-linejoin="round" stroke="rgb(28,222,147)" stroke-width="0" stroke-miterlimit="0">
      <path d="M71.5 17.9999 C59.0736 18 49 31.4314 49 48 C49 64.5685 59.0736 78 71.5 77.9999 C64.0442 78 58 64.5685 58 48 C58 31.4314 64.0441 18 71.5 17.9999" fill-rule="evenodd" stroke="none" />
    </g>
    <g font-size="19" fill="rgb(14,14,14)" text-rendering="optimizeLegibility" font-family="&apos;Verdana&apos;" stroke-linejoin="round" stroke="rgb(14,14,14)" stroke-width="0" stroke-miterlimit="0">
      <rect width="271" x="0" height="162" y="16" stroke="none" />
    </g>
    <g stroke-linecap="butt" font-size="19" fill="rgb(14,14,14)" text-rendering="optimizeLegibility" font-family="&apos;Verdana&apos;" stroke="rgb(14,14,14)">
      <rect fill="none" width="271" x="0" height="162" y="16" />
      <rect x="0" y="16" fill="gray" width="5" height="162" stroke="none" />
      <rect x="0" y="16" fill="none" width="5" height="162" stroke="gray" />
      <rect x="53" y="16" fill="gray" width="5" height="162" stroke="none" />
      <rect x="53" y="16" fill="none" width="5" height="162" stroke="gray" />
      <rect x="106" y="16" fill="gray" width="5" height="162" stroke="none" />
      <rect x="106" y="16" fill="none" width="5" height="162" stroke="gray" />
      <rect x="159" y="16" fill="gray" width="5" height="162" stroke="none" />
      <rect x="159" y="16" fill="none" width="5" height="162" stroke="gray" />
      <rect x="212" y="16" fill="gray" width="5" height="162" stroke="none" />
      <rect x="212" y="16" fill="none" width="5" height="162" stroke="gray" />
      <rect x="266" y="16" fill="gray" width="5" height="162" stroke="none" />
      <rect x="266" y="16" fill="none" width="5" height="162" stroke="gray" />
      <line stroke-linecap="square" fill="none" x1="0" x2="271" y1="16" y2="16" stroke="white" />
      <line stroke-linecap="square" fill="none" x1="0" x2="271" y1="48" y2="48" stroke="white" />
      <line stroke-linecap="square" fill="none" x1="0" x2="271" y1="80" y2="80" stroke="white" />
      <rect stroke-linecap="square" x="0" y="111" fill="white" width="271" height="2" stroke="none" />
      <rect stroke-linecap="square" x="0" y="111" fill="none" width="271" height="2" stroke="rgb(48,48,48)" />
      <rect stroke-linecap="square" x="0" y="142" fill="white" width="271" height="3" stroke="none" />
      <rect stroke-linecap="square" x="0" y="142" fill="none" width="271" height="3" stroke="rgb(48,48,48)" />
      <rect stroke-linecap="square" x="0" y="174" fill="white" width="271" height="4" stroke="none" />
      <rect stroke-linecap="square" x="0" y="174" fill="none" width="271" height="4" stroke="rgb(48,48,48)" />
    </g>
    <g font-size="17" fill="red" text-rendering="geometricPrecision" font-family="&apos;Arial&apos;" stroke="red" font-weight="bold">
      <rect x="70" y="165" clip-path="url(#clipPath1)" width="24" height="24" stroke="none" />
    </g>
    <g stroke-linecap="butt" font-size="17" fill="white" text-rendering="geometricPrecision" font-family="&apos;Arial&apos;" stroke="white" font-weight="bold" stroke-width="2">
      <rect x="70" y="165" clip-path="url(#clipPath1)" fill="none" width="24" height="24" />
      <rect x="70" y="165" clip-path="url(#clipPath1)" fill="none" width="24" height="24" stroke="red" />
      <text x="76" y="185" clip-path="url(#clipPath1)" fill="black" stroke="none" xml:space="preserve">R</text>
      <circle r="13" clip-path="url(#clipPath2)" cx="29" cy="112" stroke="none" />
      <circle fill="none" r="13" clip-path="url(#clipPath2)" cx="29" cy="112" />
    </g>
    <g stroke-linecap="butt" font-size="20" text-rendering="geometricPrecision" font-family="&apos;OpusText&apos;" font-weight="bold" stroke-width="2">
      <text xml:space="preserve" x="19" y="124" clip-path="url(#clipPath2)" stroke="none">^</text>
      <text x="29" font-size="16" y="118" clip-path="url(#clipPath2)" font-family="&apos;Arial&apos;" stroke="none" xml:space="preserve">6</text>
    </g>
    <g stroke-linecap="butt" font-size="16" fill="white" text-rendering="geometricPrecision" font-family="&apos;Arial&apos;" stroke="white" font-weight="bold" stroke-width="2">
      <circle r="13" clip-path="url(#clipPath3)" cx="82" cy="80" stroke="none" />
      <circle fill="none" r="13" clip-path="url(#clipPath3)" cx="82" cy="80" />
    </g>
    <g stroke-linecap="butt" font-size="20" text-rendering="geometricPrecision" font-family="&apos;OpusText&apos;" font-weight="bold" stroke-width="2">
      <text xml:space="preserve" x="74" y="87" clip-path="url(#clipPath3)" stroke="none">b</text>
      <text x="81" font-size="16" y="86" clip-path="url(#clipPath3)" font-family="&apos;Arial&apos;" stroke="none" xml:space="preserve">3</text>
    </g>
    <g stroke-linecap="butt" font-size="17" fill="red" text-rendering="geometricPrecision" font-family="&apos;Arial&apos;" stroke="red" font-weight="bold" stroke-width="2">
      <rect x="70" y="4" clip-path="url(#clipPath4)" width="24" height="24" stroke="none" />
      <rect x="70" y="4" clip-path="url(#clipPath4)" fill="none" width="24" height="24" stroke="white" />
      <rect x="70" y="4" clip-path="url(#clipPath4)" fill="none" width="24" height="24" />
      <text x="76" y="24" clip-path="url(#clipPath4)" fill="black" stroke="none" xml:space="preserve">R</text>
      <circle clip-path="url(#clipPath5)" fill="white" r="13" cx="82" cy="48" stroke="none" />
      <circle clip-path="url(#clipPath5)" fill="none" r="13" cx="82" cy="48" stroke="white" />
      <text x="72" font-size="16" y="53" clip-path="url(#clipPath5)" fill="black" stroke="none" xml:space="preserve">p5</text>
    </g>
    <g stroke-linecap="butt" fill="rgb(28,222,147)" text-rendering="geometricPrecision" font-family="&apos;Segoe UI&apos;" stroke="rgb(28,222,147)" stroke-width="2">
      <path d="M71.5 17.9999 C59.0736 18 49 31.4314 49 48 C49 64.5685 59.0736 78 71.5 77.9999 C64.0442 78 58 64.5685 58 48 C58 31.4314 64.0441 18 71.5 17.9999" clip-path="url(#clipPath6)" fill-rule="evenodd" stroke="none" />
    </g>
  </g>
</svg>
