<?xml version="1.0" encoding="ISO-8859-1"?>

<!DOCTYPE svg PUBLIC '-//W3C//DTD SVG 1.0//EN' 'http://www.w3.org/TR/2001/REC-SVG-20010904/DTD/svg10.dtd'>
<svg stroke-dasharray="none" shape-rendering="auto" xmlns="http://www.w3.org/2000/svg" font-family="&apos;Dialog&apos;" width="272" text-rendering="auto" fill-opacity="1" contentScriptType="text/ecmascript" color-interpolation="auto" color-rendering="auto" preserveAspectRatio="xMidYMid meet" font-size="12" fill="black" xmlns:xlink="http://www.w3.org/1999/xlink" stroke="black" image-rendering="auto" stroke-miterlimit="10" zoomAndPan="magnify" version="1.0" stroke-linecap="square" stroke-linejoin="miter" contentStyleType="text/css" font-style="normal" height="220" stroke-width="1" stroke-dashoffset="0" font-weight="normal" stroke-opacity="1">
  <!--Generated by the Batik Graphics2D SVG Generator-->
  <defs id="genericDefs" />
  <g>
    <defs id="defs1">
      <clipPath clipPathUnits="userSpaceOnUse" id="clipPath1">
        <path d="M-1 0 L273 0 L273 28 L-1 28 L-1 0 Z" />
      </clipPath>
      <clipPath clipPathUnits="userSpaceOnUse" id="clipPath2">
        <path d="M7 0 L245 0 L245 19 L7 19 L7 0 Z" />
      </clipPath>
      <clipPath clipPathUnits="userSpaceOnUse" id="clipPath3">
        <path d="M43 0 L245 0 L245 19 L43 19 L43 0 Z" />
      </clipPath>
      <clipPath clipPathUnits="userSpaceOnUse" id="clipPath4">
        <path d="M43 0 L266 0 L266 19 L43 19 L43 0 Z" />
      </clipPath>
      <clipPath clipPathUnits="userSpaceOnUse" id="clipPath5">
        <path d="M-1 27 L273 27 L273 221 L-1 221 L-1 27 Z" />
      </clipPath>
      <clipPath clipPathUnits="userSpaceOnUse" id="clipPath6">
        <path d="M20 28 L52 28 L52 60 L20 60 L20 28 Z" />
      </clipPath>
      <clipPath clipPathUnits="userSpaceOnUse" id="clipPath7">
        <path d="M86 92 L118 92 L118 124 L86 124 L86 92 Z" />
      </clipPath>
      <clipPath clipPathUnits="userSpaceOnUse" id="clipPath8">
        <path d="M153 124 L185 124 L185 156 L153 156 L153 124 Z" />
      </clipPath>
      <clipPath clipPathUnits="userSpaceOnUse" id="clipPath9">
        <path d="M86 60 L118 60 L118 92 L86 92 L86 60 Z" />
      </clipPath>
    </defs>
    <g font-size="14" fill="white" text-rendering="optimizeLegibility" font-family="&apos;Verdana&apos;" stroke-linejoin="round" stroke="white" stroke-width="0" stroke-miterlimit="0">
      <rect x="0" y="1" clip-path="url(#clipPath1)" width="272" opacity="0" height="26" stroke="none" />
      <text x="108" y="16" clip-path="url(#clipPath2)" fill="rgb(254,255,254)" stroke="none" xml:space="preserve">2nd i</text>
      <text x="144" y="16" clip-path="url(#clipPath3)" fill="rgb(254,255,254)" stroke="none" xml:space="preserve"></text>
      <text x="144" y="16" clip-path="url(#clipPath3)" fill="rgb(254,255,254)" stroke="none" xml:space="preserve"></text>
      <text x="144" y="16" clip-path="url(#clipPath4)" fill="rgb(254,255,254)" stroke="none" xml:space="preserve">nv.</text>
      <rect x="0" y="44" clip-path="url(#clipPath5)" fill="rgb(14,14,14)" width="271" height="162" stroke="none" />
    </g>
    <g stroke-linecap="butt" font-size="14" fill="rgb(14,14,14)" text-rendering="optimizeLegibility" font-family="&apos;Verdana&apos;" stroke="rgb(14,14,14)">
      <rect x="0" y="44" clip-path="url(#clipPath5)" fill="none" width="271" height="162" />
      <rect x="0" y="44" clip-path="url(#clipPath5)" fill="white" width="5" height="162" stroke="none" />
      <rect x="0" y="44" clip-path="url(#clipPath5)" fill="none" width="5" height="162" stroke="white" />
      <rect x="66" y="44" clip-path="url(#clipPath5)" fill="gray" width="5" height="162" stroke="none" />
      <rect x="66" y="44" clip-path="url(#clipPath5)" fill="none" width="5" height="162" stroke="gray" />
      <rect x="133" y="44" clip-path="url(#clipPath5)" fill="gray" width="5" height="162" stroke="none" />
      <rect x="133" y="44" clip-path="url(#clipPath5)" fill="none" width="5" height="162" stroke="gray" />
      <rect x="199" y="44" clip-path="url(#clipPath5)" fill="gray" width="5" height="162" stroke="none" />
      <rect x="199" y="44" clip-path="url(#clipPath5)" fill="none" width="5" height="162" stroke="gray" />
      <rect x="266" y="44" clip-path="url(#clipPath5)" fill="gray" width="5" height="162" stroke="none" />
      <rect x="266" y="44" clip-path="url(#clipPath5)" fill="none" width="5" height="162" stroke="gray" />
      <line stroke-linecap="square" clip-path="url(#clipPath5)" fill="none" x1="0" x2="271" y1="44" y2="44" stroke="white" />
      <line stroke-linecap="square" clip-path="url(#clipPath5)" fill="none" x1="0" x2="271" y1="76" y2="76" stroke="white" />
      <line stroke-linecap="square" clip-path="url(#clipPath5)" fill="none" x1="0" x2="271" y1="108" y2="108" stroke="white" />
      <rect stroke-linecap="square" x="0" y="139" clip-path="url(#clipPath5)" fill="white" width="271" height="2" stroke="none" />
      <rect stroke-linecap="square" x="0" y="139" clip-path="url(#clipPath5)" fill="none" width="271" height="2" stroke="rgb(48,48,48)" />
      <rect stroke-linecap="square" x="0" y="170" clip-path="url(#clipPath5)" fill="white" width="271" height="3" stroke="none" />
      <rect stroke-linecap="square" x="0" y="170" clip-path="url(#clipPath5)" fill="none" width="271" height="3" stroke="rgb(48,48,48)" />
      <rect stroke-linecap="square" x="0" y="202" clip-path="url(#clipPath5)" fill="white" width="271" height="4" stroke="none" />
      <rect stroke-linecap="square" x="0" y="202" clip-path="url(#clipPath5)" fill="none" width="271" height="4" stroke="rgb(48,48,48)" />
    </g>
    <g fill="rgb(254,255,255)" text-rendering="geometricPrecision" font-size="15" font-family="&apos;Helvetica&apos;" stroke="rgb(254,255,255)">
      <circle r="13" clip-path="url(#clipPath6)" cx="36" cy="44" stroke="none" />
      <circle stroke-linecap="butt" clip-path="url(#clipPath6)" fill="none" r="13" cx="36" cy="44" stroke-width="2" />
    </g>
    <g stroke-linecap="butt" font-size="18" text-rendering="geometricPrecision" font-family="&apos;OpusText&apos;" font-weight="bold" stroke-width="2">
      <text xml:space="preserve" x="28" y="49" clip-path="url(#clipPath6)" stroke="none">#</text>
      <text x="35" font-size="15" y="48" clip-path="url(#clipPath6)" font-family="&apos;Helvetica&apos;" stroke="none" font-weight="normal" xml:space="preserve">5</text>
    </g>
    <g stroke-linecap="butt" font-size="15" fill="rgb(255,38,0)" text-rendering="geometricPrecision" font-family="&apos;Helvetica&apos;" stroke="rgb(255,38,0)" stroke-width="2">
      <circle r="13" clip-path="url(#clipPath7)" cx="102" cy="108" stroke="none" />
      <circle fill="none" r="13" clip-path="url(#clipPath7)" cx="102" cy="108" />
      <text x="96" y="112" clip-path="url(#clipPath7)" fill="rgb(13,14,13)" stroke="none" xml:space="preserve">R</text>
      <circle clip-path="url(#clipPath8)" fill="rgb(254,255,254)" r="13" cx="169" cy="140" stroke="none" />
      <circle clip-path="url(#clipPath8)" fill="none" r="13" cx="169" cy="140" stroke="rgb(254,255,254)" />
    </g>
    <g stroke-linecap="butt" font-size="18" fill="rgb(13,14,13)" text-rendering="geometricPrecision" font-family="&apos;OpusText&apos;" stroke="rgb(13,14,13)" font-weight="bold" stroke-width="2">
      <text xml:space="preserve" x="161" y="145" clip-path="url(#clipPath8)" stroke="none">#</text>
      <text x="168" font-size="15" y="144" clip-path="url(#clipPath8)" font-family="&apos;Helvetica&apos;" stroke="none" font-weight="normal" xml:space="preserve">5</text>
    </g>
    <g stroke-linecap="butt" font-size="15" fill="rgb(254,255,255)" text-rendering="geometricPrecision" font-family="&apos;Helvetica&apos;" stroke="rgb(254,255,255)" stroke-width="2">
      <circle r="13" clip-path="url(#clipPath9)" cx="102" cy="76" stroke="none" />
      <circle fill="none" r="13" clip-path="url(#clipPath9)" cx="102" cy="76" />
    </g>
    <g stroke-linecap="butt" font-size="18" fill="rgb(13,14,13)" text-rendering="geometricPrecision" font-family="&apos;OpusText&apos;" stroke="rgb(13,14,13)" font-weight="bold" stroke-width="2">
      <text xml:space="preserve" x="94" y="85" clip-path="url(#clipPath9)" stroke="none">^</text>
      <text x="102" font-size="15" y="80" clip-path="url(#clipPath9)" font-family="&apos;Helvetica&apos;" stroke="none" font-weight="normal" xml:space="preserve">3</text>
    </g>
  </g>
</svg>
