<?xml version="1.0" encoding="ISO-8859-1"?>

<!DOCTYPE svg PUBLIC '-//W3C//DTD SVG 1.0//EN' 'http://www.w3.org/TR/2001/REC-SVG-20010904/DTD/svg10.dtd'>
<svg stroke-dasharray="none" shape-rendering="auto" xmlns="http://www.w3.org/2000/svg" font-family="&apos;Dialog&apos;" width="272" text-rendering="auto" fill-opacity="1" contentScriptType="text/ecmascript" color-interpolation="auto" color-rendering="auto" preserveAspectRatio="xMidYMid meet" font-size="12" fill="black" xmlns:xlink="http://www.w3.org/1999/xlink" stroke="black" image-rendering="auto" stroke-miterlimit="10" zoomAndPan="magnify" version="1.0" stroke-linecap="square" stroke-linejoin="miter" contentStyleType="text/css" font-style="normal" height="220" stroke-width="1" stroke-dashoffset="0" font-weight="normal" stroke-opacity="1">
  <!--Generated by the Batik Graphics2D SVG Generator-->
  <defs id="genericDefs" />
  <g>
    <defs id="defs1">
      <clipPath clipPathUnits="userSpaceOnUse" id="clipPath1">
        <path d="M-1 0 L273 0 L273 28 L-1 28 L-1 0 Z" />
      </clipPath>
      <clipPath clipPathUnits="userSpaceOnUse" id="clipPath2">
        <path d="M7 0 L266 0 L266 19 L7 19 L7 0 Z" />
      </clipPath>
      <clipPath clipPathUnits="userSpaceOnUse" id="clipPath3">
        <path d="M-1 27 L273 27 L273 221 L-1 221 L-1 27 Z" />
      </clipPath>
      <clipPath clipPathUnits="userSpaceOnUse" id="clipPath4">
        <path d="M13 189 L45 189 L45 221 L13 221 L13 189 Z" />
      </clipPath>
      <clipPath clipPathUnits="userSpaceOnUse" id="clipPath5">
        <path d="M66 157 L98 157 L98 189 L66 189 L66 157 Z" />
      </clipPath>
      <clipPath clipPathUnits="userSpaceOnUse" id="clipPath6">
        <path d="M119 124 L151 124 L151 156 L119 156 L119 124 Z" />
      </clipPath>
      <clipPath clipPathUnits="userSpaceOnUse" id="clipPath7">
        <path d="M173 92 L205 92 L205 124 L173 124 L173 92 Z" />
      </clipPath>
      <clipPath clipPathUnits="userSpaceOnUse" id="clipPath8">
        <path d="M119 60 L151 60 L151 92 L119 92 L119 60 Z" />
      </clipPath>
      <clipPath clipPathUnits="userSpaceOnUse" id="clipPath9">
        <path d="M226 157 L258 157 L258 189 L226 189 L226 157 Z" />
      </clipPath>
      <clipPath clipPathUnits="userSpaceOnUse" id="clipPath10">
        <path d="M13 28 L45 28 L45 60 L13 60 L13 28 Z" />
      </clipPath>
    </defs>
    <g font-size="14" fill="white" text-rendering="optimizeLegibility" font-family="&apos;Verdana&apos;" stroke-linejoin="round" stroke="white" stroke-width="0" stroke-miterlimit="0">
      <rect x="0" y="1" clip-path="url(#clipPath1)" width="272" opacity="0" height="26" stroke="none" />
      <text x="108" y="16" clip-path="url(#clipPath2)" fill="rgb(254,255,254)" stroke="none" xml:space="preserve">2nd inv.</text>
      <rect x="0" y="44" clip-path="url(#clipPath3)" fill="rgb(14,14,14)" width="271" height="162" stroke="none" />
    </g>
    <g stroke-linecap="butt" font-size="14" fill="rgb(14,14,14)" text-rendering="optimizeLegibility" font-family="&apos;Verdana&apos;" stroke="rgb(14,14,14)">
      <rect x="0" y="44" clip-path="url(#clipPath3)" fill="none" width="271" height="162" />
      <rect x="0" y="44" clip-path="url(#clipPath3)" fill="gray" width="5" height="162" stroke="none" />
      <rect x="0" y="44" clip-path="url(#clipPath3)" fill="none" width="5" height="162" stroke="gray" />
      <rect x="53" y="44" clip-path="url(#clipPath3)" fill="gray" width="5" height="162" stroke="none" />
      <rect x="53" y="44" clip-path="url(#clipPath3)" fill="none" width="5" height="162" stroke="gray" />
      <rect x="106" y="44" clip-path="url(#clipPath3)" fill="gray" width="5" height="162" stroke="none" />
      <rect x="106" y="44" clip-path="url(#clipPath3)" fill="none" width="5" height="162" stroke="gray" />
      <rect x="159" y="44" clip-path="url(#clipPath3)" fill="gray" width="5" height="162" stroke="none" />
      <rect x="159" y="44" clip-path="url(#clipPath3)" fill="none" width="5" height="162" stroke="gray" />
      <rect x="212" y="44" clip-path="url(#clipPath3)" fill="gray" width="5" height="162" stroke="none" />
      <rect x="212" y="44" clip-path="url(#clipPath3)" fill="none" width="5" height="162" stroke="gray" />
      <rect x="266" y="44" clip-path="url(#clipPath3)" fill="gray" width="5" height="162" stroke="none" />
      <rect x="266" y="44" clip-path="url(#clipPath3)" fill="none" width="5" height="162" stroke="gray" />
      <line stroke-linecap="square" clip-path="url(#clipPath3)" fill="none" x1="0" x2="271" y1="44" y2="44" stroke="white" />
      <line stroke-linecap="square" clip-path="url(#clipPath3)" fill="none" x1="0" x2="271" y1="76" y2="76" stroke="white" />
      <line stroke-linecap="square" clip-path="url(#clipPath3)" fill="none" x1="0" x2="271" y1="108" y2="108" stroke="white" />
      <rect stroke-linecap="square" x="0" y="139" clip-path="url(#clipPath3)" fill="white" width="271" height="2" stroke="none" />
      <rect stroke-linecap="square" x="0" y="139" clip-path="url(#clipPath3)" fill="none" width="271" height="2" stroke="rgb(48,48,48)" />
      <rect stroke-linecap="square" x="0" y="170" clip-path="url(#clipPath3)" fill="white" width="271" height="3" stroke="none" />
      <rect stroke-linecap="square" x="0" y="170" clip-path="url(#clipPath3)" fill="none" width="271" height="3" stroke="rgb(48,48,48)" />
      <rect stroke-linecap="square" x="0" y="202" clip-path="url(#clipPath3)" fill="white" width="271" height="4" stroke="none" />
      <rect stroke-linecap="square" x="0" y="202" clip-path="url(#clipPath3)" fill="none" width="271" height="4" stroke="rgb(48,48,48)" />
    </g>
    <g fill="rgb(254,255,254)" text-rendering="geometricPrecision" font-size="15" font-family="&apos;Helvetica&apos;" stroke="rgb(254,255,254)">
      <circle r="13" clip-path="url(#clipPath4)" cx="29" cy="205" stroke="none" />
      <circle stroke-linecap="butt" clip-path="url(#clipPath4)" fill="none" r="13" cx="29" cy="205" stroke-width="2" />
    </g>
    <g stroke-linecap="butt" font-size="18" fill="rgb(13,14,13)" text-rendering="geometricPrecision" font-family="&apos;OpusText&apos;" stroke="rgb(13,14,13)" font-weight="bold" stroke-width="2">
      <text xml:space="preserve" x="22" y="210" clip-path="url(#clipPath4)" stroke="none">b</text>
      <text x="28" font-size="15" y="209" clip-path="url(#clipPath4)" font-family="&apos;Helvetica&apos;" stroke="none" font-weight="normal" xml:space="preserve">5</text>
    </g>
    <g stroke-linecap="butt" font-size="15" fill="red" text-rendering="geometricPrecision" font-family="&apos;Helvetica&apos;" stroke="red" stroke-width="2">
      <circle r="13" clip-path="url(#clipPath5)" cx="82" cy="173" stroke="none" />
      <circle fill="none" r="13" clip-path="url(#clipPath5)" cx="82" cy="173" />
      <text x="76" y="177" clip-path="url(#clipPath5)" fill="rgb(14,14,14)" stroke="none" xml:space="preserve">R</text>
      <circle clip-path="url(#clipPath6)" fill="rgb(254,255,254)" r="13" cx="135" cy="140" stroke="none" />
      <circle clip-path="url(#clipPath6)" fill="none" r="13" cx="135" cy="140" stroke="rgb(254,255,254)" />
    </g>
    <g stroke-linecap="butt" font-size="18" fill="rgb(13,14,13)" text-rendering="geometricPrecision" font-family="&apos;OpusText&apos;" stroke="rgb(13,14,13)" font-weight="bold" stroke-width="2">
      <text xml:space="preserve" x="128" y="145" clip-path="url(#clipPath6)" stroke="none">b</text>
      <text x="134" font-size="15" y="144" clip-path="url(#clipPath6)" font-family="&apos;Helvetica&apos;" stroke="none" font-weight="normal" xml:space="preserve">5</text>
    </g>
    <g stroke-linecap="butt" font-size="15" fill="red" text-rendering="geometricPrecision" font-family="&apos;Helvetica&apos;" stroke="red" stroke-width="2">
      <circle r="13" clip-path="url(#clipPath7)" cx="189" cy="108" stroke="none" />
      <circle fill="none" r="13" clip-path="url(#clipPath7)" cx="189" cy="108" />
      <text x="183" y="112" clip-path="url(#clipPath7)" fill="rgb(14,14,14)" stroke="none" xml:space="preserve">R</text>
      <circle clip-path="url(#clipPath8)" fill="rgb(254,255,254)" r="13" cx="135" cy="76" stroke="none" />
      <circle clip-path="url(#clipPath8)" fill="none" r="13" cx="135" cy="76" stroke="rgb(254,255,254)" />
    </g>
    <g stroke-linecap="butt" font-size="18" fill="rgb(13,14,13)" text-rendering="geometricPrecision" font-family="&apos;OpusText&apos;" stroke="rgb(13,14,13)" font-weight="bold" stroke-width="2">
      <text xml:space="preserve" x="128" y="81" clip-path="url(#clipPath8)" stroke="none">b</text>
      <text x="134" font-size="15" y="80" clip-path="url(#clipPath8)" font-family="&apos;Helvetica&apos;" stroke="none" font-weight="normal" xml:space="preserve">3</text>
    </g>
    <g stroke-linecap="butt" font-size="15" fill="rgb(254,255,254)" text-rendering="geometricPrecision" font-family="&apos;Helvetica&apos;" stroke="rgb(254,255,254)" stroke-width="2">
      <circle r="13" clip-path="url(#clipPath9)" cx="242" cy="173" stroke="none" />
      <circle fill="none" r="13" clip-path="url(#clipPath9)" cx="242" cy="173" />
    </g>
    <g stroke-linecap="butt" font-size="18" fill="rgb(13,14,13)" text-rendering="geometricPrecision" font-family="&apos;OpusText&apos;" stroke="rgb(13,14,13)" font-weight="bold" stroke-width="2">
      <text xml:space="preserve" x="235" y="178" clip-path="url(#clipPath9)" stroke="none">b</text>
      <text x="241" font-size="15" y="177" clip-path="url(#clipPath9)" font-family="&apos;Helvetica&apos;" stroke="none" font-weight="normal" xml:space="preserve">3</text>
    </g>
    <g stroke-linecap="butt" font-size="15" fill="rgb(254,255,254)" text-rendering="geometricPrecision" font-family="&apos;Helvetica&apos;" stroke="rgb(254,255,254)" stroke-width="2">
      <circle r="13" clip-path="url(#clipPath10)" cx="29" cy="44" stroke="none" />
      <circle fill="none" r="13" clip-path="url(#clipPath10)" cx="29" cy="44" />
    </g>
    <g stroke-linecap="butt" font-size="18" fill="rgb(13,14,13)" text-rendering="geometricPrecision" font-family="&apos;OpusText&apos;" stroke="rgb(13,14,13)" font-weight="bold" stroke-width="2">
      <text xml:space="preserve" x="22" y="49" clip-path="url(#clipPath10)" stroke="none">b</text>
      <text x="28" font-size="15" y="48" clip-path="url(#clipPath10)" font-family="&apos;Helvetica&apos;" stroke="none" font-weight="normal" xml:space="preserve">5</text>
    </g>
  </g>
</svg>
