<?xml version="1.0" encoding="ISO-8859-1"?>

<!DOCTYPE svg PUBLIC '-//W3C//DTD SVG 1.0//EN' 'http://www.w3.org/TR/2001/REC-SVG-20010904/DTD/svg10.dtd'>
<svg stroke-dasharray="none" shape-rendering="auto" xmlns="http://www.w3.org/2000/svg" font-family="&apos;Dialog&apos;" width="272" text-rendering="auto" fill-opacity="1" contentScriptType="text/ecmascript" color-interpolation="auto" color-rendering="auto" preserveAspectRatio="xMidYMid meet" font-size="12" fill="black" xmlns:xlink="http://www.w3.org/1999/xlink" stroke="black" image-rendering="auto" stroke-miterlimit="10" zoomAndPan="magnify" version="1.0" stroke-linecap="square" stroke-linejoin="miter" contentStyleType="text/css" font-style="normal" height="192" stroke-width="1" stroke-dashoffset="0" font-weight="normal" stroke-opacity="1">
  <!--Generated by the Batik Graphics2D SVG Generator-->
  <defs id="genericDefs" />
  <g>
    <defs id="defs1">
      <clipPath clipPathUnits="userSpaceOnUse" id="clipPath1">
        <path d="M120 64 L152 64 L152 96 L120 96 L120 64 Z" />
      </clipPath>
      <clipPath clipPathUnits="userSpaceOnUse" id="clipPath2">
        <path d="M13 97 L45 97 L45 129 L13 129 L13 97 Z" />
      </clipPath>
      <clipPath clipPathUnits="userSpaceOnUse" id="clipPath3">
        <path d="M173 162 L205 162 L205 193 L173 193 L173 162 Z" />
      </clipPath>
      <clipPath clipPathUnits="userSpaceOnUse" id="clipPath4">
        <path d="M120 97 L152 97 L152 129 L120 129 L120 97 Z" />
      </clipPath>
      <clipPath clipPathUnits="userSpaceOnUse" id="clipPath5">
        <path d="M13 162 L45 162 L45 193 L13 193 L13 162 Z" />
      </clipPath>
      <clipPath clipPathUnits="userSpaceOnUse" id="clipPath6">
        <path d="M66 32 L98 32 L98 64 L66 64 L66 32 Z" />
      </clipPath>
      <clipPath clipPathUnits="userSpaceOnUse" id="clipPath7">
        <path d="M13 0 L45 0 L45 32 L13 32 L13 0 Z" />
      </clipPath>
      <clipPath clipPathUnits="userSpaceOnUse" id="clipPath8">
        <path d="M120 0 L152 0 L152 32 L120 32 L120 0 Z" />
      </clipPath>
      <clipPath clipPathUnits="userSpaceOnUse" id="clipPath9">
        <path d="M13 129 L45 129 L45 161 L13 161 L13 129 Z" />
      </clipPath>
      <clipPath clipPathUnits="userSpaceOnUse" id="clipPath10">
        <path d="M13 32 L45 32 L45 64 L13 64 L13 32 Z" />
      </clipPath>
      <clipPath clipPathUnits="userSpaceOnUse" id="clipPath11">
        <path d="M173 129 L205 129 L205 161 L173 161 L173 129 Z" />
      </clipPath>
      <clipPath clipPathUnits="userSpaceOnUse" id="clipPath12">
        <path d="M173 0 L205 0 L205 32 L173 32 L173 0 Z" />
      </clipPath>
      <clipPath clipPathUnits="userSpaceOnUse" id="clipPath13">
        <path d="M173 32 L205 32 L205 64 L173 64 L173 32 Z" />
      </clipPath>
      <clipPath clipPathUnits="userSpaceOnUse" id="clipPath14">
        <path d="M226 97 L258 97 L258 129 L226 129 L226 97 Z" />
      </clipPath>
      <clipPath clipPathUnits="userSpaceOnUse" id="clipPath15">
        <path d="M120 129 L152 129 L152 161 L120 161 L120 129 Z" />
      </clipPath>
      <clipPath clipPathUnits="userSpaceOnUse" id="clipPath16">
        <path d="M13 64 L45 64 L45 96 L13 96 L13 64 Z" />
      </clipPath>
      <clipPath clipPathUnits="userSpaceOnUse" id="clipPath17">
        <path d="M120 162 L152 162 L152 193 L120 193 L120 162 Z" />
      </clipPath>
    </defs>
    <g font-size="19" fill="rgb(14,14,14)" text-rendering="optimizeLegibility" font-family="&apos;Verdana&apos;" stroke-linejoin="round" stroke="rgb(14,14,14)" stroke-width="0" stroke-miterlimit="0">
      <rect width="271" x="0" height="162" y="16" stroke="none" />
    </g>
    <g stroke-linecap="butt" font-size="19" fill="rgb(14,14,14)" text-rendering="optimizeLegibility" font-family="&apos;Verdana&apos;" stroke="rgb(14,14,14)">
      <rect fill="none" width="271" x="0" height="162" y="16" />
      <rect x="0" y="16" fill="gray" width="5" height="162" stroke="none" />
      <rect x="0" y="16" fill="none" width="5" height="162" stroke="gray" />
      <rect x="53" y="16" fill="gray" width="5" height="162" stroke="none" />
      <rect x="53" y="16" fill="none" width="5" height="162" stroke="gray" />
      <rect x="106" y="16" fill="gray" width="5" height="162" stroke="none" />
      <rect x="106" y="16" fill="none" width="5" height="162" stroke="gray" />
      <rect x="159" y="16" fill="gray" width="5" height="162" stroke="none" />
      <rect x="159" y="16" fill="none" width="5" height="162" stroke="gray" />
      <rect x="212" y="16" fill="gray" width="5" height="162" stroke="none" />
      <rect x="212" y="16" fill="none" width="5" height="162" stroke="gray" />
      <rect x="266" y="16" fill="gray" width="5" height="162" stroke="none" />
      <rect x="266" y="16" fill="none" width="5" height="162" stroke="gray" />
      <line stroke-linecap="square" fill="none" x1="0" x2="271" y1="16" y2="16" stroke="white" />
      <line stroke-linecap="square" fill="none" x1="0" x2="271" y1="48" y2="48" stroke="white" />
      <line stroke-linecap="square" fill="none" x1="0" x2="271" y1="80" y2="80" stroke="white" />
      <rect stroke-linecap="square" x="0" y="111" fill="white" width="271" height="2" stroke="none" />
      <rect stroke-linecap="square" x="0" y="111" fill="none" width="271" height="2" stroke="rgb(48,48,48)" />
      <rect stroke-linecap="square" x="0" y="142" fill="white" width="271" height="3" stroke="none" />
      <rect stroke-linecap="square" x="0" y="142" fill="none" width="271" height="3" stroke="rgb(48,48,48)" />
      <rect stroke-linecap="square" x="0" y="174" fill="white" width="271" height="4" stroke="none" />
      <rect stroke-linecap="square" x="0" y="174" fill="none" width="271" height="4" stroke="rgb(48,48,48)" />
    </g>
    <g font-size="17" fill="rgb(255,38,0)" text-rendering="geometricPrecision" font-family="&apos;Arial&apos;" stroke="rgb(255,38,0)" font-weight="bold">
      <circle r="13" clip-path="url(#clipPath1)" cx="136" cy="80" stroke="none" />
      <circle stroke-linecap="butt" clip-path="url(#clipPath1)" fill="none" r="13" cx="136" cy="80" stroke-width="2" />
    </g>
    <g stroke-linecap="butt" font-size="17" text-rendering="geometricPrecision" font-family="&apos;Arial&apos;" font-weight="bold" stroke-width="2">
      <text xml:space="preserve" x="130" y="87" clip-path="url(#clipPath1)" stroke="none">R</text>
      <circle clip-path="url(#clipPath2)" fill="rgb(254,255,255)" r="13" cx="29" cy="113" stroke="none" />
      <circle clip-path="url(#clipPath2)" fill="none" r="13" cx="29" cy="113" stroke="rgb(254,255,255)" />
      <text x="19" font-size="16" y="118" clip-path="url(#clipPath2)" stroke="none" xml:space="preserve">p4</text>
      <circle clip-path="url(#clipPath3)" fill="rgb(254,255,255)" r="13" cx="189" cy="178" stroke="none" />
      <circle clip-path="url(#clipPath3)" fill="none" r="13" cx="189" cy="178" stroke="rgb(254,255,255)" />
      <text x="181" font-size="20" y="185" clip-path="url(#clipPath3)" font-family="&apos;OpusText&apos;" stroke="none" xml:space="preserve">b</text>
      <text x="188" font-size="16" y="184" clip-path="url(#clipPath3)" stroke="none" xml:space="preserve">7</text>
      <circle clip-path="url(#clipPath4)" fill="rgb(254,255,255)" r="13" cx="136" cy="113" stroke="none" />
      <circle clip-path="url(#clipPath4)" fill="none" r="13" cx="136" cy="113" stroke="rgb(254,255,255)" />
      <text x="126" font-size="16" y="118" clip-path="url(#clipPath4)" stroke="none" xml:space="preserve">p5</text>
      <circle clip-path="url(#clipPath5)" fill="rgb(254,255,255)" r="13" cx="29" cy="178" stroke="none" />
      <circle clip-path="url(#clipPath5)" fill="none" r="13" cx="29" cy="178" stroke="rgb(254,255,255)" />
      <text x="19" font-size="16" y="183" clip-path="url(#clipPath5)" stroke="none" xml:space="preserve">p5</text>
      <circle clip-path="url(#clipPath6)" fill="rgb(254,255,255)" r="13" cx="82" cy="48" stroke="none" />
      <circle clip-path="url(#clipPath6)" fill="none" r="13" cx="82" cy="48" stroke="rgb(254,255,255)" />
      <text x="74" font-size="20" y="55" clip-path="url(#clipPath6)" font-family="&apos;OpusText&apos;" stroke="none" xml:space="preserve">b</text>
      <text x="81" font-size="16" y="54" clip-path="url(#clipPath6)" stroke="none" xml:space="preserve">3</text>
      <circle clip-path="url(#clipPath7)" fill="rgb(254,255,255)" r="13" cx="29" cy="16" stroke="none" />
      <circle clip-path="url(#clipPath7)" fill="none" r="13" cx="29" cy="16" stroke="rgb(254,255,255)" />
      <text x="19" font-size="16" y="21" clip-path="url(#clipPath7)" stroke="none" xml:space="preserve">p5</text>
      <circle clip-path="url(#clipPath8)" fill="rgb(254,255,255)" r="13" cx="136" cy="16" stroke="none" />
      <circle clip-path="url(#clipPath8)" fill="none" r="13" cx="136" cy="16" stroke="rgb(254,255,255)" />
      <text x="126" font-size="20" y="28" clip-path="url(#clipPath8)" font-family="&apos;OpusText&apos;" stroke="none" xml:space="preserve">^</text>
      <text x="136" font-size="16" y="22" clip-path="url(#clipPath8)" stroke="none" xml:space="preserve">6</text>
      <circle clip-path="url(#clipPath9)" fill="rgb(255,38,0)" r="13" cx="29" cy="145" stroke="none" />
      <circle clip-path="url(#clipPath9)" fill="none" r="13" cx="29" cy="145" stroke="rgb(255,38,0)" />
      <text xml:space="preserve" x="23" y="152" clip-path="url(#clipPath9)" stroke="none">R</text>
      <circle clip-path="url(#clipPath10)" fill="rgb(254,255,255)" r="13" cx="29" cy="48" stroke="none" />
      <circle clip-path="url(#clipPath10)" fill="none" r="13" cx="29" cy="48" stroke="rgb(254,255,255)" />
      <text x="19" font-size="20" y="60" clip-path="url(#clipPath10)" font-family="&apos;OpusText&apos;" stroke="none" xml:space="preserve">^</text>
      <text x="29" font-size="16" y="54" clip-path="url(#clipPath10)" stroke="none" xml:space="preserve">2</text>
      <circle clip-path="url(#clipPath11)" fill="rgb(254,255,255)" r="13" cx="189" cy="145" stroke="none" />
      <circle clip-path="url(#clipPath11)" fill="none" r="13" cx="189" cy="145" stroke="rgb(254,255,255)" />
      <text x="181" font-size="20" y="152" clip-path="url(#clipPath11)" font-family="&apos;OpusText&apos;" stroke="none" xml:space="preserve">b</text>
      <text x="188" font-size="16" y="151" clip-path="url(#clipPath11)" stroke="none" xml:space="preserve">3</text>
      <circle clip-path="url(#clipPath12)" fill="rgb(254,255,255)" r="13" cx="189" cy="16" stroke="none" />
      <circle clip-path="url(#clipPath12)" fill="none" r="13" cx="189" cy="16" stroke="rgb(254,255,255)" />
      <text x="181" font-size="20" y="23" clip-path="url(#clipPath12)" font-family="&apos;OpusText&apos;" stroke="none" xml:space="preserve">b</text>
      <text x="188" font-size="16" y="22" clip-path="url(#clipPath12)" stroke="none" xml:space="preserve">7</text>
      <circle clip-path="url(#clipPath13)" fill="rgb(254,255,255)" r="13" cx="189" cy="48" stroke="none" />
      <circle clip-path="url(#clipPath13)" fill="none" r="13" cx="189" cy="48" stroke="rgb(254,255,255)" />
      <text x="179" font-size="16" y="53" clip-path="url(#clipPath13)" stroke="none" xml:space="preserve">p4</text>
      <circle clip-path="url(#clipPath14)" fill="rgb(254,255,255)" r="13" cx="242" cy="113" stroke="none" />
      <circle clip-path="url(#clipPath14)" fill="none" r="13" cx="242" cy="113" stroke="rgb(254,255,255)" />
      <text x="232" font-size="20" y="125" clip-path="url(#clipPath14)" font-family="&apos;OpusText&apos;" stroke="none" xml:space="preserve">^</text>
      <text x="242" font-size="16" y="119" clip-path="url(#clipPath14)" stroke="none" xml:space="preserve">6</text>
      <circle clip-path="url(#clipPath15)" fill="rgb(254,255,255)" r="13" cx="136" cy="145" stroke="none" />
      <circle clip-path="url(#clipPath15)" fill="none" r="13" cx="136" cy="145" stroke="rgb(254,255,255)" />
      <text x="126" font-size="20" y="157" clip-path="url(#clipPath15)" font-family="&apos;OpusText&apos;" stroke="none" xml:space="preserve">^</text>
      <text x="136" font-size="16" y="151" clip-path="url(#clipPath15)" stroke="none" xml:space="preserve">2</text>
      <circle clip-path="url(#clipPath16)" fill="rgb(254,255,255)" r="13" cx="29" cy="80" stroke="none" />
      <circle clip-path="url(#clipPath16)" fill="none" r="13" cx="29" cy="80" stroke="rgb(254,255,255)" />
      <text x="21" font-size="20" y="87" clip-path="url(#clipPath16)" font-family="&apos;OpusText&apos;" stroke="none" xml:space="preserve">b</text>
      <text x="28" font-size="16" y="86" clip-path="url(#clipPath16)" stroke="none" xml:space="preserve">7</text>
      <circle clip-path="url(#clipPath17)" fill="rgb(254,255,255)" r="13" cx="136" cy="178" stroke="none" />
      <circle clip-path="url(#clipPath17)" fill="none" r="13" cx="136" cy="178" stroke="rgb(254,255,255)" />
      <text x="126" font-size="20" y="190" clip-path="url(#clipPath17)" font-family="&apos;OpusText&apos;" stroke="none" xml:space="preserve">^</text>
      <text x="136" font-size="16" y="184" clip-path="url(#clipPath17)" stroke="none" xml:space="preserve">6</text>
    </g>
  </g>
</svg>
