<?xml version="1.0" encoding="ISO-8859-1"?>

<!DOCTYPE svg PUBLIC '-//W3C//DTD SVG 1.0//EN' 'http://www.w3.org/TR/2001/REC-SVG-20010904/DTD/svg10.dtd'>
<svg stroke-dasharray="none" shape-rendering="auto" xmlns="http://www.w3.org/2000/svg" font-family="&apos;Dialog&apos;" width="354" text-rendering="auto" fill-opacity="1" contentScriptType="text/ecmascript" color-interpolation="auto" color-rendering="auto" preserveAspectRatio="xMidYMid meet" font-size="12" fill="black" xmlns:xlink="http://www.w3.org/1999/xlink" stroke="black" image-rendering="auto" stroke-miterlimit="10" zoomAndPan="magnify" version="1.0" stroke-linecap="square" stroke-linejoin="miter" contentStyleType="text/css" font-style="normal" height="192" stroke-width="1" stroke-dashoffset="0" font-weight="normal" stroke-opacity="1">
  <!--Generated by the Batik Graphics2D SVG Generator-->
  <defs id="genericDefs" />
  <g>
    <defs id="defs1">
      <clipPath clipPathUnits="userSpaceOnUse" id="clipPath1">
        <path d="M52 64 L84 64 L84 96 L52 96 L52 64 Z" />
      </clipPath>
      <clipPath clipPathUnits="userSpaceOnUse" id="clipPath2">
        <path d="M139 64 L171 64 L171 96 L139 96 L139 64 Z" />
      </clipPath>
      <clipPath clipPathUnits="userSpaceOnUse" id="clipPath3">
        <path d="M95 162 L127 162 L127 193 L95 193 L95 162 Z" />
      </clipPath>
      <clipPath clipPathUnits="userSpaceOnUse" id="clipPath4">
        <path d="M52 97 L84 97 L84 129 L52 129 L52 97 Z" />
      </clipPath>
      <clipPath clipPathUnits="userSpaceOnUse" id="clipPath5">
        <path d="M226 129 L258 129 L258 161 L226 161 L226 129 Z" />
      </clipPath>
      <clipPath clipPathUnits="userSpaceOnUse" id="clipPath6">
        <path d="M95 129 L127 129 L127 161 L95 161 L95 129 Z" />
      </clipPath>
      <clipPath clipPathUnits="userSpaceOnUse" id="clipPath7">
        <path d="M52 32 L84 32 L84 64 L52 64 L52 32 Z" />
      </clipPath>
      <clipPath clipPathUnits="userSpaceOnUse" id="clipPath8">
        <path d="M52 0 L84 0 L84 32 L52 32 L52 0 Z" />
      </clipPath>
      <clipPath clipPathUnits="userSpaceOnUse" id="clipPath9">
        <path d="M95 64 L127 64 L127 96 L95 96 L95 64 Z" />
      </clipPath>
      <clipPath clipPathUnits="userSpaceOnUse" id="clipPath10">
        <path d="M95 97 L127 97 L127 129 L95 129 L95 97 Z" />
      </clipPath>
      <clipPath clipPathUnits="userSpaceOnUse" id="clipPath11">
        <path d="M182 97 L214 97 L214 129 L182 129 L182 97 Z" />
      </clipPath>
      <clipPath clipPathUnits="userSpaceOnUse" id="clipPath12">
        <path d="M52 129 L84 129 L84 161 L52 161 L52 129 Z" />
      </clipPath>
      <clipPath clipPathUnits="userSpaceOnUse" id="clipPath13">
        <path d="M226 97 L258 97 L258 129 L226 129 L226 97 Z" />
      </clipPath>
      <clipPath clipPathUnits="userSpaceOnUse" id="clipPath14">
        <path d="M95 32 L127 32 L127 64 L95 64 L95 32 Z" />
      </clipPath>
      <clipPath clipPathUnits="userSpaceOnUse" id="clipPath15">
        <path d="M95 0 L127 0 L127 32 L95 32 L95 0 Z" />
      </clipPath>
      <clipPath clipPathUnits="userSpaceOnUse" id="clipPath16">
        <path d="M139 97 L171 97 L171 129 L139 129 L139 97 Z" />
      </clipPath>
      <clipPath clipPathUnits="userSpaceOnUse" id="clipPath17">
        <path d="M139 129 L171 129 L171 161 L139 161 L139 129 Z" />
      </clipPath>
      <clipPath clipPathUnits="userSpaceOnUse" id="clipPath18">
        <path d="M139 162 L171 162 L171 193 L139 193 L139 162 Z" />
      </clipPath>
      <clipPath clipPathUnits="userSpaceOnUse" id="clipPath19">
        <path d="M182 129 L214 129 L214 161 L182 161 L182 129 Z" />
      </clipPath>
      <clipPath clipPathUnits="userSpaceOnUse" id="clipPath20">
        <path d="M182 162 L214 162 L214 193 L182 193 L182 162 Z" />
      </clipPath>
      <clipPath clipPathUnits="userSpaceOnUse" id="clipPath21">
        <path d="M226 162 L258 162 L258 193 L226 193 L226 162 Z" />
      </clipPath>
      <clipPath clipPathUnits="userSpaceOnUse" id="clipPath22">
        <path d="M182 64 L214 64 L214 96 L182 96 L182 64 Z" />
      </clipPath>
      <clipPath clipPathUnits="userSpaceOnUse" id="clipPath23">
        <path d="M226 64 L258 64 L258 96 L226 96 L226 64 Z" />
      </clipPath>
      <clipPath clipPathUnits="userSpaceOnUse" id="clipPath24">
        <path d="M139 32 L171 32 L171 64 L139 64 L139 32 Z" />
      </clipPath>
      <clipPath clipPathUnits="userSpaceOnUse" id="clipPath25">
        <path d="M182 32 L214 32 L214 64 L182 64 L182 32 Z" />
      </clipPath>
      <clipPath clipPathUnits="userSpaceOnUse" id="clipPath26">
        <path d="M226 32 L258 32 L258 64 L226 64 L226 32 Z" />
      </clipPath>
    </defs>
    <g font-size="19" fill="rgb(14,14,14)" text-rendering="optimizeLegibility" font-family="&apos;Verdana&apos;" stroke-linejoin="round" stroke="rgb(14,14,14)" stroke-width="0" stroke-miterlimit="0">
      <rect width="353" x="0" height="162" y="16" stroke="none" />
    </g>
    <g stroke-linecap="butt" font-size="19" fill="rgb(14,14,14)" text-rendering="optimizeLegibility" font-family="&apos;Verdana&apos;" stroke="rgb(14,14,14)">
      <rect fill="none" width="353" x="0" height="162" y="16" />
      <rect x="0" y="16" fill="gray" width="5" height="162" stroke="none" />
      <rect x="0" y="16" fill="none" width="5" height="162" stroke="gray" />
      <rect x="43" y="16" fill="gray" width="5" height="162" stroke="none" />
      <rect x="43" y="16" fill="none" width="5" height="162" stroke="gray" />
      <rect x="87" y="16" fill="gray" width="5" height="162" stroke="none" />
      <rect x="87" y="16" fill="none" width="5" height="162" stroke="gray" />
      <rect x="130" y="16" fill="gray" width="5" height="162" stroke="none" />
      <rect x="130" y="16" fill="none" width="5" height="162" stroke="gray" />
      <rect x="174" y="16" fill="gray" width="5" height="162" stroke="none" />
      <rect x="174" y="16" fill="none" width="5" height="162" stroke="gray" />
      <rect x="217" y="16" fill="gray" width="5" height="162" stroke="none" />
      <rect x="217" y="16" fill="none" width="5" height="162" stroke="gray" />
      <rect x="261" y="16" fill="gray" width="5" height="162" stroke="none" />
      <rect x="261" y="16" fill="none" width="5" height="162" stroke="gray" />
      <rect x="304" y="16" fill="gray" width="5" height="162" stroke="none" />
      <rect x="304" y="16" fill="none" width="5" height="162" stroke="gray" />
      <rect x="348" y="16" fill="gray" width="5" height="162" stroke="none" />
      <rect x="348" y="16" fill="none" width="5" height="162" stroke="gray" />
      <line stroke-linecap="square" fill="none" x1="0" x2="353" y1="16" y2="16" stroke="white" />
      <line stroke-linecap="square" fill="none" x1="0" x2="353" y1="48" y2="48" stroke="white" />
      <line stroke-linecap="square" fill="none" x1="0" x2="353" y1="80" y2="80" stroke="white" />
      <rect stroke-linecap="square" x="0" y="111" fill="white" width="353" height="2" stroke="none" />
      <rect stroke-linecap="square" x="0" y="111" fill="none" width="353" height="2" stroke="rgb(48,48,48)" />
      <rect stroke-linecap="square" x="0" y="142" fill="white" width="353" height="3" stroke="none" />
      <rect stroke-linecap="square" x="0" y="142" fill="none" width="353" height="3" stroke="rgb(48,48,48)" />
      <rect stroke-linecap="square" x="0" y="174" fill="white" width="353" height="4" stroke="none" />
      <rect stroke-linecap="square" x="0" y="174" fill="none" width="353" height="4" stroke="rgb(48,48,48)" />
    </g>
    <g font-size="16" fill="rgb(254,255,255)" text-rendering="geometricPrecision" font-family="&apos;Arial&apos;" stroke="rgb(254,255,255)" font-weight="bold">
      <circle r="13" clip-path="url(#clipPath1)" cx="68" cy="80" stroke="none" />
      <circle stroke-linecap="butt" clip-path="url(#clipPath1)" fill="none" r="13" cx="68" cy="80" stroke-width="2" />
    </g>
    <g stroke-linecap="butt" font-size="20" text-rendering="geometricPrecision" font-family="&apos;OpusText&apos;" font-weight="bold" stroke-width="2">
      <text xml:space="preserve" x="58" y="92" clip-path="url(#clipPath1)" stroke="none">^</text>
      <text x="68" font-size="16" y="86" clip-path="url(#clipPath1)" font-family="&apos;Arial&apos;" stroke="none" xml:space="preserve">2</text>
    </g>
    <g stroke-linecap="butt" font-size="16" fill="rgb(254,255,255)" text-rendering="geometricPrecision" font-family="&apos;Arial&apos;" stroke="rgb(254,255,255)" font-weight="bold" stroke-width="2">
      <circle r="13" clip-path="url(#clipPath2)" cx="155" cy="80" stroke="none" />
      <circle fill="none" r="13" clip-path="url(#clipPath2)" cx="155" cy="80" />
    </g>
    <g stroke-linecap="butt" font-size="20" text-rendering="geometricPrecision" font-family="&apos;OpusText&apos;" font-weight="bold" stroke-width="2">
      <text xml:space="preserve" x="145" y="92" clip-path="url(#clipPath2)" stroke="none">^</text>
      <text x="155" font-size="16" y="86" clip-path="url(#clipPath2)" font-family="&apos;Arial&apos;" stroke="none" xml:space="preserve">3</text>
    </g>
    <g stroke-linecap="butt" font-size="17" fill="red" text-rendering="geometricPrecision" font-family="&apos;Arial&apos;" stroke="red" font-weight="bold" stroke-width="2">
      <circle r="13" clip-path="url(#clipPath3)" cx="111" cy="178" stroke="none" />
      <circle fill="none" r="13" clip-path="url(#clipPath3)" cx="111" cy="178" />
      <text x="105" y="185" clip-path="url(#clipPath3)" fill="black" stroke="none" xml:space="preserve">R</text>
      <circle clip-path="url(#clipPath4)" fill="rgb(254,255,255)" r="13" cx="68" cy="113" stroke="none" />
      <circle clip-path="url(#clipPath4)" fill="none" r="13" cx="68" cy="113" stroke="rgb(254,255,255)" />
    </g>
    <g stroke-linecap="butt" font-size="20" text-rendering="geometricPrecision" font-family="&apos;OpusText&apos;" font-weight="bold" stroke-width="2">
      <text xml:space="preserve" x="58" y="125" clip-path="url(#clipPath4)" stroke="none">^</text>
      <text x="68" font-size="16" y="119" clip-path="url(#clipPath4)" font-family="&apos;Arial&apos;" stroke="none" xml:space="preserve">6</text>
    </g>
    <g stroke-linecap="butt" font-size="16" fill="rgb(254,255,255)" text-rendering="geometricPrecision" font-family="&apos;Arial&apos;" stroke="rgb(254,255,255)" font-weight="bold" stroke-width="2">
      <circle r="13" clip-path="url(#clipPath5)" cx="242" cy="145" stroke="none" />
      <circle fill="none" r="13" clip-path="url(#clipPath5)" cx="242" cy="145" />
    </g>
    <g stroke-linecap="butt" font-size="20" text-rendering="geometricPrecision" font-family="&apos;OpusText&apos;" font-weight="bold" stroke-width="2">
      <text xml:space="preserve" x="234" y="152" clip-path="url(#clipPath5)" stroke="none">b</text>
      <text x="241" font-size="16" y="151" clip-path="url(#clipPath5)" font-family="&apos;Arial&apos;" stroke="none" xml:space="preserve">6</text>
    </g>
    <g stroke-linecap="butt" font-size="16" fill="rgb(254,255,255)" text-rendering="geometricPrecision" font-family="&apos;Arial&apos;" stroke="rgb(254,255,255)" font-weight="bold" stroke-width="2">
      <circle r="13" clip-path="url(#clipPath6)" cx="111" cy="145" stroke="none" />
      <circle fill="none" r="13" clip-path="url(#clipPath6)" cx="111" cy="145" />
      <text x="101" y="150" clip-path="url(#clipPath6)" fill="black" stroke="none" xml:space="preserve">p4</text>
      <circle r="13" clip-path="url(#clipPath7)" cx="68" cy="48" stroke="none" />
      <circle fill="none" r="13" clip-path="url(#clipPath7)" cx="68" cy="48" />
    </g>
    <g stroke-linecap="butt" font-size="20" text-rendering="geometricPrecision" font-family="&apos;OpusText&apos;" font-weight="bold" stroke-width="2">
      <text xml:space="preserve" x="60" y="55" clip-path="url(#clipPath7)" stroke="none">b</text>
      <text x="67" font-size="16" y="54" clip-path="url(#clipPath7)" font-family="&apos;Arial&apos;" stroke="none" xml:space="preserve">5</text>
    </g>
    <g stroke-linecap="butt" font-size="16" fill="rgb(254,255,255)" text-rendering="geometricPrecision" font-family="&apos;Arial&apos;" stroke="rgb(254,255,255)" font-weight="bold" stroke-width="2">
      <circle r="13" clip-path="url(#clipPath8)" cx="68" cy="16" stroke="none" />
      <circle fill="none" r="13" clip-path="url(#clipPath8)" cx="68" cy="16" />
    </g>
    <g stroke-linecap="butt" font-size="20" text-rendering="geometricPrecision" font-family="&apos;OpusText&apos;" font-weight="bold" stroke-width="2">
      <text xml:space="preserve" x="58" y="28" clip-path="url(#clipPath8)" stroke="none">^</text>
      <text x="68" font-size="16" y="22" clip-path="url(#clipPath8)" font-family="&apos;Arial&apos;" stroke="none" xml:space="preserve">7</text>
    </g>
    <g stroke-linecap="butt" font-size="17" fill="rgb(254,255,255)" text-rendering="geometricPrecision" font-family="&apos;Arial&apos;" stroke="rgb(254,255,255)" font-weight="bold" stroke-width="2">
      <circle r="13" clip-path="url(#clipPath9)" cx="111" cy="80" stroke="none" />
      <circle fill="none" r="13" clip-path="url(#clipPath9)" cx="111" cy="80" />
      <circle r="13" clip-path="url(#clipPath10)" cx="111" cy="113" stroke="none" />
      <circle fill="none" r="13" clip-path="url(#clipPath10)" cx="111" cy="113" />
    </g>
    <g stroke-linecap="butt" font-size="20" text-rendering="geometricPrecision" font-family="&apos;OpusText&apos;" font-weight="bold" stroke-width="2">
      <text xml:space="preserve" x="103" y="120" clip-path="url(#clipPath10)" stroke="none">b</text>
      <text x="110" font-size="16" y="119" clip-path="url(#clipPath10)" font-family="&apos;Arial&apos;" stroke="none" xml:space="preserve">7</text>
    </g>
    <g stroke-linecap="butt" font-size="17" fill="red" text-rendering="geometricPrecision" font-family="&apos;Arial&apos;" stroke="red" font-weight="bold" stroke-width="2">
      <circle r="13" clip-path="url(#clipPath11)" cx="198" cy="113" stroke="none" />
      <circle fill="none" r="13" clip-path="url(#clipPath11)" cx="198" cy="113" />
      <text x="192" y="120" clip-path="url(#clipPath11)" fill="black" stroke="none" xml:space="preserve">R</text>
      <circle clip-path="url(#clipPath12)" fill="rgb(254,255,255)" r="13" cx="68" cy="145" stroke="none" />
      <circle clip-path="url(#clipPath12)" fill="none" r="13" cx="68" cy="145" stroke="rgb(254,255,255)" />
    </g>
    <g stroke-linecap="butt" font-size="20" text-rendering="geometricPrecision" font-family="&apos;OpusText&apos;" font-weight="bold" stroke-width="2">
      <text xml:space="preserve" x="58" y="157" clip-path="url(#clipPath12)" stroke="none">^</text>
      <text x="68" font-size="16" y="151" clip-path="url(#clipPath12)" font-family="&apos;Arial&apos;" stroke="none" xml:space="preserve">3</text>
    </g>
    <g stroke-linecap="butt" font-size="16" fill="rgb(254,255,255)" text-rendering="geometricPrecision" font-family="&apos;Arial&apos;" stroke="rgb(254,255,255)" font-weight="bold" stroke-width="2">
      <circle r="13" clip-path="url(#clipPath13)" cx="242" cy="113" stroke="none" />
      <circle fill="none" r="13" clip-path="url(#clipPath13)" cx="242" cy="113" />
    </g>
    <g stroke-linecap="butt" font-size="20" text-rendering="geometricPrecision" font-family="&apos;OpusText&apos;" font-weight="bold" stroke-width="2">
      <text xml:space="preserve" x="234" y="120" clip-path="url(#clipPath13)" stroke="none">b</text>
      <text x="241" font-size="16" y="119" clip-path="url(#clipPath13)" font-family="&apos;Arial&apos;" stroke="none" xml:space="preserve">2</text>
    </g>
    <g stroke-linecap="butt" font-size="16" fill="rgb(254,255,255)" text-rendering="geometricPrecision" font-family="&apos;Arial&apos;" stroke="rgb(254,255,255)" font-weight="bold" stroke-width="2">
      <circle r="13" clip-path="url(#clipPath14)" cx="111" cy="48" stroke="none" />
      <circle fill="none" r="13" clip-path="url(#clipPath14)" cx="111" cy="48" />
      <text x="101" y="53" clip-path="url(#clipPath14)" fill="black" stroke="none" xml:space="preserve">p5</text>
      <circle clip-path="url(#clipPath15)" fill="red" r="13" cx="111" cy="16" stroke="none" />
      <circle clip-path="url(#clipPath15)" fill="none" r="13" cx="111" cy="16" stroke="red" />
      <text x="105" font-size="17" y="23" clip-path="url(#clipPath15)" fill="black" stroke="none" xml:space="preserve">R</text>
      <circle r="13" clip-path="url(#clipPath16)" cx="155" cy="113" stroke="none" />
      <circle fill="none" r="13" clip-path="url(#clipPath16)" cx="155" cy="113" />
    </g>
    <g stroke-linecap="butt" font-size="20" text-rendering="geometricPrecision" font-family="&apos;OpusText&apos;" font-weight="bold" stroke-width="2">
      <text xml:space="preserve" x="145" y="125" clip-path="url(#clipPath16)" stroke="none">^</text>
      <text x="155" font-size="16" y="119" clip-path="url(#clipPath16)" font-family="&apos;Arial&apos;" stroke="none" xml:space="preserve">7</text>
    </g>
    <g stroke-linecap="butt" font-size="16" fill="rgb(254,255,255)" text-rendering="geometricPrecision" font-family="&apos;Arial&apos;" stroke="rgb(254,255,255)" font-weight="bold" stroke-width="2">
      <circle r="13" clip-path="url(#clipPath17)" cx="155" cy="145" stroke="none" />
      <circle fill="none" r="13" clip-path="url(#clipPath17)" cx="155" cy="145" />
    </g>
    <g stroke-linecap="butt" font-size="20" text-rendering="geometricPrecision" font-family="&apos;OpusText&apos;" font-weight="bold" stroke-width="2">
      <text xml:space="preserve" x="147" y="152" clip-path="url(#clipPath17)" stroke="none">b</text>
      <text x="154" font-size="16" y="151" clip-path="url(#clipPath17)" font-family="&apos;Arial&apos;" stroke="none" xml:space="preserve">5</text>
    </g>
    <g stroke-linecap="butt" font-size="16" fill="rgb(254,255,255)" text-rendering="geometricPrecision" font-family="&apos;Arial&apos;" stroke="rgb(254,255,255)" font-weight="bold" stroke-width="2">
      <circle r="13" clip-path="url(#clipPath18)" cx="155" cy="178" stroke="none" />
      <circle fill="none" r="13" clip-path="url(#clipPath18)" cx="155" cy="178" />
    </g>
    <g stroke-linecap="butt" font-size="20" text-rendering="geometricPrecision" font-family="&apos;OpusText&apos;" font-weight="bold" stroke-width="2">
      <text xml:space="preserve" x="147" y="185" clip-path="url(#clipPath18)" stroke="none">b</text>
      <text x="154" font-size="16" y="184" clip-path="url(#clipPath18)" font-family="&apos;Arial&apos;" stroke="none" xml:space="preserve">2</text>
    </g>
    <g stroke-linecap="butt" font-size="16" fill="rgb(254,255,255)" text-rendering="geometricPrecision" font-family="&apos;Arial&apos;" stroke="rgb(254,255,255)" font-weight="bold" stroke-width="2">
      <circle r="13" clip-path="url(#clipPath9)" cx="111" cy="80" stroke="none" />
      <circle fill="none" r="13" clip-path="url(#clipPath9)" cx="111" cy="80" />
    </g>
    <g stroke-linecap="butt" font-size="20" text-rendering="geometricPrecision" font-family="&apos;OpusText&apos;" font-weight="bold" stroke-width="2">
      <text xml:space="preserve" x="103" y="87" clip-path="url(#clipPath9)" stroke="none">b</text>
      <text x="110" font-size="16" y="86" clip-path="url(#clipPath9)" font-family="&apos;Arial&apos;" stroke="none" xml:space="preserve">3</text>
    </g>
    <g stroke-linecap="butt" font-size="16" fill="rgb(254,255,255)" text-rendering="geometricPrecision" font-family="&apos;Arial&apos;" stroke="rgb(254,255,255)" font-weight="bold" stroke-width="2">
      <circle r="13" clip-path="url(#clipPath19)" cx="198" cy="145" stroke="none" />
      <circle fill="none" r="13" clip-path="url(#clipPath19)" cx="198" cy="145" />
      <text x="188" y="150" clip-path="url(#clipPath19)" fill="black" stroke="none" xml:space="preserve">p5</text>
      <circle r="13" clip-path="url(#clipPath20)" cx="198" cy="178" stroke="none" />
      <circle fill="none" r="13" clip-path="url(#clipPath20)" cx="198" cy="178" />
    </g>
    <g stroke-linecap="butt" font-size="20" text-rendering="geometricPrecision" font-family="&apos;OpusText&apos;" font-weight="bold" stroke-width="2">
      <text xml:space="preserve" x="188" y="190" clip-path="url(#clipPath20)" stroke="none">^</text>
      <text x="198" font-size="16" y="184" clip-path="url(#clipPath20)" font-family="&apos;Arial&apos;" stroke="none" xml:space="preserve">2</text>
    </g>
    <g stroke-linecap="butt" font-size="16" fill="rgb(254,255,255)" text-rendering="geometricPrecision" font-family="&apos;Arial&apos;" stroke="rgb(254,255,255)" font-weight="bold" stroke-width="2">
      <circle r="13" clip-path="url(#clipPath21)" cx="242" cy="178" stroke="none" />
      <circle fill="none" r="13" clip-path="url(#clipPath21)" cx="242" cy="178" />
    </g>
    <g stroke-linecap="butt" font-size="20" text-rendering="geometricPrecision" font-family="&apos;OpusText&apos;" font-weight="bold" stroke-width="2">
      <text xml:space="preserve" x="234" y="185" clip-path="url(#clipPath21)" stroke="none">b</text>
      <text x="241" font-size="16" y="184" clip-path="url(#clipPath21)" font-family="&apos;Arial&apos;" stroke="none" xml:space="preserve">3</text>
    </g>
    <g stroke-linecap="butt" font-size="16" fill="rgb(254,255,255)" text-rendering="geometricPrecision" font-family="&apos;Arial&apos;" stroke="rgb(254,255,255)" font-weight="bold" stroke-width="2">
      <circle r="13" clip-path="url(#clipPath22)" cx="198" cy="80" stroke="none" />
      <circle fill="none" r="13" clip-path="url(#clipPath22)" cx="198" cy="80" />
      <text x="188" y="85" clip-path="url(#clipPath22)" fill="black" stroke="none" xml:space="preserve">p4</text>
      <circle r="13" clip-path="url(#clipPath23)" cx="242" cy="80" stroke="none" />
      <circle fill="none" r="13" clip-path="url(#clipPath23)" cx="242" cy="80" />
    </g>
    <g stroke-linecap="butt" font-size="20" text-rendering="geometricPrecision" font-family="&apos;OpusText&apos;" font-weight="bold" stroke-width="2">
      <text xml:space="preserve" x="234" y="87" clip-path="url(#clipPath23)" stroke="none">b</text>
      <text x="241" font-size="16" y="86" clip-path="url(#clipPath23)" font-family="&apos;Arial&apos;" stroke="none" xml:space="preserve">5</text>
    </g>
    <g stroke-linecap="butt" font-size="16" fill="rgb(254,255,255)" text-rendering="geometricPrecision" font-family="&apos;Arial&apos;" stroke="rgb(254,255,255)" font-weight="bold" stroke-width="2">
      <circle r="13" clip-path="url(#clipPath24)" cx="155" cy="48" stroke="none" />
      <circle fill="none" r="13" clip-path="url(#clipPath24)" cx="155" cy="48" />
    </g>
    <g stroke-linecap="butt" font-size="20" text-rendering="geometricPrecision" font-family="&apos;OpusText&apos;" font-weight="bold" stroke-width="2">
      <text xml:space="preserve" x="147" y="55" clip-path="url(#clipPath24)" stroke="none">b</text>
      <text x="154" font-size="16" y="54" clip-path="url(#clipPath24)" font-family="&apos;Arial&apos;" stroke="none" xml:space="preserve">6</text>
    </g>
    <g stroke-linecap="butt" font-size="16" fill="rgb(254,255,255)" text-rendering="geometricPrecision" font-family="&apos;Arial&apos;" stroke="rgb(254,255,255)" font-weight="bold" stroke-width="2">
      <circle r="13" clip-path="url(#clipPath25)" cx="198" cy="48" stroke="none" />
      <circle fill="none" r="13" clip-path="url(#clipPath25)" cx="198" cy="48" />
    </g>
    <g stroke-linecap="butt" font-size="20" text-rendering="geometricPrecision" font-family="&apos;OpusText&apos;" font-weight="bold" stroke-width="2">
      <text xml:space="preserve" x="188" y="60" clip-path="url(#clipPath25)" stroke="none">^</text>
      <text x="198" font-size="16" y="54" clip-path="url(#clipPath25)" font-family="&apos;Arial&apos;" stroke="none" xml:space="preserve">6</text>
    </g>
    <g stroke-linecap="butt" font-size="16" fill="rgb(254,255,255)" text-rendering="geometricPrecision" font-family="&apos;Arial&apos;" stroke="rgb(254,255,255)" font-weight="bold" stroke-width="2">
      <circle r="13" clip-path="url(#clipPath26)" cx="242" cy="48" stroke="none" />
      <circle fill="none" r="13" clip-path="url(#clipPath26)" cx="242" cy="48" />
    </g>
    <g stroke-linecap="butt" font-size="20" text-rendering="geometricPrecision" font-family="&apos;OpusText&apos;" font-weight="bold" stroke-width="2">
      <text xml:space="preserve" x="234" y="55" clip-path="url(#clipPath26)" stroke="none">b</text>
      <text x="241" font-size="16" y="54" clip-path="url(#clipPath26)" font-family="&apos;Arial&apos;" stroke="none" xml:space="preserve">7</text>
    </g>
  </g>
</svg>
