<?xml version="1.0" encoding="ISO-8859-1"?>

<!DOCTYPE svg PUBLIC '-//W3C//DTD SVG 1.0//EN' 'http://www.w3.org/TR/2001/REC-SVG-20010904/DTD/svg10.dtd'>
<svg stroke-dasharray="none" shape-rendering="auto" xmlns="http://www.w3.org/2000/svg" font-family="&apos;Dialog&apos;" width="274" text-rendering="auto" fill-opacity="1" contentScriptType="text/ecmascript" color-interpolation="auto" color-rendering="auto" preserveAspectRatio="xMidYMid meet" font-size="12" fill="black" xmlns:xlink="http://www.w3.org/1999/xlink" stroke="black" image-rendering="auto" stroke-miterlimit="10" zoomAndPan="magnify" version="1.0" stroke-linecap="square" stroke-linejoin="miter" contentStyleType="text/css" font-style="normal" height="185" stroke-width="1" stroke-dashoffset="0" font-weight="normal" stroke-opacity="1">
  <!--Generated by the Batik Graphics2D SVG Generator-->
  <defs id="genericDefs" />
  <g>
    <defs id="defs1">
      <clipPath clipPathUnits="userSpaceOnUse" id="clipPath1">
        <path d="M13 92 L45 92 L45 124 L13 124 L13 92 Z" />
      </clipPath>
      <clipPath clipPathUnits="userSpaceOnUse" id="clipPath2">
        <path d="M13 124 L45 124 L45 156 L13 156 L13 124 Z" />
      </clipPath>
      <clipPath clipPathUnits="userSpaceOnUse" id="clipPath3">
        <path d="M13 61 L45 61 L45 93 L13 93 L13 61 Z" />
      </clipPath>
      <clipPath clipPathUnits="userSpaceOnUse" id="clipPath4">
        <path d="M13 -1 L45 -1 L45 31 L13 31 L13 -1 Z" />
      </clipPath>
      <clipPath clipPathUnits="userSpaceOnUse" id="clipPath5">
        <path d="M67 30 L99 30 L99 62 L67 62 L67 30 Z" />
      </clipPath>
      <clipPath clipPathUnits="userSpaceOnUse" id="clipPath6">
        <path d="M121 -1 L153 -1 L153 31 L121 31 L121 -1 Z" />
      </clipPath>
      <clipPath clipPathUnits="userSpaceOnUse" id="clipPath7">
        <path d="M67 124 L99 124 L99 156 L67 156 L67 124 Z" />
      </clipPath>
      <clipPath clipPathUnits="userSpaceOnUse" id="clipPath8">
        <path d="M13 155 L45 155 L45 186 L13 186 L13 155 Z" />
      </clipPath>
      <clipPath clipPathUnits="userSpaceOnUse" id="clipPath9">
        <path d="M121 155 L153 155 L153 186 L121 186 L121 155 Z" />
      </clipPath>
      <clipPath clipPathUnits="userSpaceOnUse" id="clipPath10">
        <path d="M174 -1 L206 -1 L206 31 L174 31 L174 -1 Z" />
      </clipPath>
      <clipPath clipPathUnits="userSpaceOnUse" id="clipPath11">
        <path d="M121 61 L153 61 L153 93 L121 93 L121 61 Z" />
      </clipPath>
      <clipPath clipPathUnits="userSpaceOnUse" id="clipPath12">
        <path d="M121 92 L153 92 L153 124 L121 124 L121 92 Z" />
      </clipPath>
      <clipPath clipPathUnits="userSpaceOnUse" id="clipPath13">
        <path d="M174 124 L206 124 L206 156 L174 156 L174 124 Z" />
      </clipPath>
      <clipPath clipPathUnits="userSpaceOnUse" id="clipPath14">
        <path d="M174 155 L206 155 L206 186 L174 186 L174 155 Z" />
      </clipPath>
      <clipPath clipPathUnits="userSpaceOnUse" id="clipPath15">
        <path d="M174 61 L206 61 L206 93 L174 93 L174 61 Z" />
      </clipPath>
      <clipPath clipPathUnits="userSpaceOnUse" id="clipPath16">
        <path d="M174 30 L206 30 L206 62 L174 62 L174 30 Z" />
      </clipPath>
      <clipPath clipPathUnits="userSpaceOnUse" id="clipPath17">
        <path d="M228 92 L260 92 L260 124 L228 124 L228 92 Z" />
      </clipPath>
    </defs>
    <g font-size="19" text-rendering="optimizeLegibility" font-family="&apos;Verdana&apos;" stroke-linejoin="round" stroke-width="0" stroke-miterlimit="0">
      <rect width="273" x="0" height="156" y="15" stroke="none" />
    </g>
    <g text-rendering="optimizeLegibility" font-size="19" font-family="&apos;Verdana&apos;" stroke-linecap="butt">
      <rect fill="none" width="273" x="0" height="156" y="15" />
      <rect x="0" y="15" fill="gray" width="5" height="156" stroke="none" />
      <rect x="0" y="15" fill="none" width="5" height="156" stroke="gray" />
      <rect x="53" y="15" fill="gray" width="5" height="156" stroke="none" />
      <rect x="53" y="15" fill="none" width="5" height="156" stroke="gray" />
      <rect x="107" y="15" fill="gray" width="5" height="156" stroke="none" />
      <rect x="107" y="15" fill="none" width="5" height="156" stroke="gray" />
      <rect x="160" y="15" fill="gray" width="5" height="156" stroke="none" />
      <rect x="160" y="15" fill="none" width="5" height="156" stroke="gray" />
      <rect x="214" y="15" fill="gray" width="5" height="156" stroke="none" />
      <rect x="214" y="15" fill="none" width="5" height="156" stroke="gray" />
      <rect x="268" y="15" fill="gray" width="5" height="156" stroke="none" />
      <rect x="268" y="15" fill="none" width="5" height="156" stroke="gray" />
      <line stroke-linecap="square" fill="none" x1="0" x2="273" y1="15" y2="15" stroke="white" />
      <line stroke-linecap="square" fill="none" x1="0" x2="273" y1="46" y2="46" stroke="white" />
      <line stroke-linecap="square" fill="none" x1="0" x2="273" y1="77" y2="77" stroke="white" />
      <rect stroke-linecap="square" x="0" y="106" fill="white" width="273" height="2" stroke="none" />
      <rect stroke-linecap="square" x="0" y="106" fill="none" width="273" height="2" stroke="rgb(48,48,48)" />
      <rect stroke-linecap="square" x="0" y="137" fill="white" width="273" height="3" stroke="none" />
      <rect stroke-linecap="square" x="0" y="137" fill="none" width="273" height="3" stroke="rgb(48,48,48)" />
      <rect stroke-linecap="square" x="0" y="167" fill="white" width="273" height="4" stroke="none" />
      <rect stroke-linecap="square" x="0" y="167" fill="none" width="273" height="4" stroke="rgb(48,48,48)" />
    </g>
    <g font-size="16" fill="white" text-rendering="geometricPrecision" font-family="&apos;Arial&apos;" stroke="white" font-weight="bold">
      <circle r="13" clip-path="url(#clipPath1)" cx="29" cy="108" stroke="none" />
      <circle stroke-linecap="butt" clip-path="url(#clipPath1)" fill="none" r="13" cx="29" cy="108" stroke-width="2" />
    </g>
    <g stroke-linecap="butt" font-size="16" fill="rgb(14,14,14)" text-rendering="geometricPrecision" font-family="&apos;Arial&apos;" stroke="rgb(14,14,14)" font-weight="bold" stroke-width="2">
      <text xml:space="preserve" x="19" y="113" clip-path="url(#clipPath1)" stroke="none">p5</text>
      <circle clip-path="url(#clipPath2)" fill="white" r="13" cx="29" cy="140" stroke="none" />
      <circle clip-path="url(#clipPath2)" fill="none" r="13" cx="29" cy="140" stroke="white" />
      <text x="19" font-size="20" y="152" clip-path="url(#clipPath2)" font-family="&apos;OpusText&apos;" stroke="none" xml:space="preserve">^</text>
      <text xml:space="preserve" x="29" y="146" clip-path="url(#clipPath2)" stroke="none">2</text>
      <circle clip-path="url(#clipPath3)" fill="red" r="13" cx="29" cy="77" stroke="none" />
      <circle clip-path="url(#clipPath3)" fill="none" r="13" cx="29" cy="77" stroke="red" />
      <text x="23" font-size="17" y="84" clip-path="url(#clipPath3)" stroke="none" xml:space="preserve">R</text>
      <circle clip-path="url(#clipPath4)" fill="white" r="13" cx="29" cy="15" stroke="none" />
      <circle clip-path="url(#clipPath4)" fill="none" r="13" cx="29" cy="15" stroke="white" />
      <text x="19" font-size="20" y="27" clip-path="url(#clipPath4)" font-family="&apos;OpusText&apos;" stroke="none" xml:space="preserve">^</text>
      <text xml:space="preserve" x="29" y="21" clip-path="url(#clipPath4)" stroke="none">6</text>
      <circle clip-path="url(#clipPath5)" fill="white" r="13" cx="83" cy="46" stroke="none" />
      <circle clip-path="url(#clipPath5)" fill="none" r="13" cx="83" cy="46" stroke="white" />
      <text xml:space="preserve" x="73" y="51" clip-path="url(#clipPath5)" stroke="none">p4</text>
      <circle clip-path="url(#clipPath6)" fill="white" r="13" cx="137" cy="15" stroke="none" />
      <circle clip-path="url(#clipPath6)" fill="none" r="13" cx="137" cy="15" stroke="white" />
      <text x="127" font-size="20" y="27" clip-path="url(#clipPath6)" font-family="&apos;OpusText&apos;" stroke="none" xml:space="preserve">^</text>
      <text xml:space="preserve" x="137" y="21" clip-path="url(#clipPath6)" stroke="none">7</text>
      <circle clip-path="url(#clipPath7)" fill="white" r="13" cx="83" cy="140" stroke="none" />
      <circle clip-path="url(#clipPath7)" fill="none" r="13" cx="83" cy="140" stroke="white" />
      <text x="75" font-size="20" y="147" clip-path="url(#clipPath7)" font-family="&apos;OpusText&apos;" stroke="none" xml:space="preserve">b</text>
      <text xml:space="preserve" x="82" y="146" clip-path="url(#clipPath7)" stroke="none">3</text>
      <circle clip-path="url(#clipPath8)" fill="white" r="13" cx="29" cy="171" stroke="none" />
      <circle clip-path="url(#clipPath8)" fill="none" r="13" cx="29" cy="171" stroke="white" />
      <text x="19" font-size="20" y="183" clip-path="url(#clipPath8)" font-family="&apos;OpusText&apos;" stroke="none" xml:space="preserve">^</text>
      <text xml:space="preserve" x="29" y="177" clip-path="url(#clipPath8)" stroke="none">6</text>
      <circle clip-path="url(#clipPath9)" fill="white" r="13" cx="137" cy="171" stroke="none" />
      <circle clip-path="url(#clipPath9)" fill="none" r="13" cx="137" cy="171" stroke="white" />
      <text x="127" font-size="20" y="183" clip-path="url(#clipPath9)" font-family="&apos;OpusText&apos;" stroke="none" xml:space="preserve">^</text>
      <text xml:space="preserve" x="137" y="177" clip-path="url(#clipPath9)" stroke="none">7</text>
      <circle clip-path="url(#clipPath10)" fill="red" r="13" cx="190" cy="15" stroke="none" />
      <circle clip-path="url(#clipPath10)" fill="none" r="13" cx="190" cy="15" stroke="red" />
      <text x="184" font-size="17" y="22" clip-path="url(#clipPath10)" fill="black" stroke="none" xml:space="preserve">R</text>
      <circle clip-path="url(#clipPath11)" fill="white" r="13" cx="137" cy="77" stroke="none" />
      <circle clip-path="url(#clipPath11)" fill="none" r="13" cx="137" cy="77" stroke="white" />
    </g>
    <g stroke-linecap="butt" font-size="20" text-rendering="geometricPrecision" font-family="&apos;OpusText&apos;" font-weight="bold" stroke-width="2">
      <text xml:space="preserve" x="127" y="89" clip-path="url(#clipPath11)" stroke="none">^</text>
      <text x="137" font-size="16" y="83" clip-path="url(#clipPath11)" font-family="&apos;Arial&apos;" stroke="none" xml:space="preserve">2</text>
    </g>
    <g stroke-linecap="butt" font-size="16" fill="white" text-rendering="geometricPrecision" font-family="&apos;Arial&apos;" stroke="white" font-weight="bold" stroke-width="2">
      <circle r="13" clip-path="url(#clipPath12)" cx="137" cy="108" stroke="none" />
      <circle fill="none" r="13" clip-path="url(#clipPath12)" cx="137" cy="108" />
    </g>
    <g stroke-linecap="butt" font-size="20" fill="rgb(14,14,14)" text-rendering="geometricPrecision" font-family="&apos;OpusText&apos;" stroke="rgb(14,14,14)" font-weight="bold" stroke-width="2">
      <text xml:space="preserve" x="127" y="120" clip-path="url(#clipPath12)" stroke="none">^</text>
      <text x="137" font-size="16" y="114" clip-path="url(#clipPath12)" font-family="&apos;Arial&apos;" stroke="none" xml:space="preserve">6</text>
    </g>
    <g stroke-linecap="butt" font-size="16" fill="white" text-rendering="geometricPrecision" font-family="&apos;Arial&apos;" stroke="white" font-weight="bold" stroke-width="2">
      <circle r="13" clip-path="url(#clipPath13)" cx="190" cy="140" stroke="none" />
      <circle fill="none" r="13" clip-path="url(#clipPath13)" cx="190" cy="140" />
      <text x="180" y="145" clip-path="url(#clipPath13)" fill="rgb(14,14,14)" stroke="none" xml:space="preserve">p4</text>
      <circle clip-path="url(#clipPath14)" fill="red" r="13" cx="190" cy="171" stroke="none" />
      <circle clip-path="url(#clipPath14)" fill="none" r="13" cx="190" cy="171" stroke="red" />
      <text x="184" font-size="17" y="178" clip-path="url(#clipPath14)" fill="rgb(14,14,14)" stroke="none" xml:space="preserve">R</text>
      <circle r="13" clip-path="url(#clipPath15)" cx="190" cy="77" stroke="none" />
      <circle fill="none" r="13" clip-path="url(#clipPath15)" cx="190" cy="77" />
    </g>
    <g stroke-linecap="butt" font-size="20" fill="rgb(14,14,14)" text-rendering="geometricPrecision" font-family="&apos;OpusText&apos;" stroke="rgb(14,14,14)" font-weight="bold" stroke-width="2">
      <text xml:space="preserve" x="182" y="84" clip-path="url(#clipPath15)" stroke="none">b</text>
      <text x="189" font-size="16" y="83" clip-path="url(#clipPath15)" font-family="&apos;Arial&apos;" stroke="none" xml:space="preserve">3</text>
    </g>
    <g stroke-linecap="butt" font-size="16" fill="white" text-rendering="geometricPrecision" font-family="&apos;Arial&apos;" stroke="white" font-weight="bold" stroke-width="2">
      <circle r="13" clip-path="url(#clipPath16)" cx="190" cy="46" stroke="none" />
      <circle fill="none" r="13" clip-path="url(#clipPath16)" cx="190" cy="46" />
      <text x="180" y="51" clip-path="url(#clipPath16)" fill="rgb(14,14,14)" stroke="none" xml:space="preserve">p5</text>
      <circle r="13" clip-path="url(#clipPath17)" cx="244" cy="108" stroke="none" />
      <circle fill="none" r="13" clip-path="url(#clipPath17)" cx="244" cy="108" />
    </g>
    <g stroke-linecap="butt" font-size="20" fill="rgb(14,14,14)" text-rendering="geometricPrecision" font-family="&apos;OpusText&apos;" stroke="rgb(14,14,14)" font-weight="bold" stroke-width="2">
      <text xml:space="preserve" x="234" y="120" clip-path="url(#clipPath17)" stroke="none">^</text>
      <text x="244" font-size="16" y="114" clip-path="url(#clipPath17)" font-family="&apos;Arial&apos;" stroke="none" xml:space="preserve">7</text>
    </g>
  </g>
</svg>
