<?xml version="1.0" encoding="ISO-8859-1"?>

<!DOCTYPE svg PUBLIC '-//W3C//DTD SVG 1.0//EN' 'http://www.w3.org/TR/2001/REC-SVG-20010904/DTD/svg10.dtd'>
<svg stroke-dasharray="none" shape-rendering="auto" xmlns="http://www.w3.org/2000/svg" font-family="&apos;Dialog&apos;" width="185" text-rendering="auto" fill-opacity="1" contentScriptType="text/ecmascript" color-interpolation="auto" color-rendering="auto" preserveAspectRatio="xMidYMid meet" font-size="12" fill="black" xmlns:xlink="http://www.w3.org/1999/xlink" stroke="black" image-rendering="auto" stroke-miterlimit="10" zoomAndPan="magnify" version="1.0" stroke-linecap="square" stroke-linejoin="miter" contentStyleType="text/css" font-style="normal" height="274" stroke-width="1" stroke-dashoffset="0" font-weight="normal" stroke-opacity="1">
  <!--Generated by the Batik Graphics2D SVG Generator-->
  <defs id="genericDefs" />
  <g>
    <defs id="defs1">
      <clipPath clipPathUnits="userSpaceOnUse" id="clipPath1">
        <path d="M62 13 L94 13 L94 45 L62 45 L62 13 Z" />
      </clipPath>
      <clipPath clipPathUnits="userSpaceOnUse" id="clipPath2">
        <path d="M31 13 L63 13 L63 45 L31 45 L31 13 Z" />
      </clipPath>
      <clipPath clipPathUnits="userSpaceOnUse" id="clipPath3">
        <path d="M92 13 L124 13 L124 45 L92 45 L92 13 Z" />
      </clipPath>
      <clipPath clipPathUnits="userSpaceOnUse" id="clipPath4">
        <path d="M154 13 L186 13 L186 45 L154 45 L154 13 Z" />
      </clipPath>
      <clipPath clipPathUnits="userSpaceOnUse" id="clipPath5">
        <path d="M123 67 L155 67 L155 99 L123 99 L123 67 Z" />
      </clipPath>
      <clipPath clipPathUnits="userSpaceOnUse" id="clipPath6">
        <path d="M154 121 L186 121 L186 153 L154 153 L154 121 Z" />
      </clipPath>
      <clipPath clipPathUnits="userSpaceOnUse" id="clipPath7">
        <path d="M31 67 L63 67 L63 99 L31 99 L31 67 Z" />
      </clipPath>
      <clipPath clipPathUnits="userSpaceOnUse" id="clipPath8">
        <path d="M1 13 L33 13 L33 45 L1 45 L1 13 Z" />
      </clipPath>
      <clipPath clipPathUnits="userSpaceOnUse" id="clipPath9">
        <path d="M1 121 L33 121 L33 153 L1 153 L1 121 Z" />
      </clipPath>
      <clipPath clipPathUnits="userSpaceOnUse" id="clipPath10">
        <path d="M154 174 L186 174 L186 206 L154 206 L154 174 Z" />
      </clipPath>
      <clipPath clipPathUnits="userSpaceOnUse" id="clipPath11">
        <path d="M92 121 L124 121 L124 153 L92 153 L92 121 Z" />
      </clipPath>
      <clipPath clipPathUnits="userSpaceOnUse" id="clipPath12">
        <path d="M62 121 L94 121 L94 153 L62 153 L62 121 Z" />
      </clipPath>
      <clipPath clipPathUnits="userSpaceOnUse" id="clipPath13">
        <path d="M31 174 L63 174 L63 206 L31 206 L31 174 Z" />
      </clipPath>
      <clipPath clipPathUnits="userSpaceOnUse" id="clipPath14">
        <path d="M1 174 L33 174 L33 206 L1 206 L1 174 Z" />
      </clipPath>
      <clipPath clipPathUnits="userSpaceOnUse" id="clipPath15">
        <path d="M92 174 L124 174 L124 206 L92 206 L92 174 Z" />
      </clipPath>
      <clipPath clipPathUnits="userSpaceOnUse" id="clipPath16">
        <path d="M123 174 L155 174 L155 206 L123 206 L123 174 Z" />
      </clipPath>
      <clipPath clipPathUnits="userSpaceOnUse" id="clipPath17">
        <path d="M62 228 L94 228 L94 260 L62 260 L62 228 Z" />
      </clipPath>
    </defs>
    <g font-size="19" text-rendering="optimizeLegibility" font-family="&apos;Verdana&apos;" stroke-linejoin="round" stroke-width="0" stroke-miterlimit="0">
      <rect width="154" x="15" height="273" y="0" stroke="none" />
    </g>
    <g text-rendering="optimizeLegibility" font-size="19" font-family="&apos;Verdana&apos;" stroke-linecap="butt">
      <rect fill="none" width="154" x="15" height="273" y="0" />
      <rect x="15" y="0" fill="gray" width="154" height="5" stroke="none" />
      <rect x="15" y="0" fill="none" width="154" height="5" stroke="gray" />
      <rect x="15" y="53" fill="gray" width="154" height="5" stroke="none" />
      <rect x="15" y="53" fill="none" width="154" height="5" stroke="gray" />
      <rect x="15" y="107" fill="gray" width="154" height="5" stroke="none" />
      <rect x="15" y="107" fill="none" width="154" height="5" stroke="gray" />
      <rect x="15" y="160" fill="gray" width="154" height="5" stroke="none" />
      <rect x="15" y="160" fill="none" width="154" height="5" stroke="gray" />
      <rect x="15" y="214" fill="gray" width="154" height="5" stroke="none" />
      <rect x="15" y="214" fill="none" width="154" height="5" stroke="gray" />
      <rect x="15" y="268" fill="gray" width="154" height="5" stroke="none" />
      <rect x="15" y="268" fill="none" width="154" height="5" stroke="gray" />
      <line stroke-linecap="square" fill="none" x1="169" x2="169" y1="0" y2="273" stroke="white" />
      <line stroke-linecap="square" fill="none" x1="138" x2="138" y1="0" y2="273" stroke="white" />
      <line stroke-linecap="square" fill="none" x1="107" x2="107" y1="0" y2="273" stroke="white" />
      <rect stroke-linecap="square" x="76" y="0" fill="white" width="2" height="273" stroke="none" />
      <rect stroke-linecap="square" x="76" y="0" fill="none" width="2" height="273" stroke="rgb(48,48,48)" />
      <rect stroke-linecap="square" x="45" y="0" fill="white" width="3" height="273" stroke="none" />
      <rect stroke-linecap="square" x="45" y="0" fill="none" width="3" height="273" stroke="rgb(48,48,48)" />
      <rect stroke-linecap="square" x="15" y="0" fill="white" width="4" height="273" stroke="none" />
      <rect stroke-linecap="square" x="15" y="0" fill="none" width="4" height="273" stroke="rgb(48,48,48)" />
    </g>
    <g font-size="16" fill="white" text-rendering="geometricPrecision" font-family="&apos;Arial&apos;" stroke="white" font-weight="bold">
      <circle r="13" clip-path="url(#clipPath1)" cx="78" cy="29" stroke="none" />
      <circle stroke-linecap="butt" clip-path="url(#clipPath1)" fill="none" r="13" cx="78" cy="29" stroke-width="2" />
    </g>
    <g stroke-linecap="butt" font-size="16" fill="rgb(14,14,14)" text-rendering="geometricPrecision" font-family="&apos;Arial&apos;" stroke="rgb(14,14,14)" font-weight="bold" stroke-width="2">
      <text xml:space="preserve" x="68" y="35" clip-path="url(#clipPath1)" stroke="none">p5</text>
      <circle clip-path="url(#clipPath2)" fill="white" r="13" cx="47" cy="29" stroke="none" />
      <circle clip-path="url(#clipPath2)" fill="none" r="13" cx="47" cy="29" stroke="white" />
      <text x="37" font-size="20" y="42" clip-path="url(#clipPath2)" font-family="&apos;OpusText&apos;" stroke="none" xml:space="preserve">^</text>
      <text xml:space="preserve" x="47" y="36" clip-path="url(#clipPath2)" stroke="none">2</text>
      <circle clip-path="url(#clipPath3)" fill="red" r="13" cx="108" cy="29" stroke="none" />
      <circle clip-path="url(#clipPath3)" fill="none" r="13" cx="108" cy="29" stroke="red" />
      <text x="102" font-size="17" y="37" clip-path="url(#clipPath3)" stroke="none" xml:space="preserve">R</text>
      <circle clip-path="url(#clipPath4)" fill="white" r="13" cx="170" cy="29" stroke="none" />
      <circle clip-path="url(#clipPath4)" fill="none" r="13" cx="170" cy="29" stroke="white" />
      <text x="160" font-size="20" y="42" clip-path="url(#clipPath4)" font-family="&apos;OpusText&apos;" stroke="none" xml:space="preserve">^</text>
      <text xml:space="preserve" x="170" y="36" clip-path="url(#clipPath4)" stroke="none">6</text>
      <circle clip-path="url(#clipPath5)" fill="white" r="13" cx="139" cy="83" stroke="none" />
      <circle clip-path="url(#clipPath5)" fill="none" r="13" cx="139" cy="83" stroke="white" />
      <text xml:space="preserve" x="129" y="89" clip-path="url(#clipPath5)" stroke="none">p4</text>
      <circle clip-path="url(#clipPath6)" fill="white" r="13" cx="170" cy="137" stroke="none" />
      <circle clip-path="url(#clipPath6)" fill="none" r="13" cx="170" cy="137" stroke="white" />
      <text x="160" font-size="20" y="150" clip-path="url(#clipPath6)" font-family="&apos;OpusText&apos;" stroke="none" xml:space="preserve">^</text>
      <text xml:space="preserve" x="170" y="144" clip-path="url(#clipPath6)" stroke="none">7</text>
      <circle clip-path="url(#clipPath7)" fill="white" r="13" cx="47" cy="83" stroke="none" />
      <circle clip-path="url(#clipPath7)" fill="none" r="13" cx="47" cy="83" stroke="white" />
      <text x="39" font-size="20" y="91" clip-path="url(#clipPath7)" font-family="&apos;OpusText&apos;" stroke="none" xml:space="preserve">b</text>
      <text xml:space="preserve" x="46" y="90" clip-path="url(#clipPath7)" stroke="none">3</text>
      <circle clip-path="url(#clipPath8)" fill="white" r="13" cx="17" cy="29" stroke="none" />
      <circle clip-path="url(#clipPath8)" fill="none" r="13" cx="17" cy="29" stroke="white" />
      <text x="7" font-size="20" y="42" clip-path="url(#clipPath8)" font-family="&apos;OpusText&apos;" stroke="none" xml:space="preserve">^</text>
      <text xml:space="preserve" x="17" y="36" clip-path="url(#clipPath8)" stroke="none">6</text>
      <circle clip-path="url(#clipPath9)" fill="white" r="13" cx="17" cy="137" stroke="none" />
      <circle clip-path="url(#clipPath9)" fill="none" r="13" cx="17" cy="137" stroke="white" />
      <text x="7" font-size="20" y="150" clip-path="url(#clipPath9)" font-family="&apos;OpusText&apos;" stroke="none" xml:space="preserve">^</text>
      <text xml:space="preserve" x="17" y="144" clip-path="url(#clipPath9)" stroke="none">7</text>
      <circle clip-path="url(#clipPath10)" fill="red" r="13" cx="170" cy="190" stroke="none" />
      <circle clip-path="url(#clipPath10)" fill="none" r="13" cx="170" cy="190" stroke="red" />
      <text x="164" font-size="17" y="198" clip-path="url(#clipPath10)" fill="black" stroke="none" xml:space="preserve">R</text>
      <circle clip-path="url(#clipPath11)" fill="white" r="13" cx="108" cy="137" stroke="none" />
      <circle clip-path="url(#clipPath11)" fill="none" r="13" cx="108" cy="137" stroke="white" />
    </g>
    <g stroke-linecap="butt" font-size="20" text-rendering="geometricPrecision" font-family="&apos;OpusText&apos;" font-weight="bold" stroke-width="2">
      <text xml:space="preserve" x="98" y="150" clip-path="url(#clipPath11)" stroke="none">^</text>
      <text x="108" font-size="16" y="144" clip-path="url(#clipPath11)" font-family="&apos;Arial&apos;" stroke="none" xml:space="preserve">2</text>
    </g>
    <g stroke-linecap="butt" font-size="16" fill="white" text-rendering="geometricPrecision" font-family="&apos;Arial&apos;" stroke="white" font-weight="bold" stroke-width="2">
      <circle r="13" clip-path="url(#clipPath12)" cx="78" cy="137" stroke="none" />
      <circle fill="none" r="13" clip-path="url(#clipPath12)" cx="78" cy="137" />
    </g>
    <g stroke-linecap="butt" font-size="20" fill="rgb(14,14,14)" text-rendering="geometricPrecision" font-family="&apos;OpusText&apos;" stroke="rgb(14,14,14)" font-weight="bold" stroke-width="2">
      <text xml:space="preserve" x="68" y="150" clip-path="url(#clipPath12)" stroke="none">^</text>
      <text x="78" font-size="16" y="144" clip-path="url(#clipPath12)" font-family="&apos;Arial&apos;" stroke="none" xml:space="preserve">6</text>
    </g>
    <g stroke-linecap="butt" font-size="16" fill="white" text-rendering="geometricPrecision" font-family="&apos;Arial&apos;" stroke="white" font-weight="bold" stroke-width="2">
      <circle r="13" clip-path="url(#clipPath13)" cx="47" cy="190" stroke="none" />
      <circle fill="none" r="13" clip-path="url(#clipPath13)" cx="47" cy="190" />
      <text x="37" y="196" clip-path="url(#clipPath13)" fill="rgb(14,14,14)" stroke="none" xml:space="preserve">p4</text>
      <circle clip-path="url(#clipPath14)" fill="red" r="13" cx="17" cy="190" stroke="none" />
      <circle clip-path="url(#clipPath14)" fill="none" r="13" cx="17" cy="190" stroke="red" />
      <text x="11" font-size="17" y="198" clip-path="url(#clipPath14)" fill="rgb(14,14,14)" stroke="none" xml:space="preserve">R</text>
      <circle r="13" clip-path="url(#clipPath15)" cx="108" cy="190" stroke="none" />
      <circle fill="none" r="13" clip-path="url(#clipPath15)" cx="108" cy="190" />
    </g>
    <g stroke-linecap="butt" font-size="20" fill="rgb(14,14,14)" text-rendering="geometricPrecision" font-family="&apos;OpusText&apos;" stroke="rgb(14,14,14)" font-weight="bold" stroke-width="2">
      <text xml:space="preserve" x="100" y="198" clip-path="url(#clipPath15)" stroke="none">b</text>
      <text x="107" font-size="16" y="197" clip-path="url(#clipPath15)" font-family="&apos;Arial&apos;" stroke="none" xml:space="preserve">3</text>
    </g>
    <g stroke-linecap="butt" font-size="16" fill="white" text-rendering="geometricPrecision" font-family="&apos;Arial&apos;" stroke="white" font-weight="bold" stroke-width="2">
      <circle r="13" clip-path="url(#clipPath16)" cx="139" cy="190" stroke="none" />
      <circle fill="none" r="13" clip-path="url(#clipPath16)" cx="139" cy="190" />
      <text x="129" y="196" clip-path="url(#clipPath16)" fill="rgb(14,14,14)" stroke="none" xml:space="preserve">p5</text>
      <circle r="13" clip-path="url(#clipPath17)" cx="78" cy="244" stroke="none" />
      <circle fill="none" r="13" clip-path="url(#clipPath17)" cx="78" cy="244" />
    </g>
    <g stroke-linecap="butt" font-size="20" fill="rgb(14,14,14)" text-rendering="geometricPrecision" font-family="&apos;OpusText&apos;" stroke="rgb(14,14,14)" font-weight="bold" stroke-width="2">
      <text xml:space="preserve" x="68" y="257" clip-path="url(#clipPath17)" stroke="none">^</text>
      <text x="78" font-size="16" y="251" clip-path="url(#clipPath17)" font-family="&apos;Arial&apos;" stroke="none" xml:space="preserve">7</text>
    </g>
  </g>
</svg>
