<?xml version="1.0" encoding="ISO-8859-1"?>

<!DOCTYPE svg PUBLIC '-//W3C//DTD SVG 1.0//EN' 'http://www.w3.org/TR/2001/REC-SVG-20010904/DTD/svg10.dtd'>
<svg stroke-dasharray="none" shape-rendering="auto" xmlns="http://www.w3.org/2000/svg" font-family="&apos;Dialog&apos;" width="192" text-rendering="auto" fill-opacity="1" contentScriptType="text/ecmascript" color-interpolation="auto" color-rendering="auto" preserveAspectRatio="xMidYMid meet" font-size="12" fill="black" xmlns:xlink="http://www.w3.org/1999/xlink" stroke="black" image-rendering="auto" stroke-miterlimit="10" zoomAndPan="magnify" version="1.0" stroke-linecap="square" stroke-linejoin="miter" contentStyleType="text/css" font-style="normal" height="272" stroke-width="1" stroke-dashoffset="0" font-weight="normal" stroke-opacity="1">
  <!--Generated by the Batik Graphics2D SVG Generator-->
  <defs id="genericDefs" />
  <g>
    <defs id="defs1">
      <clipPath clipPathUnits="userSpaceOnUse" id="clipPath1">
        <path d="M96 120 L128 120 L128 152 L96 152 L96 120 Z" />
      </clipPath>
      <clipPath clipPathUnits="userSpaceOnUse" id="clipPath2">
        <path d="M65 13 L97 13 L97 45 L65 45 L65 13 Z" />
      </clipPath>
      <clipPath clipPathUnits="userSpaceOnUse" id="clipPath3">
        <path d="M2 173 L34 173 L34 205 L2 205 L2 173 Z" />
      </clipPath>
      <clipPath clipPathUnits="userSpaceOnUse" id="clipPath4">
        <path d="M65 120 L97 120 L97 152 L65 152 L65 120 Z" />
      </clipPath>
      <clipPath clipPathUnits="userSpaceOnUse" id="clipPath5">
        <path d="M2 13 L34 13 L34 45 L2 45 L2 13 Z" />
      </clipPath>
      <clipPath clipPathUnits="userSpaceOnUse" id="clipPath6">
        <path d="M128 66 L160 66 L160 98 L128 98 L128 66 Z" />
      </clipPath>
      <clipPath clipPathUnits="userSpaceOnUse" id="clipPath7">
        <path d="M160 13 L192 13 L192 45 L160 45 L160 13 Z" />
      </clipPath>
      <clipPath clipPathUnits="userSpaceOnUse" id="clipPath8">
        <path d="M160 120 L192 120 L192 152 L160 152 L160 120 Z" />
      </clipPath>
      <clipPath clipPathUnits="userSpaceOnUse" id="clipPath9">
        <path d="M33 13 L65 13 L65 45 L33 45 L33 13 Z" />
      </clipPath>
      <clipPath clipPathUnits="userSpaceOnUse" id="clipPath10">
        <path d="M128 13 L160 13 L160 45 L128 45 L128 13 Z" />
      </clipPath>
      <clipPath clipPathUnits="userSpaceOnUse" id="clipPath11">
        <path d="M33 173 L65 173 L65 205 L33 205 L33 173 Z" />
      </clipPath>
      <clipPath clipPathUnits="userSpaceOnUse" id="clipPath12">
        <path d="M160 173 L192 173 L192 205 L160 205 L160 173 Z" />
      </clipPath>
      <clipPath clipPathUnits="userSpaceOnUse" id="clipPath13">
        <path d="M128 173 L160 173 L160 205 L128 205 L128 173 Z" />
      </clipPath>
      <clipPath clipPathUnits="userSpaceOnUse" id="clipPath14">
        <path d="M65 226 L97 226 L97 258 L65 258 L65 226 Z" />
      </clipPath>
      <clipPath clipPathUnits="userSpaceOnUse" id="clipPath15">
        <path d="M33 120 L65 120 L65 152 L33 152 L33 120 Z" />
      </clipPath>
      <clipPath clipPathUnits="userSpaceOnUse" id="clipPath16">
        <path d="M96 13 L128 13 L128 45 L96 45 L96 13 Z" />
      </clipPath>
      <clipPath clipPathUnits="userSpaceOnUse" id="clipPath17">
        <path d="M2 120 L34 120 L34 152 L2 152 L2 120 Z" />
      </clipPath>
    </defs>
    <g font-size="19" fill="rgb(14,14,14)" text-rendering="optimizeLegibility" font-family="&apos;Verdana&apos;" stroke-linejoin="round" stroke="rgb(14,14,14)" stroke-width="0" stroke-miterlimit="0">
      <rect width="160" x="16" height="271" y="0" stroke="none" />
    </g>
    <g stroke-linecap="butt" font-size="19" fill="rgb(14,14,14)" text-rendering="optimizeLegibility" font-family="&apos;Verdana&apos;" stroke="rgb(14,14,14)">
      <rect fill="none" width="160" x="16" height="271" y="0" />
      <rect x="16" y="0" fill="gray" width="160" height="5" stroke="none" />
      <rect x="16" y="0" fill="none" width="160" height="5" stroke="gray" />
      <rect x="16" y="53" fill="gray" width="160" height="5" stroke="none" />
      <rect x="16" y="53" fill="none" width="160" height="5" stroke="gray" />
      <rect x="16" y="106" fill="gray" width="160" height="5" stroke="none" />
      <rect x="16" y="106" fill="none" width="160" height="5" stroke="gray" />
      <rect x="16" y="159" fill="gray" width="160" height="5" stroke="none" />
      <rect x="16" y="159" fill="none" width="160" height="5" stroke="gray" />
      <rect x="16" y="212" fill="gray" width="160" height="5" stroke="none" />
      <rect x="16" y="212" fill="none" width="160" height="5" stroke="gray" />
      <rect x="16" y="266" fill="gray" width="160" height="5" stroke="none" />
      <rect x="16" y="266" fill="none" width="160" height="5" stroke="gray" />
      <line stroke-linecap="square" fill="none" x1="176" x2="176" y1="0" y2="271" stroke="white" />
      <line stroke-linecap="square" fill="none" x1="144" x2="144" y1="0" y2="271" stroke="white" />
      <line stroke-linecap="square" fill="none" x1="112" x2="112" y1="0" y2="271" stroke="white" />
      <rect stroke-linecap="square" x="80" y="0" fill="white" width="2" height="271" stroke="none" />
      <rect stroke-linecap="square" x="80" y="0" fill="none" width="2" height="271" stroke="rgb(48,48,48)" />
      <rect stroke-linecap="square" x="48" y="0" fill="white" width="3" height="271" stroke="none" />
      <rect stroke-linecap="square" x="48" y="0" fill="none" width="3" height="271" stroke="rgb(48,48,48)" />
      <rect stroke-linecap="square" x="16" y="0" fill="white" width="4" height="271" stroke="none" />
      <rect stroke-linecap="square" x="16" y="0" fill="none" width="4" height="271" stroke="rgb(48,48,48)" />
    </g>
    <g font-size="16" fill="white" text-rendering="geometricPrecision" font-family="&apos;Arial&apos;" stroke="white" font-weight="bold">
      <circle r="13" clip-path="url(#clipPath1)" cx="112" cy="136" stroke="none" />
      <circle stroke-linecap="butt" clip-path="url(#clipPath1)" fill="none" r="13" cx="112" cy="136" stroke-width="2" />
    </g>
    <g stroke-linecap="butt" font-size="20" text-rendering="geometricPrecision" font-family="&apos;OpusText&apos;" font-weight="bold" stroke-width="2">
      <text xml:space="preserve" x="102" y="149" clip-path="url(#clipPath1)" stroke="none">^</text>
      <text x="112" font-size="16" y="143" clip-path="url(#clipPath1)" font-family="&apos;Arial&apos;" stroke="none" xml:space="preserve">2</text>
    </g>
    <g stroke-linecap="butt" font-size="16" fill="white" text-rendering="geometricPrecision" font-family="&apos;Arial&apos;" stroke="white" font-weight="bold" stroke-width="2">
      <circle r="13" clip-path="url(#clipPath2)" cx="81" cy="29" stroke="none" />
      <circle fill="none" r="13" clip-path="url(#clipPath2)" cx="81" cy="29" />
      <text x="71" y="35" clip-path="url(#clipPath2)" fill="black" stroke="none" xml:space="preserve">p5</text>
      <circle clip-path="url(#clipPath3)" fill="red" r="13" cx="18" cy="189" stroke="none" />
      <circle clip-path="url(#clipPath3)" fill="none" r="13" cx="18" cy="189" stroke="red" />
      <text x="12" font-size="17" y="197" clip-path="url(#clipPath3)" fill="black" stroke="none" xml:space="preserve">R</text>
      <circle r="13" clip-path="url(#clipPath4)" cx="81" cy="136" stroke="none" />
      <circle fill="none" r="13" clip-path="url(#clipPath4)" cx="81" cy="136" />
    </g>
    <g stroke-linecap="butt" font-size="20" text-rendering="geometricPrecision" font-family="&apos;OpusText&apos;" font-weight="bold" stroke-width="2">
      <text xml:space="preserve" x="71" y="149" clip-path="url(#clipPath4)" stroke="none">^</text>
      <text x="81" font-size="16" y="143" clip-path="url(#clipPath4)" font-family="&apos;Arial&apos;" stroke="none" xml:space="preserve">6</text>
    </g>
    <g stroke-linecap="butt" font-size="16" fill="white" text-rendering="geometricPrecision" font-family="&apos;Arial&apos;" stroke="white" font-weight="bold" stroke-width="2">
      <circle r="13" clip-path="url(#clipPath5)" cx="18" cy="29" stroke="none" />
      <circle fill="none" r="13" clip-path="url(#clipPath5)" cx="18" cy="29" />
    </g>
    <g stroke-linecap="butt" font-size="20" text-rendering="geometricPrecision" font-family="&apos;OpusText&apos;" font-weight="bold" stroke-width="2">
      <text xml:space="preserve" x="8" y="42" clip-path="url(#clipPath5)" stroke="none">^</text>
      <text x="18" font-size="16" y="36" clip-path="url(#clipPath5)" font-family="&apos;Arial&apos;" stroke="none" xml:space="preserve">6</text>
    </g>
    <g stroke-linecap="butt" font-size="16" fill="white" text-rendering="geometricPrecision" font-family="&apos;Arial&apos;" stroke="white" font-weight="bold" stroke-width="2">
      <circle r="13" clip-path="url(#clipPath6)" cx="144" cy="82" stroke="none" />
      <circle fill="none" r="13" clip-path="url(#clipPath6)" cx="144" cy="82" />
      <text x="134" y="88" clip-path="url(#clipPath6)" fill="black" stroke="none" xml:space="preserve">p4</text>
      <circle r="13" clip-path="url(#clipPath7)" cx="176" cy="29" stroke="none" />
      <circle fill="none" r="13" clip-path="url(#clipPath7)" cx="176" cy="29" />
    </g>
    <g stroke-linecap="butt" font-size="20" text-rendering="geometricPrecision" font-family="&apos;OpusText&apos;" font-weight="bold" stroke-width="2">
      <text xml:space="preserve" x="166" y="42" clip-path="url(#clipPath7)" stroke="none">^</text>
      <text x="176" font-size="16" y="36" clip-path="url(#clipPath7)" font-family="&apos;Arial&apos;" stroke="none" xml:space="preserve">6</text>
    </g>
    <g stroke-linecap="butt" font-size="16" fill="white" text-rendering="geometricPrecision" font-family="&apos;Arial&apos;" stroke="white" font-weight="bold" stroke-width="2">
      <circle r="13" clip-path="url(#clipPath8)" cx="176" cy="136" stroke="none" />
      <circle fill="none" r="13" clip-path="url(#clipPath8)" cx="176" cy="136" />
    </g>
    <g stroke-linecap="butt" font-size="20" text-rendering="geometricPrecision" font-family="&apos;OpusText&apos;" font-weight="bold" stroke-width="2">
      <text xml:space="preserve" x="166" y="149" clip-path="url(#clipPath8)" stroke="none">^</text>
      <text x="176" font-size="16" y="143" clip-path="url(#clipPath8)" font-family="&apos;Arial&apos;" stroke="none" xml:space="preserve">7</text>
    </g>
    <g stroke-linecap="butt" font-size="16" fill="white" text-rendering="geometricPrecision" font-family="&apos;Arial&apos;" stroke="white" font-weight="bold" stroke-width="2">
      <circle r="13" clip-path="url(#clipPath9)" cx="49" cy="29" stroke="none" />
      <circle fill="none" r="13" clip-path="url(#clipPath9)" cx="49" cy="29" />
    </g>
    <g stroke-linecap="butt" font-size="20" text-rendering="geometricPrecision" font-family="&apos;OpusText&apos;" font-weight="bold" stroke-width="2">
      <text xml:space="preserve" x="39" y="42" clip-path="url(#clipPath9)" stroke="none">^</text>
      <text x="49" font-size="16" y="36" clip-path="url(#clipPath9)" font-family="&apos;Arial&apos;" stroke="none" xml:space="preserve">2</text>
    </g>
    <g stroke-linecap="butt" font-size="16" fill="white" text-rendering="geometricPrecision" font-family="&apos;Arial&apos;" stroke="white" font-weight="bold" stroke-width="2">
      <circle r="13" clip-path="url(#clipPath10)" cx="144" cy="29" stroke="none" />
      <circle fill="none" r="13" clip-path="url(#clipPath10)" cx="144" cy="29" />
    </g>
    <g stroke-linecap="butt" font-size="20" text-rendering="geometricPrecision" font-family="&apos;OpusText&apos;" font-weight="bold" stroke-width="2">
      <text xml:space="preserve" x="134" y="42" clip-path="url(#clipPath10)" stroke="none">^</text>
      <text x="144" font-size="16" y="36" clip-path="url(#clipPath10)" font-family="&apos;Arial&apos;" stroke="none" xml:space="preserve">3</text>
    </g>
    <g stroke-linecap="butt" font-size="16" fill="white" text-rendering="geometricPrecision" font-family="&apos;Arial&apos;" stroke="white" font-weight="bold" stroke-width="2">
      <circle r="13" clip-path="url(#clipPath11)" cx="49" cy="189" stroke="none" />
      <circle fill="none" r="13" clip-path="url(#clipPath11)" cx="49" cy="189" />
      <text x="39" y="195" clip-path="url(#clipPath11)" fill="black" stroke="none" xml:space="preserve">p4</text>
      <circle clip-path="url(#clipPath12)" fill="red" r="13" cx="176" cy="189" stroke="none" />
      <circle clip-path="url(#clipPath12)" fill="none" r="13" cx="176" cy="189" stroke="red" />
      <text x="170" font-size="17" y="197" clip-path="url(#clipPath12)" fill="black" stroke="none" xml:space="preserve">R</text>
      <circle r="13" clip-path="url(#clipPath13)" cx="144" cy="189" stroke="none" />
      <circle fill="none" r="13" clip-path="url(#clipPath13)" cx="144" cy="189" />
      <text x="134" y="195" clip-path="url(#clipPath13)" fill="black" stroke="none" xml:space="preserve">p5</text>
      <circle r="13" clip-path="url(#clipPath14)" cx="81" cy="242" stroke="none" />
      <circle fill="none" r="13" clip-path="url(#clipPath14)" cx="81" cy="242" />
    </g>
    <g stroke-linecap="butt" font-size="20" text-rendering="geometricPrecision" font-family="&apos;OpusText&apos;" font-weight="bold" stroke-width="2">
      <text xml:space="preserve" x="71" y="255" clip-path="url(#clipPath14)" stroke="none">^</text>
      <text x="81" font-size="16" y="249" clip-path="url(#clipPath14)" font-family="&apos;Arial&apos;" stroke="none" xml:space="preserve">7</text>
    </g>
    <g stroke-linecap="butt" font-size="16" fill="white" text-rendering="geometricPrecision" font-family="&apos;Arial&apos;" stroke="white" font-weight="bold" stroke-width="2">
      <circle r="13" clip-path="url(#clipPath15)" cx="49" cy="136" stroke="none" />
      <circle fill="none" r="13" clip-path="url(#clipPath15)" cx="49" cy="136" />
    </g>
    <g stroke-linecap="butt" font-size="20" text-rendering="geometricPrecision" font-family="&apos;OpusText&apos;" font-weight="bold" stroke-width="2">
      <text xml:space="preserve" x="39" y="149" clip-path="url(#clipPath15)" stroke="none">^</text>
      <text x="49" font-size="16" y="143" clip-path="url(#clipPath15)" font-family="&apos;Arial&apos;" stroke="none" xml:space="preserve">3</text>
    </g>
    <g stroke-linecap="butt" font-size="17" fill="red" text-rendering="geometricPrecision" font-family="&apos;Arial&apos;" stroke="red" font-weight="bold" stroke-width="2">
      <circle r="13" clip-path="url(#clipPath16)" cx="112" cy="29" stroke="none" />
      <circle fill="none" r="13" clip-path="url(#clipPath16)" cx="112" cy="29" />
      <text x="106" y="37" clip-path="url(#clipPath16)" fill="black" stroke="none" xml:space="preserve">R</text>
      <circle clip-path="url(#clipPath17)" fill="white" r="13" cx="18" cy="136" stroke="none" />
      <circle clip-path="url(#clipPath17)" fill="none" r="13" cx="18" cy="136" stroke="white" />
    </g>
    <g stroke-linecap="butt" font-size="20" text-rendering="geometricPrecision" font-family="&apos;OpusText&apos;" font-weight="bold" stroke-width="2">
      <text xml:space="preserve" x="8" y="149" clip-path="url(#clipPath17)" stroke="none">^</text>
      <text x="18" font-size="16" y="143" clip-path="url(#clipPath17)" font-family="&apos;Arial&apos;" stroke="none" xml:space="preserve">7</text>
    </g>
  </g>
</svg>
