<?xml version="1.0" encoding="ISO-8859-1"?>

<!DOCTYPE svg PUBLIC '-//W3C//DTD SVG 1.0//EN' 'http://www.w3.org/TR/2001/REC-SVG-20010904/DTD/svg10.dtd'>
<svg stroke-dasharray="none" shape-rendering="auto" xmlns="http://www.w3.org/2000/svg" font-family="&apos;Dialog&apos;" width="192" text-rendering="auto" fill-opacity="1" contentScriptType="text/ecmascript" color-interpolation="auto" color-rendering="auto" preserveAspectRatio="xMidYMid meet" font-size="12" fill="black" xmlns:xlink="http://www.w3.org/1999/xlink" stroke="black" image-rendering="auto" stroke-miterlimit="10" zoomAndPan="magnify" version="1.0" stroke-linecap="square" stroke-linejoin="miter" contentStyleType="text/css" font-style="normal" height="272" stroke-width="1" stroke-dashoffset="0" font-weight="normal" stroke-opacity="1">
  <!--Generated by the Batik Graphics2D SVG Generator-->
  <defs id="genericDefs" />
  <g>
    <defs id="defs1">
      <clipPath clipPathUnits="userSpaceOnUse" id="clipPath1">
        <path d="M96 173 L128 173 L128 205 L96 205 L96 173 Z" />
      </clipPath>
      <clipPath clipPathUnits="userSpaceOnUse" id="clipPath2">
        <path d="M65 66 L97 66 L97 98 L65 98 L65 66 Z" />
      </clipPath>
      <clipPath clipPathUnits="userSpaceOnUse" id="clipPath3">
        <path d="M2 120 L34 120 L34 152 L2 152 L2 120 Z" />
      </clipPath>
      <clipPath clipPathUnits="userSpaceOnUse" id="clipPath4">
        <path d="M65 173 L97 173 L97 205 L65 205 L65 173 Z" />
      </clipPath>
      <clipPath clipPathUnits="userSpaceOnUse" id="clipPath5">
        <path d="M2 66 L34 66 L34 98 L2 98 L2 66 Z" />
      </clipPath>
      <clipPath clipPathUnits="userSpaceOnUse" id="clipPath6">
        <path d="M96 66 L128 66 L128 98 L96 98 L96 66 Z" />
      </clipPath>
      <clipPath clipPathUnits="userSpaceOnUse" id="clipPath7">
        <path d="M160 66 L192 66 L192 98 L160 98 L160 66 Z" />
      </clipPath>
      <clipPath clipPathUnits="userSpaceOnUse" id="clipPath8">
        <path d="M160 120 L192 120 L192 152 L160 152 L160 120 Z" />
      </clipPath>
      <clipPath clipPathUnits="userSpaceOnUse" id="clipPath9">
        <path d="M33 226 L65 226 L65 258 L33 258 L33 226 Z" />
      </clipPath>
      <clipPath clipPathUnits="userSpaceOnUse" id="clipPath10">
        <path d="M128 120 L160 120 L160 152 L128 152 L128 120 Z" />
      </clipPath>
      <clipPath clipPathUnits="userSpaceOnUse" id="clipPath11">
        <path d="M128 226 L160 226 L160 258 L128 258 L128 226 Z" />
      </clipPath>
      <clipPath clipPathUnits="userSpaceOnUse" id="clipPath12">
        <path d="M160 226 L192 226 L192 258 L160 258 L160 226 Z" />
      </clipPath>
      <clipPath clipPathUnits="userSpaceOnUse" id="clipPath13">
        <path d="M96 226 L128 226 L128 258 L96 258 L96 226 Z" />
      </clipPath>
      <clipPath clipPathUnits="userSpaceOnUse" id="clipPath14">
        <path d="M65 226 L97 226 L97 258 L65 258 L65 226 Z" />
      </clipPath>
      <clipPath clipPathUnits="userSpaceOnUse" id="clipPath15">
        <path d="M33 120 L65 120 L65 152 L33 152 L33 120 Z" />
      </clipPath>
      <clipPath clipPathUnits="userSpaceOnUse" id="clipPath16">
        <path d="M2 226 L34 226 L34 258 L2 258 L2 226 Z" />
      </clipPath>
      <clipPath clipPathUnits="userSpaceOnUse" id="clipPath17">
        <path d="M33 66 L65 66 L65 98 L33 98 L33 66 Z" />
      </clipPath>
    </defs>
    <g font-size="19" fill="rgb(14,14,14)" text-rendering="optimizeLegibility" font-family="&apos;Verdana&apos;" stroke-linejoin="round" stroke="rgb(14,14,14)" stroke-width="0" stroke-miterlimit="0">
      <rect width="160" x="16" height="271" y="0" stroke="none" />
    </g>
    <g stroke-linecap="butt" font-size="19" fill="rgb(14,14,14)" text-rendering="optimizeLegibility" font-family="&apos;Verdana&apos;" stroke="rgb(14,14,14)">
      <rect fill="none" width="160" x="16" height="271" y="0" />
      <rect x="16" y="0" fill="gray" width="160" height="5" stroke="none" />
      <rect x="16" y="0" fill="none" width="160" height="5" stroke="gray" />
      <rect x="16" y="53" fill="gray" width="160" height="5" stroke="none" />
      <rect x="16" y="53" fill="none" width="160" height="5" stroke="gray" />
      <rect x="16" y="106" fill="gray" width="160" height="5" stroke="none" />
      <rect x="16" y="106" fill="none" width="160" height="5" stroke="gray" />
      <rect x="16" y="159" fill="gray" width="160" height="5" stroke="none" />
      <rect x="16" y="159" fill="none" width="160" height="5" stroke="gray" />
      <rect x="16" y="212" fill="gray" width="160" height="5" stroke="none" />
      <rect x="16" y="212" fill="none" width="160" height="5" stroke="gray" />
      <rect x="16" y="266" fill="gray" width="160" height="5" stroke="none" />
      <rect x="16" y="266" fill="none" width="160" height="5" stroke="gray" />
      <line stroke-linecap="square" fill="none" x1="176" x2="176" y1="0" y2="271" stroke="white" />
      <line stroke-linecap="square" fill="none" x1="144" x2="144" y1="0" y2="271" stroke="white" />
      <line stroke-linecap="square" fill="none" x1="112" x2="112" y1="0" y2="271" stroke="white" />
      <rect stroke-linecap="square" x="80" y="0" fill="white" width="2" height="271" stroke="none" />
      <rect stroke-linecap="square" x="80" y="0" fill="none" width="2" height="271" stroke="rgb(48,48,48)" />
      <rect stroke-linecap="square" x="48" y="0" fill="white" width="3" height="271" stroke="none" />
      <rect stroke-linecap="square" x="48" y="0" fill="none" width="3" height="271" stroke="rgb(48,48,48)" />
      <rect stroke-linecap="square" x="16" y="0" fill="white" width="4" height="271" stroke="none" />
      <rect stroke-linecap="square" x="16" y="0" fill="none" width="4" height="271" stroke="rgb(48,48,48)" />
    </g>
    <g font-size="17" fill="red" text-rendering="geometricPrecision" font-family="&apos;Arial&apos;" stroke="red" font-weight="bold">
      <circle r="13" clip-path="url(#clipPath1)" cx="112" cy="189" stroke="none" />
      <circle stroke-linecap="butt" clip-path="url(#clipPath1)" fill="none" r="13" cx="112" cy="189" stroke-width="2" />
    </g>
    <g stroke-linecap="butt" font-size="17" text-rendering="geometricPrecision" font-family="&apos;Arial&apos;" font-weight="bold" stroke-width="2">
      <text xml:space="preserve" x="106" y="197" clip-path="url(#clipPath1)" stroke="none">R</text>
      <circle clip-path="url(#clipPath2)" fill="rgb(254,255,255)" r="13" cx="81" cy="82" stroke="none" />
      <circle clip-path="url(#clipPath2)" fill="none" r="13" cx="81" cy="82" stroke="rgb(254,255,255)" />
      <text x="71" font-size="16" y="88" clip-path="url(#clipPath2)" stroke="none" xml:space="preserve">p4</text>
      <circle clip-path="url(#clipPath3)" fill="rgb(254,255,255)" r="13" cx="18" cy="136" stroke="none" />
      <circle clip-path="url(#clipPath3)" fill="none" r="13" cx="18" cy="136" stroke="rgb(254,255,255)" />
      <text x="10" font-size="20" y="144" clip-path="url(#clipPath3)" font-family="&apos;OpusText&apos;" stroke="none" xml:space="preserve">b</text>
      <text x="17" font-size="16" y="143" clip-path="url(#clipPath3)" stroke="none" xml:space="preserve">6</text>
      <circle clip-path="url(#clipPath4)" fill="rgb(254,255,255)" r="13" cx="81" cy="189" stroke="none" />
      <circle clip-path="url(#clipPath4)" fill="none" r="13" cx="81" cy="189" stroke="rgb(254,255,255)" />
      <text x="71" font-size="16" y="195" clip-path="url(#clipPath4)" stroke="none" xml:space="preserve">p5</text>
      <circle clip-path="url(#clipPath5)" fill="rgb(254,255,255)" r="13" cx="18" cy="82" stroke="none" />
      <circle clip-path="url(#clipPath5)" fill="none" r="13" cx="18" cy="82" stroke="rgb(254,255,255)" />
      <text x="8" font-size="16" y="88" clip-path="url(#clipPath5)" stroke="none" xml:space="preserve">p5</text>
      <circle clip-path="url(#clipPath6)" fill="rgb(254,255,255)" r="13" cx="112" cy="82" stroke="none" />
      <circle clip-path="url(#clipPath6)" fill="none" r="13" cx="112" cy="82" stroke="rgb(254,255,255)" />
      <text x="104" font-size="20" y="90" clip-path="url(#clipPath6)" font-family="&apos;OpusText&apos;" stroke="none" xml:space="preserve">b</text>
      <text x="111" font-size="16" y="89" clip-path="url(#clipPath6)" stroke="none" xml:space="preserve">7</text>
      <circle clip-path="url(#clipPath7)" fill="rgb(254,255,255)" r="13" cx="176" cy="82" stroke="none" />
      <circle clip-path="url(#clipPath7)" fill="none" r="13" cx="176" cy="82" stroke="rgb(254,255,255)" />
      <text x="166" font-size="16" y="88" clip-path="url(#clipPath7)" stroke="none" xml:space="preserve">p5</text>
      <circle clip-path="url(#clipPath8)" fill="rgb(254,255,255)" r="13" cx="176" cy="136" stroke="none" />
      <circle clip-path="url(#clipPath8)" fill="none" r="13" cx="176" cy="136" stroke="rgb(254,255,255)" />
      <text x="168" font-size="20" y="144" clip-path="url(#clipPath8)" font-family="&apos;OpusText&apos;" stroke="none" xml:space="preserve">b</text>
      <text x="175" font-size="16" y="143" clip-path="url(#clipPath8)" stroke="none" xml:space="preserve">6</text>
      <circle clip-path="url(#clipPath9)" fill="rgb(254,255,255)" r="13" cx="49" cy="242" stroke="none" />
      <circle clip-path="url(#clipPath9)" fill="none" r="13" cx="49" cy="242" stroke="rgb(254,255,255)" />
      <text x="41" font-size="20" y="250" clip-path="url(#clipPath9)" font-family="&apos;OpusText&apos;" stroke="none" xml:space="preserve">b</text>
      <text x="48" font-size="16" y="249" clip-path="url(#clipPath9)" stroke="none" xml:space="preserve">3</text>
      <circle clip-path="url(#clipPath10)" fill="rgb(254,255,255)" r="13" cx="144" cy="136" stroke="none" />
      <circle clip-path="url(#clipPath10)" fill="none" r="13" cx="144" cy="136" stroke="rgb(254,255,255)" />
      <text x="136" font-size="20" y="144" clip-path="url(#clipPath10)" font-family="&apos;OpusText&apos;" stroke="none" xml:space="preserve">b</text>
      <text x="143" font-size="16" y="143" clip-path="url(#clipPath10)" stroke="none" xml:space="preserve">3</text>
      <circle clip-path="url(#clipPath11)" fill="rgb(254,255,255)" r="13" cx="144" cy="242" stroke="none" />
      <circle clip-path="url(#clipPath11)" fill="none" r="13" cx="144" cy="242" stroke="rgb(254,255,255)" />
      <text x="134" font-size="16" y="248" clip-path="url(#clipPath11)" stroke="none" xml:space="preserve">p4</text>
      <circle clip-path="url(#clipPath12)" fill="rgb(254,255,255)" r="13" cx="176" cy="242" stroke="none" />
      <circle clip-path="url(#clipPath12)" fill="none" r="13" cx="176" cy="242" stroke="rgb(254,255,255)" />
      <text x="168" font-size="20" y="250" clip-path="url(#clipPath12)" font-family="&apos;OpusText&apos;" stroke="none" xml:space="preserve">b</text>
      <text x="175" font-size="16" y="249" clip-path="url(#clipPath12)" stroke="none" xml:space="preserve">7</text>
      <circle clip-path="url(#clipPath13)" fill="rgb(254,255,255)" r="13" cx="112" cy="242" stroke="none" />
      <circle clip-path="url(#clipPath13)" fill="none" r="13" cx="112" cy="242" stroke="rgb(254,255,255)" />
      <text x="104" font-size="20" y="250" clip-path="url(#clipPath13)" font-family="&apos;OpusText&apos;" stroke="none" xml:space="preserve">b</text>
      <text x="111" font-size="16" y="249" clip-path="url(#clipPath13)" stroke="none" xml:space="preserve">2</text>
      <circle clip-path="url(#clipPath14)" fill="rgb(254,255,255)" r="13" cx="81" cy="242" stroke="none" />
      <circle clip-path="url(#clipPath14)" fill="none" r="13" cx="81" cy="242" stroke="rgb(254,255,255)" />
      <text x="73" font-size="20" y="250" clip-path="url(#clipPath14)" font-family="&apos;OpusText&apos;" stroke="none" xml:space="preserve">b</text>
      <text x="80" font-size="16" y="249" clip-path="url(#clipPath14)" stroke="none" xml:space="preserve">6</text>
      <circle clip-path="url(#clipPath15)" fill="rgb(254,255,255)" r="13" cx="49" cy="136" stroke="none" />
      <circle clip-path="url(#clipPath15)" fill="none" r="13" cx="49" cy="136" stroke="rgb(254,255,255)" />
      <text x="41" font-size="20" y="144" clip-path="url(#clipPath15)" font-family="&apos;OpusText&apos;" stroke="none" xml:space="preserve">b</text>
      <text x="48" font-size="16" y="143" clip-path="url(#clipPath15)" stroke="none" xml:space="preserve">2</text>
      <circle clip-path="url(#clipPath16)" fill="rgb(254,255,255)" r="13" cx="18" cy="242" stroke="none" />
      <circle clip-path="url(#clipPath16)" fill="none" r="13" cx="18" cy="242" stroke="rgb(254,255,255)" />
      <text x="10" font-size="20" y="250" clip-path="url(#clipPath16)" font-family="&apos;OpusText&apos;" stroke="none" xml:space="preserve">b</text>
      <text x="17" font-size="16" y="249" clip-path="url(#clipPath16)" stroke="none" xml:space="preserve">7</text>
      <circle clip-path="url(#clipPath17)" fill="red" r="13" cx="49" cy="82" stroke="none" />
      <circle clip-path="url(#clipPath17)" fill="none" r="13" cx="49" cy="82" stroke="red" />
      <text xml:space="preserve" x="43" y="90" clip-path="url(#clipPath17)" stroke="none">R</text>
    </g>
  </g>
</svg>
