<?xml version="1.0" encoding="ISO-8859-1"?>

<!DOCTYPE svg PUBLIC '-//W3C//DTD SVG 1.0//EN' 'http://www.w3.org/TR/2001/REC-SVG-20010904/DTD/svg10.dtd'>
<svg stroke-dasharray="none" shape-rendering="auto" xmlns="http://www.w3.org/2000/svg" font-family="&apos;Dialog&apos;" width="185" text-rendering="auto" fill-opacity="1" contentScriptType="text/ecmascript" color-interpolation="auto" color-rendering="auto" preserveAspectRatio="xMidYMid meet" font-size="12" fill="black" xmlns:xlink="http://www.w3.org/1999/xlink" stroke="black" image-rendering="auto" stroke-miterlimit="10" zoomAndPan="magnify" version="1.0" stroke-linecap="square" stroke-linejoin="miter" contentStyleType="text/css" font-style="normal" height="274" stroke-width="1" stroke-dashoffset="0" font-weight="normal" stroke-opacity="1">
  <!--Generated by the Batik Graphics2D SVG Generator-->
  <defs id="genericDefs" />
  <g>
    <defs id="defs1">
      <clipPath clipPathUnits="userSpaceOnUse" id="clipPath1">
        <path d="M62 13 L94 13 L94 45 L62 45 L62 13 Z" />
      </clipPath>
      <clipPath clipPathUnits="userSpaceOnUse" id="clipPath2">
        <path d="M154 121 L186 121 L186 153 L154 153 L154 121 Z" />
      </clipPath>
      <clipPath clipPathUnits="userSpaceOnUse" id="clipPath3">
        <path d="M62 67 L94 67 L94 99 L62 99 L62 67 Z" />
      </clipPath>
      <clipPath clipPathUnits="userSpaceOnUse" id="clipPath4">
        <path d="M154 67 L186 67 L186 99 L154 99 L154 67 Z" />
      </clipPath>
      <clipPath clipPathUnits="userSpaceOnUse" id="clipPath5">
        <path d="M123 67 L155 67 L155 99 L123 99 L123 67 Z" />
      </clipPath>
      <clipPath clipPathUnits="userSpaceOnUse" id="clipPath6">
        <path d="M92 67 L124 67 L124 99 L92 99 L92 67 Z" />
      </clipPath>
      <clipPath clipPathUnits="userSpaceOnUse" id="clipPath7">
        <path d="M1 67 L33 67 L33 99 L1 99 L1 67 Z" />
      </clipPath>
      <clipPath clipPathUnits="userSpaceOnUse" id="clipPath8">
        <path d="M31 67 L63 67 L63 99 L31 99 L31 67 Z" />
      </clipPath>
      <clipPath clipPathUnits="userSpaceOnUse" id="clipPath9">
        <path d="M1 121 L33 121 L33 153 L1 153 L1 121 Z" />
      </clipPath>
      <clipPath clipPathUnits="userSpaceOnUse" id="clipPath10">
        <path d="M123 228 L155 228 L155 260 L123 260 L123 228 Z" />
      </clipPath>
      <clipPath clipPathUnits="userSpaceOnUse" id="clipPath11">
        <path d="M123 174 L155 174 L155 206 L123 206 L123 174 Z" />
      </clipPath>
      <clipPath clipPathUnits="userSpaceOnUse" id="clipPath12">
        <path d="M92 174 L124 174 L124 206 L92 206 L92 174 Z" />
      </clipPath>
      <clipPath clipPathUnits="userSpaceOnUse" id="clipPath13">
        <path d="M62 174 L94 174 L94 206 L62 206 L62 174 Z" />
      </clipPath>
      <clipPath clipPathUnits="userSpaceOnUse" id="clipPath14">
        <path d="M31 174 L63 174 L63 206 L31 206 L31 174 Z" />
      </clipPath>
      <clipPath clipPathUnits="userSpaceOnUse" id="clipPath15">
        <path d="M62 228 L94 228 L94 260 L62 260 L62 228 Z" />
      </clipPath>
      <clipPath clipPathUnits="userSpaceOnUse" id="clipPath16">
        <path d="M154 228 L186 228 L186 260 L154 260 L154 228 Z" />
      </clipPath>
      <clipPath clipPathUnits="userSpaceOnUse" id="clipPath17">
        <path d="M1 228 L33 228 L33 260 L1 260 L1 228 Z" />
      </clipPath>
    </defs>
    <g font-size="19" text-rendering="optimizeLegibility" font-family="&apos;Verdana&apos;" stroke-linejoin="round" stroke-width="0" stroke-miterlimit="0">
      <rect width="154" x="15" height="273" y="0" stroke="none" />
    </g>
    <g text-rendering="optimizeLegibility" font-size="19" font-family="&apos;Verdana&apos;" stroke-linecap="butt">
      <rect fill="none" width="154" x="15" height="273" y="0" />
      <rect x="15" y="0" fill="gray" width="154" height="5" stroke="none" />
      <rect x="15" y="0" fill="none" width="154" height="5" stroke="gray" />
      <rect x="15" y="53" fill="gray" width="154" height="5" stroke="none" />
      <rect x="15" y="53" fill="none" width="154" height="5" stroke="gray" />
      <rect x="15" y="107" fill="gray" width="154" height="5" stroke="none" />
      <rect x="15" y="107" fill="none" width="154" height="5" stroke="gray" />
      <rect x="15" y="160" fill="gray" width="154" height="5" stroke="none" />
      <rect x="15" y="160" fill="none" width="154" height="5" stroke="gray" />
      <rect x="15" y="214" fill="gray" width="154" height="5" stroke="none" />
      <rect x="15" y="214" fill="none" width="154" height="5" stroke="gray" />
      <rect x="15" y="268" fill="gray" width="154" height="5" stroke="none" />
      <rect x="15" y="268" fill="none" width="154" height="5" stroke="gray" />
      <line stroke-linecap="square" fill="none" x1="169" x2="169" y1="0" y2="273" stroke="white" />
      <line stroke-linecap="square" fill="none" x1="138" x2="138" y1="0" y2="273" stroke="white" />
      <line stroke-linecap="square" fill="none" x1="107" x2="107" y1="0" y2="273" stroke="white" />
      <rect stroke-linecap="square" x="76" y="0" fill="white" width="2" height="273" stroke="none" />
      <rect stroke-linecap="square" x="76" y="0" fill="none" width="2" height="273" stroke="rgb(48,48,48)" />
      <rect stroke-linecap="square" x="45" y="0" fill="white" width="3" height="273" stroke="none" />
      <rect stroke-linecap="square" x="45" y="0" fill="none" width="3" height="273" stroke="rgb(48,48,48)" />
      <rect stroke-linecap="square" x="15" y="0" fill="white" width="4" height="273" stroke="none" />
      <rect stroke-linecap="square" x="15" y="0" fill="none" width="4" height="273" stroke="rgb(48,48,48)" />
    </g>
    <g font-size="16" fill="white" text-rendering="geometricPrecision" font-family="&apos;Arial&apos;" stroke="white" font-weight="bold">
      <circle r="13" clip-path="url(#clipPath1)" cx="78" cy="29" stroke="none" />
      <circle stroke-linecap="butt" clip-path="url(#clipPath1)" fill="none" r="13" cx="78" cy="29" stroke-width="2" />
    </g>
    <g stroke-linecap="butt" font-size="20" fill="rgb(14,14,14)" text-rendering="geometricPrecision" font-family="&apos;OpusText&apos;" stroke="rgb(14,14,14)" font-weight="bold" stroke-width="2">
      <text xml:space="preserve" x="68" y="42" clip-path="url(#clipPath1)" stroke="none">^</text>
      <text x="78" font-size="16" y="36" clip-path="url(#clipPath1)" font-family="&apos;Arial&apos;" stroke="none" xml:space="preserve">7</text>
    </g>
    <g stroke-linecap="butt" font-size="16" fill="white" text-rendering="geometricPrecision" font-family="&apos;Arial&apos;" stroke="white" font-weight="bold" stroke-width="2">
      <circle r="13" clip-path="url(#clipPath2)" cx="170" cy="137" stroke="none" />
      <circle fill="none" r="13" clip-path="url(#clipPath2)" cx="170" cy="137" />
    </g>
    <g stroke-linecap="butt" font-size="20" fill="rgb(14,14,14)" text-rendering="geometricPrecision" font-family="&apos;OpusText&apos;" stroke="rgb(14,14,14)" font-weight="bold" stroke-width="2">
      <text xml:space="preserve" x="162" y="145" clip-path="url(#clipPath2)" stroke="none">b</text>
      <text x="169" font-size="16" y="144" clip-path="url(#clipPath2)" font-family="&apos;Arial&apos;" stroke="none" xml:space="preserve">3</text>
    </g>
    <g stroke-linecap="butt" font-size="17" fill="red" text-rendering="geometricPrecision" font-family="&apos;Arial&apos;" stroke="red" font-weight="bold" stroke-width="2">
      <circle r="13" clip-path="url(#clipPath3)" cx="78" cy="83" stroke="none" />
      <circle fill="none" r="13" clip-path="url(#clipPath3)" cx="78" cy="83" />
      <text x="72" y="91" clip-path="url(#clipPath3)" fill="rgb(14,14,14)" stroke="none" xml:space="preserve">R</text>
      <circle clip-path="url(#clipPath4)" fill="white" r="13" cx="170" cy="83" stroke="none" />
      <circle clip-path="url(#clipPath4)" fill="none" r="13" cx="170" cy="83" stroke="white" />
    </g>
    <g stroke-linecap="butt" font-size="20" fill="rgb(14,14,14)" text-rendering="geometricPrecision" font-family="&apos;OpusText&apos;" stroke="rgb(14,14,14)" font-weight="bold" stroke-width="2">
      <text xml:space="preserve" x="160" y="96" clip-path="url(#clipPath4)" stroke="none">^</text>
      <text x="170" font-size="16" y="90" clip-path="url(#clipPath4)" font-family="&apos;Arial&apos;" stroke="none" xml:space="preserve">2</text>
    </g>
    <g stroke-linecap="butt" font-size="16" fill="white" text-rendering="geometricPrecision" font-family="&apos;Arial&apos;" stroke="white" font-weight="bold" stroke-width="2">
      <circle r="13" clip-path="url(#clipPath5)" cx="139" cy="83" stroke="none" />
      <circle fill="none" r="13" clip-path="url(#clipPath5)" cx="139" cy="83" />
    </g>
    <g stroke-linecap="butt" font-size="20" fill="rgb(14,14,14)" text-rendering="geometricPrecision" font-family="&apos;OpusText&apos;" stroke="rgb(14,14,14)" font-weight="bold" stroke-width="2">
      <text xml:space="preserve" x="129" y="96" clip-path="url(#clipPath5)" stroke="none">^</text>
      <text x="139" font-size="16" y="90" clip-path="url(#clipPath5)" font-family="&apos;Arial&apos;" stroke="none" xml:space="preserve">6</text>
    </g>
    <g stroke-linecap="butt" font-size="16" fill="white" text-rendering="geometricPrecision" font-family="&apos;Arial&apos;" stroke="white" font-weight="bold" stroke-width="2">
      <circle r="13" clip-path="url(#clipPath6)" cx="108" cy="83" stroke="none" />
      <circle fill="none" r="13" clip-path="url(#clipPath6)" cx="108" cy="83" />
      <text x="98" y="89" clip-path="url(#clipPath6)" fill="rgb(14,14,14)" stroke="none" xml:space="preserve">p4</text>
      <circle r="13" clip-path="url(#clipPath7)" cx="17" cy="83" stroke="none" />
      <circle fill="none" r="13" clip-path="url(#clipPath7)" cx="17" cy="83" />
    </g>
    <g stroke-linecap="butt" font-size="20" fill="rgb(14,14,14)" text-rendering="geometricPrecision" font-family="&apos;OpusText&apos;" stroke="rgb(14,14,14)" font-weight="bold" stroke-width="2">
      <text xml:space="preserve" x="7" y="96" clip-path="url(#clipPath7)" stroke="none">^</text>
      <text x="17" font-size="16" y="90" clip-path="url(#clipPath7)" font-family="&apos;Arial&apos;" stroke="none" xml:space="preserve">2</text>
    </g>
    <g stroke-linecap="butt" font-size="16" fill="white" text-rendering="geometricPrecision" font-family="&apos;Arial&apos;" stroke="white" font-weight="bold" stroke-width="2">
      <circle r="13" clip-path="url(#clipPath8)" cx="47" cy="83" stroke="none" />
      <circle fill="none" r="13" clip-path="url(#clipPath8)" cx="47" cy="83" />
      <text x="37" y="89" clip-path="url(#clipPath8)" fill="rgb(14,14,14)" stroke="none" xml:space="preserve">p5</text>
      <circle r="13" clip-path="url(#clipPath9)" cx="17" cy="137" stroke="none" />
      <circle fill="none" r="13" clip-path="url(#clipPath9)" cx="17" cy="137" />
    </g>
    <g stroke-linecap="butt" font-size="20" fill="rgb(14,14,14)" text-rendering="geometricPrecision" font-family="&apos;OpusText&apos;" stroke="rgb(14,14,14)" font-weight="bold" stroke-width="2">
      <text xml:space="preserve" x="9" y="145" clip-path="url(#clipPath9)" stroke="none">b</text>
      <text x="16" font-size="16" y="144" clip-path="url(#clipPath9)" font-family="&apos;Arial&apos;" stroke="none" xml:space="preserve">3</text>
    </g>
    <g stroke-linecap="butt" font-size="17" fill="red" text-rendering="geometricPrecision" font-family="&apos;Arial&apos;" stroke="red" font-weight="bold" stroke-width="2">
      <circle r="13" clip-path="url(#clipPath10)" cx="139" cy="244" stroke="none" />
      <circle fill="none" r="13" clip-path="url(#clipPath10)" cx="139" cy="244" />
      <text x="133" y="252" clip-path="url(#clipPath10)" fill="black" stroke="none" xml:space="preserve">R</text>
      <circle clip-path="url(#clipPath11)" fill="white" r="13" cx="139" cy="190" stroke="none" />
      <circle clip-path="url(#clipPath11)" fill="none" r="13" cx="139" cy="190" stroke="white" />
    </g>
    <g stroke-linecap="butt" font-size="20" text-rendering="geometricPrecision" font-family="&apos;OpusText&apos;" font-weight="bold" stroke-width="2">
      <text xml:space="preserve" x="129" y="203" clip-path="url(#clipPath11)" stroke="none">^</text>
      <text x="139" font-size="16" y="197" clip-path="url(#clipPath11)" font-family="&apos;Arial&apos;" stroke="none" xml:space="preserve">7</text>
    </g>
    <g stroke-linecap="butt" font-size="16" fill="white" text-rendering="geometricPrecision" font-family="&apos;Arial&apos;" stroke="white" font-weight="bold" stroke-width="2">
      <circle r="13" clip-path="url(#clipPath12)" cx="108" cy="190" stroke="none" />
      <circle fill="none" r="13" clip-path="url(#clipPath12)" cx="108" cy="190" />
      <text x="98" y="196" clip-path="url(#clipPath12)" fill="rgb(14,14,14)" stroke="none" xml:space="preserve">p5</text>
      <circle r="13" clip-path="url(#clipPath13)" cx="78" cy="190" stroke="none" />
      <circle fill="none" r="13" clip-path="url(#clipPath13)" cx="78" cy="190" />
    </g>
    <g stroke-linecap="butt" font-size="20" fill="rgb(14,14,14)" text-rendering="geometricPrecision" font-family="&apos;OpusText&apos;" stroke="rgb(14,14,14)" font-weight="bold" stroke-width="2">
      <text xml:space="preserve" x="68" y="203" clip-path="url(#clipPath13)" stroke="none">^</text>
      <text x="78" font-size="16" y="197" clip-path="url(#clipPath13)" font-family="&apos;Arial&apos;" stroke="none" xml:space="preserve">2</text>
    </g>
    <g stroke-linecap="butt" font-size="16" fill="white" text-rendering="geometricPrecision" font-family="&apos;Arial&apos;" stroke="white" font-weight="bold" stroke-width="2">
      <circle r="13" clip-path="url(#clipPath14)" cx="47" cy="190" stroke="none" />
      <circle fill="none" r="13" clip-path="url(#clipPath14)" cx="47" cy="190" />
    </g>
    <g stroke-linecap="butt" font-size="20" fill="rgb(14,14,14)" text-rendering="geometricPrecision" font-family="&apos;OpusText&apos;" stroke="rgb(14,14,14)" font-weight="bold" stroke-width="2">
      <text xml:space="preserve" x="37" y="203" clip-path="url(#clipPath14)" stroke="none">^</text>
      <text x="47" font-size="16" y="197" clip-path="url(#clipPath14)" font-family="&apos;Arial&apos;" stroke="none" xml:space="preserve">6</text>
    </g>
    <g stroke-linecap="butt" font-size="16" fill="white" text-rendering="geometricPrecision" font-family="&apos;Arial&apos;" stroke="white" font-weight="bold" stroke-width="2">
      <circle r="13" clip-path="url(#clipPath15)" cx="78" cy="244" stroke="none" />
      <circle fill="none" r="13" clip-path="url(#clipPath15)" cx="78" cy="244" />
    </g>
    <g stroke-linecap="butt" font-size="20" fill="rgb(14,14,14)" text-rendering="geometricPrecision" font-family="&apos;OpusText&apos;" stroke="rgb(14,14,14)" font-weight="bold" stroke-width="2">
      <text xml:space="preserve" x="70" y="252" clip-path="url(#clipPath15)" stroke="none">b</text>
      <text x="77" font-size="16" y="251" clip-path="url(#clipPath15)" font-family="&apos;Arial&apos;" stroke="none" xml:space="preserve">3</text>
    </g>
    <g stroke-linecap="butt" font-size="16" fill="white" text-rendering="geometricPrecision" font-family="&apos;Arial&apos;" stroke="white" font-weight="bold" stroke-width="2">
      <circle r="13" clip-path="url(#clipPath16)" cx="170" cy="244" stroke="none" />
      <circle fill="none" r="13" clip-path="url(#clipPath16)" cx="170" cy="244" />
      <text x="160" y="250" clip-path="url(#clipPath16)" fill="rgb(14,14,14)" stroke="none" xml:space="preserve">p4</text>
      <circle r="13" clip-path="url(#clipPath17)" cx="17" cy="244" stroke="none" />
      <circle fill="none" r="13" clip-path="url(#clipPath17)" cx="17" cy="244" />
      <text x="7" y="250" clip-path="url(#clipPath17)" fill="rgb(14,14,14)" stroke="none" xml:space="preserve">p4</text>
    </g>
  </g>
</svg>
