<?xml version="1.0" encoding="ISO-8859-1"?>

<!DOCTYPE svg PUBLIC '-//W3C//DTD SVG 1.0//EN' 'http://www.w3.org/TR/2001/REC-SVG-20010904/DTD/svg10.dtd'>
<svg stroke-dasharray="none" shape-rendering="auto" xmlns="http://www.w3.org/2000/svg" font-family="&apos;Dialog&apos;" width="192" text-rendering="auto" fill-opacity="1" contentScriptType="text/ecmascript" color-interpolation="auto" color-rendering="auto" preserveAspectRatio="xMidYMid meet" font-size="12" fill="black" xmlns:xlink="http://www.w3.org/1999/xlink" stroke="black" image-rendering="auto" stroke-miterlimit="10" zoomAndPan="magnify" version="1.0" stroke-linecap="square" stroke-linejoin="miter" contentStyleType="text/css" font-style="normal" height="354" stroke-width="1" stroke-dashoffset="0" font-weight="normal" stroke-opacity="1">
  <!--Generated by the Batik Graphics2D SVG Generator-->
  <defs id="genericDefs" />
  <g>
    <defs id="defs1">
      <clipPath clipPathUnits="userSpaceOnUse" id="clipPath1">
        <path d="M96 139 L128 139 L128 171 L96 171 L96 139 Z" />
      </clipPath>
      <clipPath clipPathUnits="userSpaceOnUse" id="clipPath2">
        <path d="M128 52 L160 52 L160 84 L128 84 L128 52 Z" />
      </clipPath>
      <clipPath clipPathUnits="userSpaceOnUse" id="clipPath3">
        <path d="M2 182 L34 182 L34 214 L2 214 L2 182 Z" />
      </clipPath>
      <clipPath clipPathUnits="userSpaceOnUse" id="clipPath4">
        <path d="M65 139 L97 139 L97 171 L65 171 L65 139 Z" />
      </clipPath>
      <clipPath clipPathUnits="userSpaceOnUse" id="clipPath5">
        <path d="M65 95 L97 95 L97 127 L65 127 L65 95 Z" />
      </clipPath>
      <clipPath clipPathUnits="userSpaceOnUse" id="clipPath6">
        <path d="M160 52 L192 52 L192 84 L160 84 L160 52 Z" />
      </clipPath>
      <clipPath clipPathUnits="userSpaceOnUse" id="clipPath7">
        <path d="M160 8 L192 8 L192 40 L160 40 L160 8 Z" />
      </clipPath>
      <clipPath clipPathUnits="userSpaceOnUse" id="clipPath8">
        <path d="M160 95 L192 95 L192 127 L160 127 L160 95 Z" />
      </clipPath>
      <clipPath clipPathUnits="userSpaceOnUse" id="clipPath9">
        <path d="M33 182 L65 182 L65 214 L33 214 L33 182 Z" />
      </clipPath>
      <clipPath clipPathUnits="userSpaceOnUse" id="clipPath10">
        <path d="M128 95 L160 95 L160 127 L128 127 L128 95 Z" />
      </clipPath>
      <clipPath clipPathUnits="userSpaceOnUse" id="clipPath11">
        <path d="M128 139 L160 139 L160 171 L128 171 L128 139 Z" />
      </clipPath>
      <clipPath clipPathUnits="userSpaceOnUse" id="clipPath12">
        <path d="M160 139 L192 139 L192 171 L160 171 L160 139 Z" />
      </clipPath>
      <clipPath clipPathUnits="userSpaceOnUse" id="clipPath13">
        <path d="M96 182 L128 182 L128 214 L96 214 L96 182 Z" />
      </clipPath>
      <clipPath clipPathUnits="userSpaceOnUse" id="clipPath14">
        <path d="M65 182 L97 182 L97 214 L65 214 L65 182 Z" />
      </clipPath>
      <clipPath clipPathUnits="userSpaceOnUse" id="clipPath15">
        <path d="M96 95 L128 95 L128 127 L96 127 L96 95 Z" />
      </clipPath>
      <clipPath clipPathUnits="userSpaceOnUse" id="clipPath16">
        <path d="M33 139 L65 139 L65 171 L33 171 L33 139 Z" />
      </clipPath>
      <clipPath clipPathUnits="userSpaceOnUse" id="clipPath17">
        <path d="M96 52 L128 52 L128 84 L96 84 L96 52 Z" />
      </clipPath>
      <clipPath clipPathUnits="userSpaceOnUse" id="clipPath18">
        <path d="M128 182 L160 182 L160 214 L128 214 L128 182 Z" />
      </clipPath>
      <clipPath clipPathUnits="userSpaceOnUse" id="clipPath19">
        <path d="M160 182 L192 182 L192 214 L160 214 L160 182 Z" />
      </clipPath>
      <clipPath clipPathUnits="userSpaceOnUse" id="clipPath20">
        <path d="M65 226 L97 226 L97 258 L65 258 L65 226 Z" />
      </clipPath>
      <clipPath clipPathUnits="userSpaceOnUse" id="clipPath21">
        <path d="M33 226 L65 226 L65 258 L33 258 L33 226 Z" />
      </clipPath>
      <clipPath clipPathUnits="userSpaceOnUse" id="clipPath22">
        <path d="M2 226 L34 226 L34 258 L2 258 L2 226 Z" />
      </clipPath>
      <clipPath clipPathUnits="userSpaceOnUse" id="clipPath23">
        <path d="M33 269 L65 269 L65 301 L33 301 L33 269 Z" />
      </clipPath>
      <clipPath clipPathUnits="userSpaceOnUse" id="clipPath24">
        <path d="M2 269 L34 269 L34 301 L2 301 L2 269 Z" />
      </clipPath>
      <clipPath clipPathUnits="userSpaceOnUse" id="clipPath25">
        <path d="M2 313 L34 313 L34 345 L2 345 L2 313 Z" />
      </clipPath>
    </defs>
    <g font-size="19" fill="rgb(14,14,14)" text-rendering="optimizeLegibility" font-family="&apos;Verdana&apos;" stroke-linejoin="round" stroke="rgb(14,14,14)" stroke-width="0" stroke-miterlimit="0">
      <rect width="160" x="16" height="353" y="0" stroke="none" />
    </g>
    <g stroke-linecap="butt" font-size="19" fill="rgb(14,14,14)" text-rendering="optimizeLegibility" font-family="&apos;Verdana&apos;" stroke="rgb(14,14,14)">
      <rect fill="none" width="160" x="16" height="353" y="0" />
      <rect x="16" y="0" fill="gray" width="160" height="5" stroke="none" />
      <rect x="16" y="0" fill="none" width="160" height="5" stroke="gray" />
      <rect x="16" y="43" fill="gray" width="160" height="5" stroke="none" />
      <rect x="16" y="43" fill="none" width="160" height="5" stroke="gray" />
      <rect x="16" y="87" fill="gray" width="160" height="5" stroke="none" />
      <rect x="16" y="87" fill="none" width="160" height="5" stroke="gray" />
      <rect x="16" y="130" fill="gray" width="160" height="5" stroke="none" />
      <rect x="16" y="130" fill="none" width="160" height="5" stroke="gray" />
      <rect x="16" y="174" fill="gray" width="160" height="5" stroke="none" />
      <rect x="16" y="174" fill="none" width="160" height="5" stroke="gray" />
      <rect x="16" y="217" fill="gray" width="160" height="5" stroke="none" />
      <rect x="16" y="217" fill="none" width="160" height="5" stroke="gray" />
      <rect x="16" y="261" fill="gray" width="160" height="5" stroke="none" />
      <rect x="16" y="261" fill="none" width="160" height="5" stroke="gray" />
      <rect x="16" y="304" fill="gray" width="160" height="5" stroke="none" />
      <rect x="16" y="304" fill="none" width="160" height="5" stroke="gray" />
      <rect x="16" y="348" fill="gray" width="160" height="5" stroke="none" />
      <rect x="16" y="348" fill="none" width="160" height="5" stroke="gray" />
      <line stroke-linecap="square" fill="none" x1="176" x2="176" y1="0" y2="353" stroke="white" />
      <line stroke-linecap="square" fill="none" x1="144" x2="144" y1="0" y2="353" stroke="white" />
      <line stroke-linecap="square" fill="none" x1="112" x2="112" y1="0" y2="353" stroke="white" />
      <rect stroke-linecap="square" x="80" y="0" fill="white" width="2" height="353" stroke="none" />
      <rect stroke-linecap="square" x="80" y="0" fill="none" width="2" height="353" stroke="rgb(48,48,48)" />
      <rect stroke-linecap="square" x="48" y="0" fill="white" width="3" height="353" stroke="none" />
      <rect stroke-linecap="square" x="48" y="0" fill="none" width="3" height="353" stroke="rgb(48,48,48)" />
      <rect stroke-linecap="square" x="16" y="0" fill="white" width="4" height="353" stroke="none" />
      <rect stroke-linecap="square" x="16" y="0" fill="none" width="4" height="353" stroke="rgb(48,48,48)" />
    </g>
    <g font-size="16" fill="white" text-rendering="geometricPrecision" font-family="&apos;Arial&apos;" stroke="white" font-weight="bold">
      <circle r="13" clip-path="url(#clipPath1)" cx="112" cy="155" stroke="none" />
      <circle stroke-linecap="butt" clip-path="url(#clipPath1)" fill="none" r="13" cx="112" cy="155" stroke-width="2" />
    </g>
    <g stroke-linecap="butt" font-size="20" text-rendering="geometricPrecision" font-family="&apos;OpusText&apos;" font-weight="bold" stroke-width="2">
      <text xml:space="preserve" x="102" y="168" clip-path="url(#clipPath1)" stroke="none">^</text>
      <text x="112" font-size="16" y="162" clip-path="url(#clipPath1)" font-family="&apos;Arial&apos;" stroke="none" xml:space="preserve">2</text>
    </g>
    <g stroke-linecap="butt" font-size="16" fill="white" text-rendering="geometricPrecision" font-family="&apos;Arial&apos;" stroke="white" font-weight="bold" stroke-width="2">
      <circle r="13" clip-path="url(#clipPath2)" cx="144" cy="68" stroke="none" />
      <circle fill="none" r="13" clip-path="url(#clipPath2)" cx="144" cy="68" />
    </g>
    <g stroke-linecap="butt" font-size="20" text-rendering="geometricPrecision" font-family="&apos;OpusText&apos;" font-weight="bold" stroke-width="2">
      <text xml:space="preserve" x="134" y="81" clip-path="url(#clipPath2)" stroke="none">^</text>
      <text x="144" font-size="16" y="75" clip-path="url(#clipPath2)" font-family="&apos;Arial&apos;" stroke="none" xml:space="preserve">3</text>
    </g>
    <g stroke-linecap="butt" font-size="17" fill="red" text-rendering="geometricPrecision" font-family="&apos;Arial&apos;" stroke="red" font-weight="bold" stroke-width="2">
      <circle r="13" clip-path="url(#clipPath3)" cx="18" cy="198" stroke="none" />
      <circle fill="none" r="13" clip-path="url(#clipPath3)" cx="18" cy="198" />
      <text x="12" y="206" clip-path="url(#clipPath3)" fill="black" stroke="none" xml:space="preserve">R</text>
      <circle clip-path="url(#clipPath4)" fill="white" r="13" cx="81" cy="155" stroke="none" />
      <circle clip-path="url(#clipPath4)" fill="none" r="13" cx="81" cy="155" stroke="white" />
    </g>
    <g stroke-linecap="butt" font-size="20" text-rendering="geometricPrecision" font-family="&apos;OpusText&apos;" font-weight="bold" stroke-width="2">
      <text xml:space="preserve" x="71" y="168" clip-path="url(#clipPath4)" stroke="none">^</text>
      <text x="81" font-size="16" y="162" clip-path="url(#clipPath4)" font-family="&apos;Arial&apos;" stroke="none" xml:space="preserve">6</text>
    </g>
    <g stroke-linecap="butt" font-size="16" fill="white" text-rendering="geometricPrecision" font-family="&apos;Arial&apos;" stroke="white" font-weight="bold" stroke-width="2">
      <circle r="13" clip-path="url(#clipPath5)" cx="81" cy="111" stroke="none" />
      <circle fill="none" r="13" clip-path="url(#clipPath5)" cx="81" cy="111" />
    </g>
    <g stroke-linecap="butt" font-size="20" text-rendering="geometricPrecision" font-family="&apos;OpusText&apos;" font-weight="bold" stroke-width="2">
      <text xml:space="preserve" x="73" y="119" clip-path="url(#clipPath5)" stroke="none">b</text>
      <text x="80" font-size="16" y="118" clip-path="url(#clipPath5)" font-family="&apos;Arial&apos;" stroke="none" xml:space="preserve">6</text>
    </g>
    <g stroke-linecap="butt" font-size="16" fill="white" text-rendering="geometricPrecision" font-family="&apos;Arial&apos;" stroke="white" font-weight="bold" stroke-width="2">
      <circle r="13" clip-path="url(#clipPath6)" cx="176" cy="68" stroke="none" />
      <circle fill="none" r="13" clip-path="url(#clipPath6)" cx="176" cy="68" />
    </g>
    <g stroke-linecap="butt" font-size="20" text-rendering="geometricPrecision" font-family="&apos;OpusText&apos;" font-weight="bold" stroke-width="2">
      <text xml:space="preserve" x="166" y="81" clip-path="url(#clipPath6)" stroke="none">^</text>
      <text x="176" font-size="16" y="75" clip-path="url(#clipPath6)" font-family="&apos;Arial&apos;" stroke="none" xml:space="preserve">6</text>
    </g>
    <g stroke-linecap="butt" font-size="16" fill="white" text-rendering="geometricPrecision" font-family="&apos;Arial&apos;" stroke="white" font-weight="bold" stroke-width="2">
      <circle r="13" clip-path="url(#clipPath7)" cx="176" cy="24" stroke="none" />
      <circle fill="none" r="13" clip-path="url(#clipPath7)" cx="176" cy="24" />
    </g>
    <g stroke-linecap="butt" font-size="20" text-rendering="geometricPrecision" font-family="&apos;OpusText&apos;" font-weight="bold" stroke-width="2">
      <text xml:space="preserve" x="168" y="32" clip-path="url(#clipPath7)" stroke="none">b</text>
      <text x="175" font-size="16" y="31" clip-path="url(#clipPath7)" font-family="&apos;Arial&apos;" stroke="none" xml:space="preserve">6</text>
    </g>
    <g stroke-linecap="butt" font-size="16" fill="white" text-rendering="geometricPrecision" font-family="&apos;Arial&apos;" stroke="white" font-weight="bold" stroke-width="2">
      <circle r="13" clip-path="url(#clipPath8)" cx="176" cy="111" stroke="none" />
      <circle fill="none" r="13" clip-path="url(#clipPath8)" cx="176" cy="111" />
    </g>
    <g stroke-linecap="butt" font-size="20" text-rendering="geometricPrecision" font-family="&apos;OpusText&apos;" font-weight="bold" stroke-width="2">
      <text xml:space="preserve" x="168" y="119" clip-path="url(#clipPath8)" stroke="none">b</text>
      <text x="175" font-size="16" y="118" clip-path="url(#clipPath8)" font-family="&apos;Arial&apos;" stroke="none" xml:space="preserve">7</text>
    </g>
    <g stroke-linecap="butt" font-size="16" fill="white" text-rendering="geometricPrecision" font-family="&apos;Arial&apos;" stroke="white" font-weight="bold" stroke-width="2">
      <circle r="13" clip-path="url(#clipPath9)" cx="49" cy="198" stroke="none" />
      <circle fill="none" r="13" clip-path="url(#clipPath9)" cx="49" cy="198" />
      <text x="39" y="204" clip-path="url(#clipPath9)" fill="black" stroke="none" xml:space="preserve">p4</text>
      <circle r="13" clip-path="url(#clipPath10)" cx="144" cy="111" stroke="none" />
      <circle fill="none" r="13" clip-path="url(#clipPath10)" cx="144" cy="111" />
      <text x="134" y="117" clip-path="url(#clipPath10)" fill="black" stroke="none" xml:space="preserve">p4</text>
      <circle r="13" clip-path="url(#clipPath11)" cx="144" cy="155" stroke="none" />
      <circle fill="none" r="13" clip-path="url(#clipPath11)" cx="144" cy="155" />
    </g>
    <g stroke-linecap="butt" font-size="20" text-rendering="geometricPrecision" font-family="&apos;OpusText&apos;" font-weight="bold" stroke-width="2">
      <text xml:space="preserve" x="136" y="163" clip-path="url(#clipPath11)" stroke="none">b</text>
      <text x="143" font-size="16" y="162" clip-path="url(#clipPath11)" font-family="&apos;Arial&apos;" stroke="none" xml:space="preserve">5</text>
    </g>
    <g stroke-linecap="butt" font-size="16" fill="white" text-rendering="geometricPrecision" font-family="&apos;Arial&apos;" stroke="white" font-weight="bold" stroke-width="2">
      <circle r="13" clip-path="url(#clipPath12)" cx="176" cy="155" stroke="none" />
      <circle fill="none" r="13" clip-path="url(#clipPath12)" cx="176" cy="155" />
    </g>
    <g stroke-linecap="butt" font-size="20" text-rendering="geometricPrecision" font-family="&apos;OpusText&apos;" font-weight="bold" stroke-width="2">
      <text xml:space="preserve" x="166" y="168" clip-path="url(#clipPath12)" stroke="none">^</text>
      <text x="176" font-size="16" y="162" clip-path="url(#clipPath12)" font-family="&apos;Arial&apos;" stroke="none" xml:space="preserve">7</text>
    </g>
    <g stroke-linecap="butt" font-size="17" fill="white" text-rendering="geometricPrecision" font-family="&apos;Arial&apos;" stroke="white" font-weight="bold" stroke-width="2">
      <circle r="13" clip-path="url(#clipPath13)" cx="112" cy="198" stroke="none" />
      <circle fill="none" r="13" clip-path="url(#clipPath13)" cx="112" cy="198" />
      <circle r="13" clip-path="url(#clipPath14)" cx="81" cy="198" stroke="none" />
      <circle fill="none" r="13" clip-path="url(#clipPath14)" cx="81" cy="198" />
    </g>
    <g stroke-linecap="butt" font-size="20" text-rendering="geometricPrecision" font-family="&apos;OpusText&apos;" font-weight="bold" stroke-width="2">
      <text xml:space="preserve" x="73" y="206" clip-path="url(#clipPath14)" stroke="none">b</text>
      <text x="80" font-size="16" y="205" clip-path="url(#clipPath14)" font-family="&apos;Arial&apos;" stroke="none" xml:space="preserve">7</text>
    </g>
    <g stroke-linecap="butt" font-size="16" fill="white" text-rendering="geometricPrecision" font-family="&apos;Arial&apos;" stroke="white" font-weight="bold" stroke-width="2">
      <circle r="13" clip-path="url(#clipPath15)" cx="112" cy="111" stroke="none" />
      <circle fill="none" r="13" clip-path="url(#clipPath15)" cx="112" cy="111" />
    </g>
    <g stroke-linecap="butt" font-size="20" text-rendering="geometricPrecision" font-family="&apos;OpusText&apos;" font-weight="bold" stroke-width="2">
      <text xml:space="preserve" x="104" y="119" clip-path="url(#clipPath15)" stroke="none">b</text>
      <text x="111" font-size="16" y="118" clip-path="url(#clipPath15)" font-family="&apos;Arial&apos;" stroke="none" xml:space="preserve">2</text>
    </g>
    <g stroke-linecap="butt" font-size="16" fill="white" text-rendering="geometricPrecision" font-family="&apos;Arial&apos;" stroke="white" font-weight="bold" stroke-width="2">
      <circle r="13" clip-path="url(#clipPath16)" cx="49" cy="155" stroke="none" />
      <circle fill="none" r="13" clip-path="url(#clipPath16)" cx="49" cy="155" />
    </g>
    <g stroke-linecap="butt" font-size="20" text-rendering="geometricPrecision" font-family="&apos;OpusText&apos;" font-weight="bold" stroke-width="2">
      <text xml:space="preserve" x="39" y="168" clip-path="url(#clipPath16)" stroke="none">^</text>
      <text x="49" font-size="16" y="162" clip-path="url(#clipPath16)" font-family="&apos;Arial&apos;" stroke="none" xml:space="preserve">3</text>
    </g>
    <g stroke-linecap="butt" font-size="17" fill="red" text-rendering="geometricPrecision" font-family="&apos;Arial&apos;" stroke="red" font-weight="bold" stroke-width="2">
      <circle r="13" clip-path="url(#clipPath17)" cx="112" cy="68" stroke="none" />
      <circle fill="none" r="13" clip-path="url(#clipPath17)" cx="112" cy="68" />
      <text x="106" y="76" clip-path="url(#clipPath17)" fill="black" stroke="none" xml:space="preserve">R</text>
      <circle clip-path="url(#clipPath18)" fill="white" r="13" cx="144" cy="198" stroke="none" />
      <circle clip-path="url(#clipPath18)" fill="none" r="13" cx="144" cy="198" stroke="white" />
      <text x="134" font-size="16" y="204" clip-path="url(#clipPath18)" fill="black" stroke="none" xml:space="preserve">p5</text>
      <circle r="13" clip-path="url(#clipPath19)" cx="176" cy="198" stroke="none" />
      <circle fill="none" r="13" clip-path="url(#clipPath19)" cx="176" cy="198" />
      <text x="170" y="206" clip-path="url(#clipPath19)" fill="black" stroke="none" xml:space="preserve">R</text>
      <circle clip-path="url(#clipPath20)" fill="white" r="13" cx="81" cy="242" stroke="none" />
      <circle clip-path="url(#clipPath20)" fill="none" r="13" cx="81" cy="242" stroke="white" />
    </g>
    <g stroke-linecap="butt" font-size="20" text-rendering="geometricPrecision" font-family="&apos;OpusText&apos;" font-weight="bold" stroke-width="2">
      <text xml:space="preserve" x="71" y="255" clip-path="url(#clipPath20)" stroke="none">^</text>
      <text x="81" font-size="16" y="249" clip-path="url(#clipPath20)" font-family="&apos;Arial&apos;" stroke="none" xml:space="preserve">7</text>
    </g>
    <g stroke-linecap="butt" font-size="16" fill="white" text-rendering="geometricPrecision" font-family="&apos;Arial&apos;" stroke="white" font-weight="bold" stroke-width="2">
      <circle r="13" clip-path="url(#clipPath21)" cx="49" cy="242" stroke="none" />
      <circle fill="none" r="13" clip-path="url(#clipPath21)" cx="49" cy="242" />
    </g>
    <g stroke-linecap="butt" font-size="20" text-rendering="geometricPrecision" font-family="&apos;OpusText&apos;" font-weight="bold" stroke-width="2">
      <text xml:space="preserve" x="41" y="250" clip-path="url(#clipPath21)" stroke="none">b</text>
      <text x="48" font-size="16" y="249" clip-path="url(#clipPath21)" font-family="&apos;Arial&apos;" stroke="none" xml:space="preserve">5</text>
    </g>
    <g stroke-linecap="butt" font-size="16" fill="white" text-rendering="geometricPrecision" font-family="&apos;Arial&apos;" stroke="white" font-weight="bold" stroke-width="2">
      <circle r="13" clip-path="url(#clipPath22)" cx="18" cy="242" stroke="none" />
      <circle fill="none" r="13" clip-path="url(#clipPath22)" cx="18" cy="242" />
    </g>
    <g stroke-linecap="butt" font-size="20" text-rendering="geometricPrecision" font-family="&apos;OpusText&apos;" font-weight="bold" stroke-width="2">
      <text xml:space="preserve" x="10" y="250" clip-path="url(#clipPath22)" stroke="none">b</text>
      <text x="17" font-size="16" y="249" clip-path="url(#clipPath22)" font-family="&apos;Arial&apos;" stroke="none" xml:space="preserve">2</text>
    </g>
    <g stroke-linecap="butt" font-size="16" fill="white" text-rendering="geometricPrecision" font-family="&apos;Arial&apos;" stroke="white" font-weight="bold" stroke-width="2">
      <circle r="13" clip-path="url(#clipPath13)" cx="112" cy="198" stroke="none" />
      <circle fill="none" r="13" clip-path="url(#clipPath13)" cx="112" cy="198" />
    </g>
    <g stroke-linecap="butt" font-size="20" text-rendering="geometricPrecision" font-family="&apos;OpusText&apos;" font-weight="bold" stroke-width="2">
      <text xml:space="preserve" x="104" y="206" clip-path="url(#clipPath13)" stroke="none">b</text>
      <text x="111" font-size="16" y="205" clip-path="url(#clipPath13)" font-family="&apos;Arial&apos;" stroke="none" xml:space="preserve">3</text>
    </g>
    <g stroke-linecap="butt" font-size="16" fill="white" text-rendering="geometricPrecision" font-family="&apos;Arial&apos;" stroke="white" font-weight="bold" stroke-width="2">
      <circle r="13" clip-path="url(#clipPath23)" cx="49" cy="285" stroke="none" />
      <circle fill="none" r="13" clip-path="url(#clipPath23)" cx="49" cy="285" />
      <text x="39" y="291" clip-path="url(#clipPath23)" fill="black" stroke="none" xml:space="preserve">p5</text>
      <circle r="13" clip-path="url(#clipPath24)" cx="18" cy="285" stroke="none" />
      <circle fill="none" r="13" clip-path="url(#clipPath24)" cx="18" cy="285" />
    </g>
    <g stroke-linecap="butt" font-size="20" text-rendering="geometricPrecision" font-family="&apos;OpusText&apos;" font-weight="bold" stroke-width="2">
      <text xml:space="preserve" x="8" y="298" clip-path="url(#clipPath24)" stroke="none">^</text>
      <text x="18" font-size="16" y="292" clip-path="url(#clipPath24)" font-family="&apos;Arial&apos;" stroke="none" xml:space="preserve">2</text>
    </g>
    <g stroke-linecap="butt" font-size="16" fill="white" text-rendering="geometricPrecision" font-family="&apos;Arial&apos;" stroke="white" font-weight="bold" stroke-width="2">
      <circle r="13" clip-path="url(#clipPath25)" cx="18" cy="329" stroke="none" />
      <circle fill="none" r="13" clip-path="url(#clipPath25)" cx="18" cy="329" />
    </g>
    <g stroke-linecap="butt" font-size="20" text-rendering="geometricPrecision" font-family="&apos;OpusText&apos;" font-weight="bold" stroke-width="2">
      <text xml:space="preserve" x="10" y="337" clip-path="url(#clipPath25)" stroke="none">b</text>
      <text x="17" font-size="16" y="336" clip-path="url(#clipPath25)" font-family="&apos;Arial&apos;" stroke="none" xml:space="preserve">3</text>
    </g>
  </g>
</svg>
